%TF.GenerationSoftware,KiCad,Pcbnew,5.1.10-88a1d61d58~88~ubuntu18.04.1*%
%TF.CreationDate,2021-07-16T18:03:04+01:00*%
%TF.ProjectId,NerdClock,4e657264-436c-46f6-936b-2e6b69636164,rev?*%
%TF.SameCoordinates,Original*%
%TF.FileFunction,Soldermask,Top*%
%TF.FilePolarity,Negative*%
%FSLAX46Y46*%
G04 Gerber Fmt 4.6, Leading zero omitted, Abs format (unit mm)*
G04 Created by KiCad (PCBNEW 5.1.10-88a1d61d58~88~ubuntu18.04.1) date 2021-07-16 18:03:04*
%MOMM*%
%LPD*%
G01*
G04 APERTURE LIST*
%ADD10C,0.100000*%
%ADD11C,3.500000*%
%ADD12R,1.600000X1.400000*%
%ADD13R,1.700000X1.700000*%
%ADD14O,1.700000X1.700000*%
%ADD15C,1.524000*%
%ADD16R,1.100000X0.400000*%
%ADD17R,3.400000X9.500000*%
%ADD18C,3.200000*%
%ADD19C,6.400000*%
%ADD20C,0.800000*%
%ADD21O,1.800000X4.000000*%
%ADD22O,4.000000X1.800000*%
%ADD23R,4.400000X1.800000*%
%ADD24R,2.000000X1.350000*%
%ADD25R,0.700000X1.825000*%
%ADD26R,1.500000X2.000000*%
%ADD27R,1.650000X0.400000*%
%ADD28O,1.500000X1.100000*%
%ADD29O,1.700000X1.350000*%
%ADD30R,2.500000X1.430000*%
%ADD31R,0.900000X0.800000*%
%ADD32R,1.400000X1.600000*%
%ADD33R,3.800000X2.000000*%
%ADD34R,1.600000X0.550000*%
%ADD35R,0.550000X1.600000*%
%ADD36R,1.524000X1.524000*%
%ADD37R,3.500000X1.200000*%
%ADD38C,1.000000*%
%ADD39R,3.150000X1.000000*%
%ADD40R,1.800000X2.500000*%
G04 APERTURE END LIST*
D10*
G36*
X85852000Y-142494000D02*
G01*
X83058000Y-142494000D01*
X83058000Y-135128000D01*
X85852000Y-135128000D01*
X85852000Y-142494000D01*
G37*
X85852000Y-142494000D02*
X83058000Y-142494000D01*
X83058000Y-135128000D01*
X85852000Y-135128000D01*
X85852000Y-142494000D01*
D11*
X90922000Y-45566000D02*
G75*
G03*
X90922000Y-45566000I-1750000J0D01*
G01*
X70916000Y-53853000D02*
G75*
G03*
X70916000Y-53853000I-1750000J0D01*
G01*
X55603000Y-69166000D02*
G75*
G03*
X55603000Y-69166000I-1750000J0D01*
G01*
X47316000Y-89172000D02*
G75*
G03*
X47316000Y-89172000I-1750000J0D01*
G01*
X47316000Y-110828000D02*
G75*
G03*
X47316000Y-110828000I-1750000J0D01*
G01*
X55603000Y-130834000D02*
G75*
G03*
X55603000Y-130834000I-1750000J0D01*
G01*
X70916000Y-146147000D02*
G75*
G03*
X70916000Y-146147000I-1750000J0D01*
G01*
X90922000Y-154434000D02*
G75*
G03*
X90922000Y-154434000I-1750000J0D01*
G01*
X112578000Y-154434000D02*
G75*
G03*
X112578000Y-154434000I-1750000J0D01*
G01*
X132584000Y-146147000D02*
G75*
G03*
X132584000Y-146147000I-1750000J0D01*
G01*
X147897000Y-130834000D02*
G75*
G03*
X147897000Y-130834000I-1750000J0D01*
G01*
X156184000Y-110828000D02*
G75*
G03*
X156184000Y-110828000I-1750000J0D01*
G01*
X156184000Y-89172000D02*
G75*
G03*
X156184000Y-89172000I-1750000J0D01*
G01*
X147897000Y-69166000D02*
G75*
G03*
X147897000Y-69166000I-1750000J0D01*
G01*
X132584000Y-53853000D02*
G75*
G03*
X132584000Y-53853000I-1750000J0D01*
G01*
X112578000Y-45566000D02*
G75*
G03*
X112578000Y-45566000I-1750000J0D01*
G01*
D12*
X61000000Y-82250000D03*
X69000000Y-82250000D03*
X61000000Y-77750000D03*
X69000000Y-77750000D03*
D13*
X96190000Y-96000000D03*
D14*
X98730000Y-96000000D03*
X101270000Y-96000000D03*
X103810000Y-96000000D03*
X103810000Y-129000000D03*
X101270000Y-129000000D03*
X98730000Y-129000000D03*
D13*
X96190000Y-129000000D03*
D15*
X95500000Y-93000000D03*
X98500000Y-93000000D03*
X101500000Y-93000000D03*
X104500000Y-93000000D03*
X92500000Y-88000000D03*
X107500000Y-88000000D03*
D16*
X120056000Y-125738000D03*
X120056000Y-126388000D03*
X120056000Y-127038000D03*
X120056000Y-127688000D03*
X120056000Y-128338000D03*
X120056000Y-128988000D03*
X120056000Y-129638000D03*
X120056000Y-130288000D03*
X120056000Y-130938000D03*
X120056000Y-131588000D03*
X120056000Y-132238000D03*
X120056000Y-132888000D03*
X120056000Y-133538000D03*
X120056000Y-134188000D03*
X125756000Y-134188000D03*
X125756000Y-133538000D03*
X125756000Y-132888000D03*
X125756000Y-132238000D03*
X125756000Y-131588000D03*
X125756000Y-130938000D03*
X125756000Y-130288000D03*
X125756000Y-129638000D03*
X125756000Y-128988000D03*
X125756000Y-128338000D03*
X125756000Y-127688000D03*
X125756000Y-127038000D03*
X125756000Y-126388000D03*
X125756000Y-125738000D03*
D17*
X122906000Y-129963000D03*
D18*
X109000000Y-130500000D03*
D19*
X111114000Y-80749000D03*
D20*
X113514000Y-80749000D03*
X112811056Y-82446056D03*
X111114000Y-83149000D03*
X109416944Y-82446056D03*
X108714000Y-80749000D03*
X109416944Y-79051944D03*
X111114000Y-78349000D03*
X112811056Y-79051944D03*
D19*
X111114000Y-119251000D03*
D20*
X113514000Y-119251000D03*
X112811056Y-120948056D03*
X111114000Y-121651000D03*
X109416944Y-120948056D03*
X108714000Y-119251000D03*
X109416944Y-117553944D03*
X111114000Y-116851000D03*
X112811056Y-117553944D03*
X79468056Y-98302944D03*
X77771000Y-97600000D03*
X76073944Y-98302944D03*
X75371000Y-100000000D03*
X76073944Y-101697056D03*
X77771000Y-102400000D03*
X79468056Y-101697056D03*
X80171000Y-100000000D03*
D19*
X77771000Y-100000000D03*
D10*
G36*
X73616154Y-131461439D02*
G01*
X76733846Y-129661439D01*
X78033846Y-131913105D01*
X74916154Y-133713105D01*
X73616154Y-131461439D01*
G37*
G36*
X58966154Y-106086895D02*
G01*
X62083846Y-104286895D01*
X63383846Y-106538561D01*
X60266154Y-108338561D01*
X58966154Y-106086895D01*
G37*
G36*
G01*
X113850000Y-135400000D02*
X114950000Y-135400000D01*
G75*
G02*
X115200000Y-135650000I0J-250000D01*
G01*
X115200000Y-138150000D01*
G75*
G02*
X114950000Y-138400000I-250000J0D01*
G01*
X113850000Y-138400000D01*
G75*
G02*
X113600000Y-138150000I0J250000D01*
G01*
X113600000Y-135650000D01*
G75*
G02*
X113850000Y-135400000I250000J0D01*
G01*
G37*
G36*
G01*
X113850000Y-139800000D02*
X114950000Y-139800000D01*
G75*
G02*
X115200000Y-140050000I0J-250000D01*
G01*
X115200000Y-142550000D01*
G75*
G02*
X114950000Y-142800000I-250000J0D01*
G01*
X113850000Y-142800000D01*
G75*
G02*
X113600000Y-142550000I0J250000D01*
G01*
X113600000Y-140050000D01*
G75*
G02*
X113850000Y-139800000I250000J0D01*
G01*
G37*
G36*
G01*
X132969000Y-128838000D02*
X132969000Y-129338000D01*
G75*
G02*
X132744000Y-129563000I-225000J0D01*
G01*
X132294000Y-129563000D01*
G75*
G02*
X132069000Y-129338000I0J225000D01*
G01*
X132069000Y-128838000D01*
G75*
G02*
X132294000Y-128613000I225000J0D01*
G01*
X132744000Y-128613000D01*
G75*
G02*
X132969000Y-128838000I0J-225000D01*
G01*
G37*
G36*
G01*
X134519000Y-128838000D02*
X134519000Y-129338000D01*
G75*
G02*
X134294000Y-129563000I-225000J0D01*
G01*
X133844000Y-129563000D01*
G75*
G02*
X133619000Y-129338000I0J225000D01*
G01*
X133619000Y-128838000D01*
G75*
G02*
X133844000Y-128613000I225000J0D01*
G01*
X134294000Y-128613000D01*
G75*
G02*
X134519000Y-128838000I0J-225000D01*
G01*
G37*
G36*
G01*
X134519000Y-126806000D02*
X134519000Y-127306000D01*
G75*
G02*
X134294000Y-127531000I-225000J0D01*
G01*
X133844000Y-127531000D01*
G75*
G02*
X133619000Y-127306000I0J225000D01*
G01*
X133619000Y-126806000D01*
G75*
G02*
X133844000Y-126581000I225000J0D01*
G01*
X134294000Y-126581000D01*
G75*
G02*
X134519000Y-126806000I0J-225000D01*
G01*
G37*
G36*
G01*
X132969000Y-126806000D02*
X132969000Y-127306000D01*
G75*
G02*
X132744000Y-127531000I-225000J0D01*
G01*
X132294000Y-127531000D01*
G75*
G02*
X132069000Y-127306000I0J225000D01*
G01*
X132069000Y-126806000D01*
G75*
G02*
X132294000Y-126581000I225000J0D01*
G01*
X132744000Y-126581000D01*
G75*
G02*
X132969000Y-126806000I0J-225000D01*
G01*
G37*
G36*
G01*
X120475000Y-123750000D02*
X120475000Y-124250000D01*
G75*
G02*
X120250000Y-124475000I-225000J0D01*
G01*
X119800000Y-124475000D01*
G75*
G02*
X119575000Y-124250000I0J225000D01*
G01*
X119575000Y-123750000D01*
G75*
G02*
X119800000Y-123525000I225000J0D01*
G01*
X120250000Y-123525000D01*
G75*
G02*
X120475000Y-123750000I0J-225000D01*
G01*
G37*
G36*
G01*
X118925000Y-123750000D02*
X118925000Y-124250000D01*
G75*
G02*
X118700000Y-124475000I-225000J0D01*
G01*
X118250000Y-124475000D01*
G75*
G02*
X118025000Y-124250000I0J225000D01*
G01*
X118025000Y-123750000D01*
G75*
G02*
X118250000Y-123525000I225000J0D01*
G01*
X118700000Y-123525000D01*
G75*
G02*
X118925000Y-123750000I0J-225000D01*
G01*
G37*
G36*
G01*
X119475000Y-105750000D02*
X119475000Y-106250000D01*
G75*
G02*
X119250000Y-106475000I-225000J0D01*
G01*
X118800000Y-106475000D01*
G75*
G02*
X118575000Y-106250000I0J225000D01*
G01*
X118575000Y-105750000D01*
G75*
G02*
X118800000Y-105525000I225000J0D01*
G01*
X119250000Y-105525000D01*
G75*
G02*
X119475000Y-105750000I0J-225000D01*
G01*
G37*
G36*
G01*
X121025000Y-105750000D02*
X121025000Y-106250000D01*
G75*
G02*
X120800000Y-106475000I-225000J0D01*
G01*
X120350000Y-106475000D01*
G75*
G02*
X120125000Y-106250000I0J225000D01*
G01*
X120125000Y-105750000D01*
G75*
G02*
X120350000Y-105525000I225000J0D01*
G01*
X120800000Y-105525000D01*
G75*
G02*
X121025000Y-105750000I0J-225000D01*
G01*
G37*
G36*
G01*
X134575000Y-109335001D02*
X134575000Y-108835001D01*
G75*
G02*
X134800000Y-108610001I225000J0D01*
G01*
X135250000Y-108610001D01*
G75*
G02*
X135475000Y-108835001I0J-225000D01*
G01*
X135475000Y-109335001D01*
G75*
G02*
X135250000Y-109560001I-225000J0D01*
G01*
X134800000Y-109560001D01*
G75*
G02*
X134575000Y-109335001I0J225000D01*
G01*
G37*
G36*
G01*
X133025000Y-109335001D02*
X133025000Y-108835001D01*
G75*
G02*
X133250000Y-108610001I225000J0D01*
G01*
X133700000Y-108610001D01*
G75*
G02*
X133925000Y-108835001I0J-225000D01*
G01*
X133925000Y-109335001D01*
G75*
G02*
X133700000Y-109560001I-225000J0D01*
G01*
X133250000Y-109560001D01*
G75*
G02*
X133025000Y-109335001I0J225000D01*
G01*
G37*
G36*
G01*
X121025000Y-107750000D02*
X121025000Y-108250000D01*
G75*
G02*
X120800000Y-108475000I-225000J0D01*
G01*
X120350000Y-108475000D01*
G75*
G02*
X120125000Y-108250000I0J225000D01*
G01*
X120125000Y-107750000D01*
G75*
G02*
X120350000Y-107525000I225000J0D01*
G01*
X120800000Y-107525000D01*
G75*
G02*
X121025000Y-107750000I0J-225000D01*
G01*
G37*
G36*
G01*
X119475000Y-107750000D02*
X119475000Y-108250000D01*
G75*
G02*
X119250000Y-108475000I-225000J0D01*
G01*
X118800000Y-108475000D01*
G75*
G02*
X118575000Y-108250000I0J225000D01*
G01*
X118575000Y-107750000D01*
G75*
G02*
X118800000Y-107525000I225000J0D01*
G01*
X119250000Y-107525000D01*
G75*
G02*
X119475000Y-107750000I0J-225000D01*
G01*
G37*
G36*
G01*
X117750000Y-127075000D02*
X118250000Y-127075000D01*
G75*
G02*
X118475000Y-127300000I0J-225000D01*
G01*
X118475000Y-127750000D01*
G75*
G02*
X118250000Y-127975000I-225000J0D01*
G01*
X117750000Y-127975000D01*
G75*
G02*
X117525000Y-127750000I0J225000D01*
G01*
X117525000Y-127300000D01*
G75*
G02*
X117750000Y-127075000I225000J0D01*
G01*
G37*
G36*
G01*
X117750000Y-125525000D02*
X118250000Y-125525000D01*
G75*
G02*
X118475000Y-125750000I0J-225000D01*
G01*
X118475000Y-126200000D01*
G75*
G02*
X118250000Y-126425000I-225000J0D01*
G01*
X117750000Y-126425000D01*
G75*
G02*
X117525000Y-126200000I0J225000D01*
G01*
X117525000Y-125750000D01*
G75*
G02*
X117750000Y-125525000I225000J0D01*
G01*
G37*
G36*
G01*
X115750000Y-125525000D02*
X116250000Y-125525000D01*
G75*
G02*
X116475000Y-125750000I0J-225000D01*
G01*
X116475000Y-126200000D01*
G75*
G02*
X116250000Y-126425000I-225000J0D01*
G01*
X115750000Y-126425000D01*
G75*
G02*
X115525000Y-126200000I0J225000D01*
G01*
X115525000Y-125750000D01*
G75*
G02*
X115750000Y-125525000I225000J0D01*
G01*
G37*
G36*
G01*
X115750000Y-127075000D02*
X116250000Y-127075000D01*
G75*
G02*
X116475000Y-127300000I0J-225000D01*
G01*
X116475000Y-127750000D01*
G75*
G02*
X116250000Y-127975000I-225000J0D01*
G01*
X115750000Y-127975000D01*
G75*
G02*
X115525000Y-127750000I0J225000D01*
G01*
X115525000Y-127300000D01*
G75*
G02*
X115750000Y-127075000I225000J0D01*
G01*
G37*
G36*
G01*
X133925000Y-106750000D02*
X133925000Y-107250000D01*
G75*
G02*
X133700000Y-107475000I-225000J0D01*
G01*
X133250000Y-107475000D01*
G75*
G02*
X133025000Y-107250000I0J225000D01*
G01*
X133025000Y-106750000D01*
G75*
G02*
X133250000Y-106525000I225000J0D01*
G01*
X133700000Y-106525000D01*
G75*
G02*
X133925000Y-106750000I0J-225000D01*
G01*
G37*
G36*
G01*
X135475000Y-106750000D02*
X135475000Y-107250000D01*
G75*
G02*
X135250000Y-107475000I-225000J0D01*
G01*
X134800000Y-107475000D01*
G75*
G02*
X134575000Y-107250000I0J225000D01*
G01*
X134575000Y-106750000D01*
G75*
G02*
X134800000Y-106525000I225000J0D01*
G01*
X135250000Y-106525000D01*
G75*
G02*
X135475000Y-106750000I0J-225000D01*
G01*
G37*
G36*
G01*
X117860000Y-132125000D02*
X118360000Y-132125000D01*
G75*
G02*
X118585000Y-132350000I0J-225000D01*
G01*
X118585000Y-132800000D01*
G75*
G02*
X118360000Y-133025000I-225000J0D01*
G01*
X117860000Y-133025000D01*
G75*
G02*
X117635000Y-132800000I0J225000D01*
G01*
X117635000Y-132350000D01*
G75*
G02*
X117860000Y-132125000I225000J0D01*
G01*
G37*
G36*
G01*
X117860000Y-133675000D02*
X118360000Y-133675000D01*
G75*
G02*
X118585000Y-133900000I0J-225000D01*
G01*
X118585000Y-134350000D01*
G75*
G02*
X118360000Y-134575000I-225000J0D01*
G01*
X117860000Y-134575000D01*
G75*
G02*
X117635000Y-134350000I0J225000D01*
G01*
X117635000Y-133900000D01*
G75*
G02*
X117860000Y-133675000I225000J0D01*
G01*
G37*
G36*
G01*
X117811000Y-112950000D02*
X117811000Y-113450000D01*
G75*
G02*
X117586000Y-113675000I-225000J0D01*
G01*
X117136000Y-113675000D01*
G75*
G02*
X116911000Y-113450000I0J225000D01*
G01*
X116911000Y-112950000D01*
G75*
G02*
X117136000Y-112725000I225000J0D01*
G01*
X117586000Y-112725000D01*
G75*
G02*
X117811000Y-112950000I0J-225000D01*
G01*
G37*
G36*
G01*
X116261000Y-112950000D02*
X116261000Y-113450000D01*
G75*
G02*
X116036000Y-113675000I-225000J0D01*
G01*
X115586000Y-113675000D01*
G75*
G02*
X115361000Y-113450000I0J225000D01*
G01*
X115361000Y-112950000D01*
G75*
G02*
X115586000Y-112725000I225000J0D01*
G01*
X116036000Y-112725000D01*
G75*
G02*
X116261000Y-112950000I0J-225000D01*
G01*
G37*
G36*
G01*
X123893000Y-135894000D02*
X123893000Y-136394000D01*
G75*
G02*
X123668000Y-136619000I-225000J0D01*
G01*
X123218000Y-136619000D01*
G75*
G02*
X122993000Y-136394000I0J225000D01*
G01*
X122993000Y-135894000D01*
G75*
G02*
X123218000Y-135669000I225000J0D01*
G01*
X123668000Y-135669000D01*
G75*
G02*
X123893000Y-135894000I0J-225000D01*
G01*
G37*
G36*
G01*
X125443000Y-135894000D02*
X125443000Y-136394000D01*
G75*
G02*
X125218000Y-136619000I-225000J0D01*
G01*
X124768000Y-136619000D01*
G75*
G02*
X124543000Y-136394000I0J225000D01*
G01*
X124543000Y-135894000D01*
G75*
G02*
X124768000Y-135669000I225000J0D01*
G01*
X125218000Y-135669000D01*
G75*
G02*
X125443000Y-135894000I0J-225000D01*
G01*
G37*
G36*
G01*
X120187000Y-113450000D02*
X120187000Y-112950000D01*
G75*
G02*
X120412000Y-112725000I225000J0D01*
G01*
X120862000Y-112725000D01*
G75*
G02*
X121087000Y-112950000I0J-225000D01*
G01*
X121087000Y-113450000D01*
G75*
G02*
X120862000Y-113675000I-225000J0D01*
G01*
X120412000Y-113675000D01*
G75*
G02*
X120187000Y-113450000I0J225000D01*
G01*
G37*
G36*
G01*
X121737000Y-113450000D02*
X121737000Y-112950000D01*
G75*
G02*
X121962000Y-112725000I225000J0D01*
G01*
X122412000Y-112725000D01*
G75*
G02*
X122637000Y-112950000I0J-225000D01*
G01*
X122637000Y-113450000D01*
G75*
G02*
X122412000Y-113675000I-225000J0D01*
G01*
X121962000Y-113675000D01*
G75*
G02*
X121737000Y-113450000I0J225000D01*
G01*
G37*
G36*
G01*
X83150000Y-121975000D02*
X82650000Y-121975000D01*
G75*
G02*
X82425000Y-121750000I0J225000D01*
G01*
X82425000Y-121300000D01*
G75*
G02*
X82650000Y-121075000I225000J0D01*
G01*
X83150000Y-121075000D01*
G75*
G02*
X83375000Y-121300000I0J-225000D01*
G01*
X83375000Y-121750000D01*
G75*
G02*
X83150000Y-121975000I-225000J0D01*
G01*
G37*
G36*
G01*
X83150000Y-123525000D02*
X82650000Y-123525000D01*
G75*
G02*
X82425000Y-123300000I0J225000D01*
G01*
X82425000Y-122850000D01*
G75*
G02*
X82650000Y-122625000I225000J0D01*
G01*
X83150000Y-122625000D01*
G75*
G02*
X83375000Y-122850000I0J-225000D01*
G01*
X83375000Y-123300000D01*
G75*
G02*
X83150000Y-123525000I-225000J0D01*
G01*
G37*
G36*
G01*
X133625000Y-96016000D02*
X133625000Y-96516000D01*
G75*
G02*
X133400000Y-96741000I-225000J0D01*
G01*
X132950000Y-96741000D01*
G75*
G02*
X132725000Y-96516000I0J225000D01*
G01*
X132725000Y-96016000D01*
G75*
G02*
X132950000Y-95791000I225000J0D01*
G01*
X133400000Y-95791000D01*
G75*
G02*
X133625000Y-96016000I0J-225000D01*
G01*
G37*
G36*
G01*
X135175000Y-96016000D02*
X135175000Y-96516000D01*
G75*
G02*
X134950000Y-96741000I-225000J0D01*
G01*
X134500000Y-96741000D01*
G75*
G02*
X134275000Y-96516000I0J225000D01*
G01*
X134275000Y-96016000D01*
G75*
G02*
X134500000Y-95791000I225000J0D01*
G01*
X134950000Y-95791000D01*
G75*
G02*
X135175000Y-96016000I0J-225000D01*
G01*
G37*
G36*
G01*
X131975000Y-86450000D02*
X131975000Y-85950000D01*
G75*
G02*
X132200000Y-85725000I225000J0D01*
G01*
X132650000Y-85725000D01*
G75*
G02*
X132875000Y-85950000I0J-225000D01*
G01*
X132875000Y-86450000D01*
G75*
G02*
X132650000Y-86675000I-225000J0D01*
G01*
X132200000Y-86675000D01*
G75*
G02*
X131975000Y-86450000I0J225000D01*
G01*
G37*
G36*
G01*
X133525000Y-86450000D02*
X133525000Y-85950000D01*
G75*
G02*
X133750000Y-85725000I225000J0D01*
G01*
X134200000Y-85725000D01*
G75*
G02*
X134425000Y-85950000I0J-225000D01*
G01*
X134425000Y-86450000D01*
G75*
G02*
X134200000Y-86675000I-225000J0D01*
G01*
X133750000Y-86675000D01*
G75*
G02*
X133525000Y-86450000I0J225000D01*
G01*
G37*
G36*
G01*
X81419031Y-48885105D02*
X81127679Y-47413673D01*
G75*
G02*
X81717719Y-46532281I735716J145676D01*
G01*
X84170107Y-46046695D01*
G75*
G02*
X85051499Y-46636735I145676J-735716D01*
G01*
X85342851Y-48108167D01*
G75*
G02*
X84752811Y-48989559I-735716J-145676D01*
G01*
X82300423Y-49475145D01*
G75*
G02*
X81419031Y-48885105I-145676J735716D01*
G01*
G37*
G36*
G01*
X96924969Y-42246895D02*
X97216321Y-43718327D01*
G75*
G02*
X96626281Y-44599719I-735716J-145676D01*
G01*
X94173893Y-45085305D01*
G75*
G02*
X93292501Y-44495265I-145676J735716D01*
G01*
X93001149Y-43023833D01*
G75*
G02*
X93591189Y-42142441I735716J145676D01*
G01*
X96043577Y-41656855D01*
G75*
G02*
X96924969Y-42246895I145676J-735716D01*
G01*
G37*
G36*
G01*
X75048104Y-47809338D02*
X75882547Y-49055815D01*
G75*
G02*
X75676531Y-50096275I-623238J-417222D01*
G01*
X73599070Y-51487014D01*
G75*
G02*
X72558610Y-51280998I-417222J623238D01*
G01*
X71724167Y-50034521D01*
G75*
G02*
X71930183Y-48994061I623238J417222D01*
G01*
X74007644Y-47603322D01*
G75*
G02*
X75048104Y-47809338I417222J-623238D01*
G01*
G37*
G36*
G01*
X63283896Y-59896662D02*
X62449453Y-58650185D01*
G75*
G02*
X62655469Y-57609725I623238J417222D01*
G01*
X64732930Y-56218986D01*
G75*
G02*
X65773390Y-56425002I417222J-623238D01*
G01*
X66607833Y-57671479D01*
G75*
G02*
X66401817Y-58711939I-623238J-417222D01*
G01*
X64324356Y-60102678D01*
G75*
G02*
X63283896Y-59896662I-417222J623238D01*
G01*
G37*
G36*
G01*
X50717784Y-76995139D02*
X49471307Y-76160696D01*
G75*
G02*
X49265291Y-75120236I417222J623238D01*
G01*
X50656030Y-73042775D01*
G75*
G02*
X51696490Y-72836759I623238J-417222D01*
G01*
X52942967Y-73671202D01*
G75*
G02*
X53148983Y-74711662I-417222J-623238D01*
G01*
X51758244Y-76789123D01*
G75*
G02*
X50717784Y-76995139I-623238J417222D01*
G01*
G37*
G36*
G01*
X56988216Y-61336861D02*
X58234693Y-62171304D01*
G75*
G02*
X58440709Y-63211764I-417222J-623238D01*
G01*
X57049970Y-65289225D01*
G75*
G02*
X56009510Y-65495241I-623238J417222D01*
G01*
X54763033Y-64660798D01*
G75*
G02*
X54557017Y-63620338I417222J623238D01*
G01*
X55947756Y-61542877D01*
G75*
G02*
X56988216Y-61336861I623238J-417222D01*
G01*
G37*
G36*
G01*
X45451763Y-80739210D02*
X46923195Y-81030562D01*
G75*
G02*
X47513235Y-81911954I-145676J-735716D01*
G01*
X47027649Y-84364342D01*
G75*
G02*
X46146257Y-84954382I-735716J145676D01*
G01*
X44674825Y-84663030D01*
G75*
G02*
X44084785Y-83781638I145676J735716D01*
G01*
X44570371Y-81329250D01*
G75*
G02*
X45451763Y-80739210I735716J-145676D01*
G01*
G37*
G36*
G01*
X45680237Y-97604790D02*
X44208805Y-97313438D01*
G75*
G02*
X43618765Y-96432046I145676J735716D01*
G01*
X44104351Y-93979658D01*
G75*
G02*
X44985743Y-93389618I735716J-145676D01*
G01*
X46457175Y-93680970D01*
G75*
G02*
X47047215Y-94562362I-145676J-735716D01*
G01*
X46561629Y-97014750D01*
G75*
G02*
X45680237Y-97604790I-735716J145676D01*
G01*
G37*
G36*
G01*
X47316000Y-119078000D02*
X45816000Y-119078000D01*
G75*
G02*
X45066000Y-118328000I0J750000D01*
G01*
X45066000Y-115828000D01*
G75*
G02*
X45816000Y-115078000I750000J0D01*
G01*
X47316000Y-115078000D01*
G75*
G02*
X48066000Y-115828000I0J-750000D01*
G01*
X48066000Y-118328000D01*
G75*
G02*
X47316000Y-119078000I-750000J0D01*
G01*
G37*
G36*
G01*
X43816000Y-102578000D02*
X45316000Y-102578000D01*
G75*
G02*
X46066000Y-103328000I0J-750000D01*
G01*
X46066000Y-105828000D01*
G75*
G02*
X45316000Y-106578000I-750000J0D01*
G01*
X43816000Y-106578000D01*
G75*
G02*
X43066000Y-105828000I0J750000D01*
G01*
X43066000Y-103328000D01*
G75*
G02*
X43816000Y-102578000I750000J0D01*
G01*
G37*
G36*
G01*
X47809338Y-124951896D02*
X49055815Y-124117453D01*
G75*
G02*
X50096275Y-124323469I417222J-623238D01*
G01*
X51487014Y-126400930D01*
G75*
G02*
X51280998Y-127441390I-623238J-417222D01*
G01*
X50034521Y-128275833D01*
G75*
G02*
X48994061Y-128069817I-417222J623238D01*
G01*
X47603322Y-125992356D01*
G75*
G02*
X47809338Y-124951896I623238J417222D01*
G01*
G37*
G36*
G01*
X59896662Y-136716104D02*
X58650185Y-137550547D01*
G75*
G02*
X57609725Y-137344531I-417222J623238D01*
G01*
X56218986Y-135267070D01*
G75*
G02*
X56425002Y-134226610I623238J417222D01*
G01*
X57671479Y-133392167D01*
G75*
G02*
X58711939Y-133598183I417222J-623238D01*
G01*
X60102678Y-135675644D01*
G75*
G02*
X59896662Y-136716104I-623238J-417222D01*
G01*
G37*
G36*
G01*
X76995139Y-149282216D02*
X76160696Y-150528693D01*
G75*
G02*
X75120236Y-150734709I-623238J417222D01*
G01*
X73042775Y-149343970D01*
G75*
G02*
X72836759Y-148303510I417222J623238D01*
G01*
X73671202Y-147057033D01*
G75*
G02*
X74711662Y-146851017I623238J-417222D01*
G01*
X76789123Y-148241756D01*
G75*
G02*
X76995139Y-149282216I-417222J-623238D01*
G01*
G37*
G36*
G01*
X61336861Y-143011784D02*
X62171304Y-141765307D01*
G75*
G02*
X63211764Y-141559291I623238J-417222D01*
G01*
X65289225Y-142950030D01*
G75*
G02*
X65495241Y-143990490I-417222J-623238D01*
G01*
X64660798Y-145236967D01*
G75*
G02*
X63620338Y-145442983I-623238J417222D01*
G01*
X61542877Y-144052244D01*
G75*
G02*
X61336861Y-143011784I417222J623238D01*
G01*
G37*
G36*
G01*
X80739210Y-154548237D02*
X81030562Y-153076805D01*
G75*
G02*
X81911954Y-152486765I735716J-145676D01*
G01*
X84364342Y-152972351D01*
G75*
G02*
X84954382Y-153853743I-145676J-735716D01*
G01*
X84663030Y-155325175D01*
G75*
G02*
X83781638Y-155915215I-735716J145676D01*
G01*
X81329250Y-155429629D01*
G75*
G02*
X80739210Y-154548237I145676J735716D01*
G01*
G37*
G36*
G01*
X97604790Y-154319763D02*
X97313438Y-155791195D01*
G75*
G02*
X96432046Y-156381235I-735716J145676D01*
G01*
X93979658Y-155895649D01*
G75*
G02*
X93389618Y-155014257I145676J735716D01*
G01*
X93680970Y-153542825D01*
G75*
G02*
X94562362Y-152952785I735716J-145676D01*
G01*
X97014750Y-153438371D01*
G75*
G02*
X97604790Y-154319763I-145676J-735716D01*
G01*
G37*
G36*
G01*
X118580969Y-151114895D02*
X118872321Y-152586327D01*
G75*
G02*
X118282281Y-153467719I-735716J-145676D01*
G01*
X115829893Y-153953305D01*
G75*
G02*
X114948501Y-153363265I-145676J735716D01*
G01*
X114657149Y-151891833D01*
G75*
G02*
X115247189Y-151010441I735716J145676D01*
G01*
X117699577Y-150524855D01*
G75*
G02*
X118580969Y-151114895I145676J-735716D01*
G01*
G37*
G36*
G01*
X103075031Y-157753105D02*
X102783679Y-156281673D01*
G75*
G02*
X103373719Y-155400281I735716J145676D01*
G01*
X105826107Y-154914695D01*
G75*
G02*
X106707499Y-155504735I145676J-735716D01*
G01*
X106998851Y-156976167D01*
G75*
G02*
X106408811Y-157857559I-735716J-145676D01*
G01*
X103956423Y-158343145D01*
G75*
G02*
X103075031Y-157753105I-145676J735716D01*
G01*
G37*
G36*
G01*
X124951896Y-152190662D02*
X124117453Y-150944185D01*
G75*
G02*
X124323469Y-149903725I623238J417222D01*
G01*
X126400930Y-148512986D01*
G75*
G02*
X127441390Y-148719002I417222J-623238D01*
G01*
X128275833Y-149965479D01*
G75*
G02*
X128069817Y-151005939I-623238J-417222D01*
G01*
X125992356Y-152396678D01*
G75*
G02*
X124951896Y-152190662I-417222J623238D01*
G01*
G37*
G36*
G01*
X136716104Y-140103338D02*
X137550547Y-141349815D01*
G75*
G02*
X137344531Y-142390275I-623238J-417222D01*
G01*
X135267070Y-143781014D01*
G75*
G02*
X134226610Y-143574998I-417222J623238D01*
G01*
X133392167Y-142328521D01*
G75*
G02*
X133598183Y-141288061I623238J417222D01*
G01*
X135675644Y-139897322D01*
G75*
G02*
X136716104Y-140103338I417222J-623238D01*
G01*
G37*
G36*
G01*
X149282216Y-123004861D02*
X150528693Y-123839304D01*
G75*
G02*
X150734709Y-124879764I-417222J-623238D01*
G01*
X149343970Y-126957225D01*
G75*
G02*
X148303510Y-127163241I-623238J417222D01*
G01*
X147057033Y-126328798D01*
G75*
G02*
X146851017Y-125288338I417222J623238D01*
G01*
X148241756Y-123210877D01*
G75*
G02*
X149282216Y-123004861I623238J-417222D01*
G01*
G37*
G36*
G01*
X143011784Y-138663139D02*
X141765307Y-137828696D01*
G75*
G02*
X141559291Y-136788236I417222J623238D01*
G01*
X142950030Y-134710775D01*
G75*
G02*
X143990490Y-134504759I623238J-417222D01*
G01*
X145236967Y-135339202D01*
G75*
G02*
X145442983Y-136379662I-417222J-623238D01*
G01*
X144052244Y-138457123D01*
G75*
G02*
X143011784Y-138663139I-623238J417222D01*
G01*
G37*
G36*
G01*
X154548237Y-119260790D02*
X153076805Y-118969438D01*
G75*
G02*
X152486765Y-118088046I145676J735716D01*
G01*
X152972351Y-115635658D01*
G75*
G02*
X153853743Y-115045618I735716J-145676D01*
G01*
X155325175Y-115336970D01*
G75*
G02*
X155915215Y-116218362I-145676J-735716D01*
G01*
X155429629Y-118670750D01*
G75*
G02*
X154548237Y-119260790I-735716J145676D01*
G01*
G37*
G36*
G01*
X154319763Y-102395210D02*
X155791195Y-102686562D01*
G75*
G02*
X156381235Y-103567954I-145676J-735716D01*
G01*
X155895649Y-106020342D01*
G75*
G02*
X155014257Y-106610382I-735716J145676D01*
G01*
X153542825Y-106319030D01*
G75*
G02*
X152952785Y-105437638I145676J735716D01*
G01*
X153438371Y-102985250D01*
G75*
G02*
X154319763Y-102395210I735716J-145676D01*
G01*
G37*
G36*
G01*
X157753105Y-96924969D02*
X156281673Y-97216321D01*
G75*
G02*
X155400281Y-96626281I-145676J735716D01*
G01*
X154914695Y-94173893D01*
G75*
G02*
X155504735Y-93292501I735716J145676D01*
G01*
X156976167Y-93001149D01*
G75*
G02*
X157857559Y-93591189I145676J-735716D01*
G01*
X158343145Y-96043577D01*
G75*
G02*
X157753105Y-96924969I-735716J-145676D01*
G01*
G37*
G36*
G01*
X151114895Y-81419031D02*
X152586327Y-81127679D01*
G75*
G02*
X153467719Y-81717719I145676J-735716D01*
G01*
X153953305Y-84170107D01*
G75*
G02*
X153363265Y-85051499I-735716J-145676D01*
G01*
X151891833Y-85342851D01*
G75*
G02*
X151010441Y-84752811I-145676J735716D01*
G01*
X150524855Y-82300423D01*
G75*
G02*
X151114895Y-81419031I735716J145676D01*
G01*
G37*
G36*
G01*
X140103338Y-63283896D02*
X141349815Y-62449453D01*
G75*
G02*
X142390275Y-62655469I417222J-623238D01*
G01*
X143781014Y-64732930D01*
G75*
G02*
X143574998Y-65773390I-623238J-417222D01*
G01*
X142328521Y-66607833D01*
G75*
G02*
X141288061Y-66401817I-417222J623238D01*
G01*
X139897322Y-64324356D01*
G75*
G02*
X140103338Y-63283896I623238J417222D01*
G01*
G37*
G36*
G01*
X152190662Y-75048104D02*
X150944185Y-75882547D01*
G75*
G02*
X149903725Y-75676531I-417222J623238D01*
G01*
X148512986Y-73599070D01*
G75*
G02*
X148719002Y-72558610I623238J417222D01*
G01*
X149965479Y-71724167D01*
G75*
G02*
X151005939Y-71930183I417222J-623238D01*
G01*
X152396678Y-74007644D01*
G75*
G02*
X152190662Y-75048104I-623238J-417222D01*
G01*
G37*
G36*
G01*
X123004861Y-50717784D02*
X123839304Y-49471307D01*
G75*
G02*
X124879764Y-49265291I623238J-417222D01*
G01*
X126957225Y-50656030D01*
G75*
G02*
X127163241Y-51696490I-417222J-623238D01*
G01*
X126328798Y-52942967D01*
G75*
G02*
X125288338Y-53148983I-623238J417222D01*
G01*
X123210877Y-51758244D01*
G75*
G02*
X123004861Y-50717784I417222J623238D01*
G01*
G37*
G36*
G01*
X138663139Y-56988216D02*
X137828696Y-58234693D01*
G75*
G02*
X136788236Y-58440709I-623238J417222D01*
G01*
X134710775Y-57049970D01*
G75*
G02*
X134504759Y-56009510I417222J623238D01*
G01*
X135339202Y-54763033D01*
G75*
G02*
X136379662Y-54557017I623238J-417222D01*
G01*
X138457123Y-55947756D01*
G75*
G02*
X138663139Y-56988216I-417222J-623238D01*
G01*
G37*
G36*
G01*
X119260790Y-45451763D02*
X118969438Y-46923195D01*
G75*
G02*
X118088046Y-47513235I-735716J145676D01*
G01*
X115635658Y-47027649D01*
G75*
G02*
X115045618Y-46146257I145676J735716D01*
G01*
X115336970Y-44674825D01*
G75*
G02*
X116218362Y-44084785I735716J-145676D01*
G01*
X118670750Y-44570371D01*
G75*
G02*
X119260790Y-45451763I-145676J-735716D01*
G01*
G37*
G36*
G01*
X102395210Y-45680237D02*
X102686562Y-44208805D01*
G75*
G02*
X103567954Y-43618765I735716J-145676D01*
G01*
X106020342Y-44104351D01*
G75*
G02*
X106610382Y-44985743I-145676J-735716D01*
G01*
X106319030Y-46457175D01*
G75*
G02*
X105437638Y-47047215I-735716J145676D01*
G01*
X102985250Y-46561629D01*
G75*
G02*
X102395210Y-45680237I145676J735716D01*
G01*
G37*
D18*
X143000000Y-100000000D03*
X78500000Y-137239000D03*
X78500000Y-62761000D03*
D14*
X101270000Y-54500000D03*
D13*
X98730000Y-54500000D03*
D21*
X104800000Y-141500000D03*
D22*
X100000000Y-144300000D03*
D23*
X100000000Y-138500000D03*
D13*
X141450000Y-111550000D03*
D14*
X138910000Y-111550000D03*
X141450000Y-109010000D03*
X138910000Y-109010000D03*
X141450000Y-106470000D03*
X138910000Y-106470000D03*
D24*
X143695000Y-88715000D03*
X143695000Y-94195000D03*
D25*
X142945000Y-94415000D03*
X142945000Y-88465000D03*
D26*
X141645000Y-94315000D03*
X141625000Y-88565000D03*
D27*
X141745000Y-92765000D03*
X141745000Y-92115000D03*
X141745000Y-91465000D03*
X141745000Y-90815000D03*
X141745000Y-90165000D03*
D28*
X141625000Y-93885000D03*
X141625000Y-89045000D03*
D29*
X144625000Y-94195000D03*
X144625000Y-88735000D03*
D30*
X144895000Y-92425000D03*
X144895000Y-90505000D03*
D31*
X103200000Y-59600000D03*
X101200000Y-60550000D03*
X101200000Y-58650000D03*
X93500000Y-124272000D03*
X93500000Y-126172000D03*
X95500000Y-125222000D03*
G36*
G01*
X103375000Y-61925000D02*
X103375000Y-62475000D01*
G75*
G02*
X103175000Y-62675000I-200000J0D01*
G01*
X102775000Y-62675000D01*
G75*
G02*
X102575000Y-62475000I0J200000D01*
G01*
X102575000Y-61925000D01*
G75*
G02*
X102775000Y-61725000I200000J0D01*
G01*
X103175000Y-61725000D01*
G75*
G02*
X103375000Y-61925000I0J-200000D01*
G01*
G37*
G36*
G01*
X105025000Y-61925000D02*
X105025000Y-62475000D01*
G75*
G02*
X104825000Y-62675000I-200000J0D01*
G01*
X104425000Y-62675000D01*
G75*
G02*
X104225000Y-62475000I0J200000D01*
G01*
X104225000Y-61925000D01*
G75*
G02*
X104425000Y-61725000I200000J0D01*
G01*
X104825000Y-61725000D01*
G75*
G02*
X105025000Y-61925000I0J-200000D01*
G01*
G37*
G36*
G01*
X97425000Y-66775000D02*
X97425000Y-66225000D01*
G75*
G02*
X97625000Y-66025000I200000J0D01*
G01*
X98025000Y-66025000D01*
G75*
G02*
X98225000Y-66225000I0J-200000D01*
G01*
X98225000Y-66775000D01*
G75*
G02*
X98025000Y-66975000I-200000J0D01*
G01*
X97625000Y-66975000D01*
G75*
G02*
X97425000Y-66775000I0J200000D01*
G01*
G37*
G36*
G01*
X95775000Y-66775000D02*
X95775000Y-66225000D01*
G75*
G02*
X95975000Y-66025000I200000J0D01*
G01*
X96375000Y-66025000D01*
G75*
G02*
X96575000Y-66225000I0J-200000D01*
G01*
X96575000Y-66775000D01*
G75*
G02*
X96375000Y-66975000I-200000J0D01*
G01*
X95975000Y-66975000D01*
G75*
G02*
X95775000Y-66775000I0J200000D01*
G01*
G37*
G36*
G01*
X104225000Y-66225000D02*
X104225000Y-66775000D01*
G75*
G02*
X104025000Y-66975000I-200000J0D01*
G01*
X103625000Y-66975000D01*
G75*
G02*
X103425000Y-66775000I0J200000D01*
G01*
X103425000Y-66225000D01*
G75*
G02*
X103625000Y-66025000I200000J0D01*
G01*
X104025000Y-66025000D01*
G75*
G02*
X104225000Y-66225000I0J-200000D01*
G01*
G37*
G36*
G01*
X102575000Y-66225000D02*
X102575000Y-66775000D01*
G75*
G02*
X102375000Y-66975000I-200000J0D01*
G01*
X101975000Y-66975000D01*
G75*
G02*
X101775000Y-66775000I0J200000D01*
G01*
X101775000Y-66225000D01*
G75*
G02*
X101975000Y-66025000I200000J0D01*
G01*
X102375000Y-66025000D01*
G75*
G02*
X102575000Y-66225000I0J-200000D01*
G01*
G37*
G36*
G01*
X134375000Y-98573000D02*
X134375000Y-98023000D01*
G75*
G02*
X134575000Y-97823000I200000J0D01*
G01*
X134975000Y-97823000D01*
G75*
G02*
X135175000Y-98023000I0J-200000D01*
G01*
X135175000Y-98573000D01*
G75*
G02*
X134975000Y-98773000I-200000J0D01*
G01*
X134575000Y-98773000D01*
G75*
G02*
X134375000Y-98573000I0J200000D01*
G01*
G37*
G36*
G01*
X132725000Y-98573000D02*
X132725000Y-98023000D01*
G75*
G02*
X132925000Y-97823000I200000J0D01*
G01*
X133325000Y-97823000D01*
G75*
G02*
X133525000Y-98023000I0J-200000D01*
G01*
X133525000Y-98573000D01*
G75*
G02*
X133325000Y-98773000I-200000J0D01*
G01*
X132925000Y-98773000D01*
G75*
G02*
X132725000Y-98573000I0J200000D01*
G01*
G37*
G36*
G01*
X88075000Y-123425000D02*
X87525000Y-123425000D01*
G75*
G02*
X87325000Y-123225000I0J200000D01*
G01*
X87325000Y-122825000D01*
G75*
G02*
X87525000Y-122625000I200000J0D01*
G01*
X88075000Y-122625000D01*
G75*
G02*
X88275000Y-122825000I0J-200000D01*
G01*
X88275000Y-123225000D01*
G75*
G02*
X88075000Y-123425000I-200000J0D01*
G01*
G37*
G36*
G01*
X88075000Y-121775000D02*
X87525000Y-121775000D01*
G75*
G02*
X87325000Y-121575000I0J200000D01*
G01*
X87325000Y-121175000D01*
G75*
G02*
X87525000Y-120975000I200000J0D01*
G01*
X88075000Y-120975000D01*
G75*
G02*
X88275000Y-121175000I0J-200000D01*
G01*
X88275000Y-121575000D01*
G75*
G02*
X88075000Y-121775000I-200000J0D01*
G01*
G37*
G36*
G01*
X90075000Y-121775000D02*
X89525000Y-121775000D01*
G75*
G02*
X89325000Y-121575000I0J200000D01*
G01*
X89325000Y-121175000D01*
G75*
G02*
X89525000Y-120975000I200000J0D01*
G01*
X90075000Y-120975000D01*
G75*
G02*
X90275000Y-121175000I0J-200000D01*
G01*
X90275000Y-121575000D01*
G75*
G02*
X90075000Y-121775000I-200000J0D01*
G01*
G37*
G36*
G01*
X90075000Y-123425000D02*
X89525000Y-123425000D01*
G75*
G02*
X89325000Y-123225000I0J200000D01*
G01*
X89325000Y-122825000D01*
G75*
G02*
X89525000Y-122625000I200000J0D01*
G01*
X90075000Y-122625000D01*
G75*
G02*
X90275000Y-122825000I0J-200000D01*
G01*
X90275000Y-123225000D01*
G75*
G02*
X90075000Y-123425000I-200000J0D01*
G01*
G37*
G36*
G01*
X78579113Y-49395573D02*
X78789589Y-49903707D01*
G75*
G02*
X78681350Y-50165020I-184776J-76537D01*
G01*
X78311798Y-50318094D01*
G75*
G02*
X78050485Y-50209855I-76537J184776D01*
G01*
X77840009Y-49701721D01*
G75*
G02*
X77948248Y-49440408I184776J76537D01*
G01*
X78317800Y-49287334D01*
G75*
G02*
X78579113Y-49395573I76537J-184776D01*
G01*
G37*
G36*
G01*
X80103515Y-48764145D02*
X80313991Y-49272279D01*
G75*
G02*
X80205752Y-49533592I-184776J-76537D01*
G01*
X79836200Y-49686666D01*
G75*
G02*
X79574887Y-49578427I-76537J184776D01*
G01*
X79364411Y-49070293D01*
G75*
G02*
X79472650Y-48808980I184776J76537D01*
G01*
X79842202Y-48655906D01*
G75*
G02*
X80103515Y-48764145I76537J-184776D01*
G01*
G37*
G36*
G01*
X79471515Y-47239145D02*
X79681991Y-47747279D01*
G75*
G02*
X79573752Y-48008592I-184776J-76537D01*
G01*
X79204200Y-48161666D01*
G75*
G02*
X78942887Y-48053427I-76537J184776D01*
G01*
X78732411Y-47545293D01*
G75*
G02*
X78840650Y-47283980I184776J76537D01*
G01*
X79210202Y-47130906D01*
G75*
G02*
X79471515Y-47239145I76537J-184776D01*
G01*
G37*
G36*
G01*
X77947113Y-47870573D02*
X78157589Y-48378707D01*
G75*
G02*
X78049350Y-48640020I-184776J-76537D01*
G01*
X77679798Y-48793094D01*
G75*
G02*
X77418485Y-48684855I-76537J184776D01*
G01*
X77208009Y-48176721D01*
G75*
G02*
X77316248Y-47915408I184776J76537D01*
G01*
X77685800Y-47762334D01*
G75*
G02*
X77947113Y-47870573I76537J-184776D01*
G01*
G37*
G36*
G01*
X49701721Y-77840009D02*
X50209855Y-78050485D01*
G75*
G02*
X50318094Y-78311798I-76537J-184776D01*
G01*
X50165020Y-78681350D01*
G75*
G02*
X49903707Y-78789589I-184776J76537D01*
G01*
X49395573Y-78579113D01*
G75*
G02*
X49287334Y-78317800I76537J184776D01*
G01*
X49440408Y-77948248D01*
G75*
G02*
X49701721Y-77840009I184776J-76537D01*
G01*
G37*
G36*
G01*
X49070293Y-79364411D02*
X49578427Y-79574887D01*
G75*
G02*
X49686666Y-79836200I-76537J-184776D01*
G01*
X49533592Y-80205752D01*
G75*
G02*
X49272279Y-80313991I-184776J76537D01*
G01*
X48764145Y-80103515D01*
G75*
G02*
X48655906Y-79842202I76537J184776D01*
G01*
X48808980Y-79472650D01*
G75*
G02*
X49070293Y-79364411I184776J-76537D01*
G01*
G37*
G36*
G01*
X47545293Y-78732411D02*
X48053427Y-78942887D01*
G75*
G02*
X48161666Y-79204200I-76537J-184776D01*
G01*
X48008592Y-79573752D01*
G75*
G02*
X47747279Y-79681991I-184776J76537D01*
G01*
X47239145Y-79471515D01*
G75*
G02*
X47130906Y-79210202I76537J184776D01*
G01*
X47283980Y-78840650D01*
G75*
G02*
X47545293Y-78732411I184776J-76537D01*
G01*
G37*
G36*
G01*
X48176721Y-77208009D02*
X48684855Y-77418485D01*
G75*
G02*
X48793094Y-77679798I-76537J-184776D01*
G01*
X48640020Y-78049350D01*
G75*
G02*
X48378707Y-78157589I-184776J76537D01*
G01*
X47870573Y-77947113D01*
G75*
G02*
X47762334Y-77685800I76537J184776D01*
G01*
X47915408Y-77316248D01*
G75*
G02*
X48176721Y-77208009I184776J-76537D01*
G01*
G37*
G36*
G01*
X49395573Y-121420887D02*
X49903707Y-121210411D01*
G75*
G02*
X50165020Y-121318650I76537J-184776D01*
G01*
X50318094Y-121688202D01*
G75*
G02*
X50209855Y-121949515I-184776J-76537D01*
G01*
X49701721Y-122159991D01*
G75*
G02*
X49440408Y-122051752I-76537J184776D01*
G01*
X49287334Y-121682200D01*
G75*
G02*
X49395573Y-121420887I184776J76537D01*
G01*
G37*
G36*
G01*
X48764145Y-119896485D02*
X49272279Y-119686009D01*
G75*
G02*
X49533592Y-119794248I76537J-184776D01*
G01*
X49686666Y-120163800D01*
G75*
G02*
X49578427Y-120425113I-184776J-76537D01*
G01*
X49070293Y-120635589D01*
G75*
G02*
X48808980Y-120527350I-76537J184776D01*
G01*
X48655906Y-120157798D01*
G75*
G02*
X48764145Y-119896485I184776J76537D01*
G01*
G37*
G36*
G01*
X47239145Y-120528485D02*
X47747279Y-120318009D01*
G75*
G02*
X48008592Y-120426248I76537J-184776D01*
G01*
X48161666Y-120795800D01*
G75*
G02*
X48053427Y-121057113I-184776J-76537D01*
G01*
X47545293Y-121267589D01*
G75*
G02*
X47283980Y-121159350I-76537J184776D01*
G01*
X47130906Y-120789798D01*
G75*
G02*
X47239145Y-120528485I184776J76537D01*
G01*
G37*
G36*
G01*
X47870573Y-122052887D02*
X48378707Y-121842411D01*
G75*
G02*
X48640020Y-121950650I76537J-184776D01*
G01*
X48793094Y-122320202D01*
G75*
G02*
X48684855Y-122581515I-184776J-76537D01*
G01*
X48176721Y-122791991D01*
G75*
G02*
X47915408Y-122683752I-76537J184776D01*
G01*
X47762334Y-122314200D01*
G75*
G02*
X47870573Y-122052887I184776J76537D01*
G01*
G37*
G36*
G01*
X79364411Y-150929707D02*
X79574887Y-150421573D01*
G75*
G02*
X79836200Y-150313334I184776J-76537D01*
G01*
X80205752Y-150466408D01*
G75*
G02*
X80313991Y-150727721I-76537J-184776D01*
G01*
X80103515Y-151235855D01*
G75*
G02*
X79842202Y-151344094I-184776J76537D01*
G01*
X79472650Y-151191020D01*
G75*
G02*
X79364411Y-150929707I76537J184776D01*
G01*
G37*
G36*
G01*
X77840009Y-150298279D02*
X78050485Y-149790145D01*
G75*
G02*
X78311798Y-149681906I184776J-76537D01*
G01*
X78681350Y-149834980D01*
G75*
G02*
X78789589Y-150096293I-76537J-184776D01*
G01*
X78579113Y-150604427D01*
G75*
G02*
X78317800Y-150712666I-184776J76537D01*
G01*
X77948248Y-150559592D01*
G75*
G02*
X77840009Y-150298279I76537J184776D01*
G01*
G37*
G36*
G01*
X77208009Y-151823279D02*
X77418485Y-151315145D01*
G75*
G02*
X77679798Y-151206906I184776J-76537D01*
G01*
X78049350Y-151359980D01*
G75*
G02*
X78157589Y-151621293I-76537J-184776D01*
G01*
X77947113Y-152129427D01*
G75*
G02*
X77685800Y-152237666I-184776J76537D01*
G01*
X77316248Y-152084592D01*
G75*
G02*
X77208009Y-151823279I76537J184776D01*
G01*
G37*
G36*
G01*
X78732411Y-152454707D02*
X78942887Y-151946573D01*
G75*
G02*
X79204200Y-151838334I184776J-76537D01*
G01*
X79573752Y-151991408D01*
G75*
G02*
X79681991Y-152252721I-76537J-184776D01*
G01*
X79471515Y-152760855D01*
G75*
G02*
X79210202Y-152869094I-184776J76537D01*
G01*
X78840650Y-152716020D01*
G75*
G02*
X78732411Y-152454707I76537J184776D01*
G01*
G37*
G36*
G01*
X119896485Y-151235855D02*
X119686009Y-150727721D01*
G75*
G02*
X119794248Y-150466408I184776J76537D01*
G01*
X120163800Y-150313334D01*
G75*
G02*
X120425113Y-150421573I76537J-184776D01*
G01*
X120635589Y-150929707D01*
G75*
G02*
X120527350Y-151191020I-184776J-76537D01*
G01*
X120157798Y-151344094D01*
G75*
G02*
X119896485Y-151235855I-76537J184776D01*
G01*
G37*
G36*
G01*
X121420887Y-150604427D02*
X121210411Y-150096293D01*
G75*
G02*
X121318650Y-149834980I184776J76537D01*
G01*
X121688202Y-149681906D01*
G75*
G02*
X121949515Y-149790145I76537J-184776D01*
G01*
X122159991Y-150298279D01*
G75*
G02*
X122051752Y-150559592I-184776J-76537D01*
G01*
X121682200Y-150712666D01*
G75*
G02*
X121420887Y-150604427I-76537J184776D01*
G01*
G37*
G36*
G01*
X120528485Y-152760855D02*
X120318009Y-152252721D01*
G75*
G02*
X120426248Y-151991408I184776J76537D01*
G01*
X120795800Y-151838334D01*
G75*
G02*
X121057113Y-151946573I76537J-184776D01*
G01*
X121267589Y-152454707D01*
G75*
G02*
X121159350Y-152716020I-184776J-76537D01*
G01*
X120789798Y-152869094D01*
G75*
G02*
X120528485Y-152760855I-76537J184776D01*
G01*
G37*
G36*
G01*
X122052887Y-152129427D02*
X121842411Y-151621293D01*
G75*
G02*
X121950650Y-151359980I184776J76537D01*
G01*
X122320202Y-151206906D01*
G75*
G02*
X122581515Y-151315145I76537J-184776D01*
G01*
X122791991Y-151823279D01*
G75*
G02*
X122683752Y-152084592I-184776J-76537D01*
G01*
X122314200Y-152237666D01*
G75*
G02*
X122052887Y-152129427I-76537J184776D01*
G01*
G37*
G36*
G01*
X150929707Y-120635589D02*
X150421573Y-120425113D01*
G75*
G02*
X150313334Y-120163800I76537J184776D01*
G01*
X150466408Y-119794248D01*
G75*
G02*
X150727721Y-119686009I184776J-76537D01*
G01*
X151235855Y-119896485D01*
G75*
G02*
X151344094Y-120157798I-76537J-184776D01*
G01*
X151191020Y-120527350D01*
G75*
G02*
X150929707Y-120635589I-184776J76537D01*
G01*
G37*
G36*
G01*
X150298279Y-122159991D02*
X149790145Y-121949515D01*
G75*
G02*
X149681906Y-121688202I76537J184776D01*
G01*
X149834980Y-121318650D01*
G75*
G02*
X150096293Y-121210411I184776J-76537D01*
G01*
X150604427Y-121420887D01*
G75*
G02*
X150712666Y-121682200I-76537J-184776D01*
G01*
X150559592Y-122051752D01*
G75*
G02*
X150298279Y-122159991I-184776J76537D01*
G01*
G37*
G36*
G01*
X151823279Y-122791991D02*
X151315145Y-122581515D01*
G75*
G02*
X151206906Y-122320202I76537J184776D01*
G01*
X151359980Y-121950650D01*
G75*
G02*
X151621293Y-121842411I184776J-76537D01*
G01*
X152129427Y-122052887D01*
G75*
G02*
X152237666Y-122314200I-76537J-184776D01*
G01*
X152084592Y-122683752D01*
G75*
G02*
X151823279Y-122791991I-184776J76537D01*
G01*
G37*
G36*
G01*
X152454707Y-121267589D02*
X151946573Y-121057113D01*
G75*
G02*
X151838334Y-120795800I76537J184776D01*
G01*
X151991408Y-120426248D01*
G75*
G02*
X152252721Y-120318009I184776J-76537D01*
G01*
X152760855Y-120528485D01*
G75*
G02*
X152869094Y-120789798I-76537J-184776D01*
G01*
X152716020Y-121159350D01*
G75*
G02*
X152454707Y-121267589I-184776J76537D01*
G01*
G37*
G36*
G01*
X150604427Y-78579113D02*
X150096293Y-78789589D01*
G75*
G02*
X149834980Y-78681350I-76537J184776D01*
G01*
X149681906Y-78311798D01*
G75*
G02*
X149790145Y-78050485I184776J76537D01*
G01*
X150298279Y-77840009D01*
G75*
G02*
X150559592Y-77948248I76537J-184776D01*
G01*
X150712666Y-78317800D01*
G75*
G02*
X150604427Y-78579113I-184776J-76537D01*
G01*
G37*
G36*
G01*
X151235855Y-80103515D02*
X150727721Y-80313991D01*
G75*
G02*
X150466408Y-80205752I-76537J184776D01*
G01*
X150313334Y-79836200D01*
G75*
G02*
X150421573Y-79574887I184776J76537D01*
G01*
X150929707Y-79364411D01*
G75*
G02*
X151191020Y-79472650I76537J-184776D01*
G01*
X151344094Y-79842202D01*
G75*
G02*
X151235855Y-80103515I-184776J-76537D01*
G01*
G37*
G36*
G01*
X152129427Y-77947113D02*
X151621293Y-78157589D01*
G75*
G02*
X151359980Y-78049350I-76537J184776D01*
G01*
X151206906Y-77679798D01*
G75*
G02*
X151315145Y-77418485I184776J76537D01*
G01*
X151823279Y-77208009D01*
G75*
G02*
X152084592Y-77316248I76537J-184776D01*
G01*
X152237666Y-77685800D01*
G75*
G02*
X152129427Y-77947113I-184776J-76537D01*
G01*
G37*
G36*
G01*
X152760855Y-79471515D02*
X152252721Y-79681991D01*
G75*
G02*
X151991408Y-79573752I-76537J184776D01*
G01*
X151838334Y-79204200D01*
G75*
G02*
X151946573Y-78942887I184776J76537D01*
G01*
X152454707Y-78732411D01*
G75*
G02*
X152716020Y-78840650I76537J-184776D01*
G01*
X152869094Y-79210202D01*
G75*
G02*
X152760855Y-79471515I-184776J-76537D01*
G01*
G37*
G36*
G01*
X122159991Y-49701721D02*
X121949515Y-50209855D01*
G75*
G02*
X121688202Y-50318094I-184776J76537D01*
G01*
X121318650Y-50165020D01*
G75*
G02*
X121210411Y-49903707I76537J184776D01*
G01*
X121420887Y-49395573D01*
G75*
G02*
X121682200Y-49287334I184776J-76537D01*
G01*
X122051752Y-49440408D01*
G75*
G02*
X122159991Y-49701721I-76537J-184776D01*
G01*
G37*
G36*
G01*
X120635589Y-49070293D02*
X120425113Y-49578427D01*
G75*
G02*
X120163800Y-49686666I-184776J76537D01*
G01*
X119794248Y-49533592D01*
G75*
G02*
X119686009Y-49272279I76537J184776D01*
G01*
X119896485Y-48764145D01*
G75*
G02*
X120157798Y-48655906I184776J-76537D01*
G01*
X120527350Y-48808980D01*
G75*
G02*
X120635589Y-49070293I-76537J-184776D01*
G01*
G37*
G36*
G01*
X121267589Y-47545293D02*
X121057113Y-48053427D01*
G75*
G02*
X120795800Y-48161666I-184776J76537D01*
G01*
X120426248Y-48008592D01*
G75*
G02*
X120318009Y-47747279I76537J184776D01*
G01*
X120528485Y-47239145D01*
G75*
G02*
X120789798Y-47130906I184776J-76537D01*
G01*
X121159350Y-47283980D01*
G75*
G02*
X121267589Y-47545293I-76537J-184776D01*
G01*
G37*
G36*
G01*
X122791991Y-48176721D02*
X122581515Y-48684855D01*
G75*
G02*
X122320202Y-48793094I-184776J76537D01*
G01*
X121950650Y-48640020D01*
G75*
G02*
X121842411Y-48378707I76537J184776D01*
G01*
X122052887Y-47870573D01*
G75*
G02*
X122314200Y-47762334I184776J-76537D01*
G01*
X122683752Y-47915408D01*
G75*
G02*
X122791991Y-48176721I-76537J-184776D01*
G01*
G37*
D12*
X69000000Y-97750000D03*
X61000000Y-97750000D03*
X69000000Y-102250000D03*
X61000000Y-102250000D03*
X61000000Y-92250000D03*
X69000000Y-92250000D03*
X61000000Y-87750000D03*
X69000000Y-87750000D03*
D32*
X128150000Y-95300000D03*
X128150000Y-87300000D03*
X123650000Y-95300000D03*
X123650000Y-87300000D03*
D33*
X135072000Y-117302000D03*
D26*
X135072000Y-123602000D03*
X137372000Y-123602000D03*
X132772000Y-123602000D03*
D34*
X122750000Y-104200000D03*
X122750000Y-105000000D03*
X122750000Y-105800000D03*
X122750000Y-106600000D03*
X122750000Y-107400000D03*
X122750000Y-108200000D03*
X122750000Y-109000000D03*
X122750000Y-109800000D03*
D35*
X124200000Y-111250000D03*
X125000000Y-111250000D03*
X125800000Y-111250000D03*
X126600000Y-111250000D03*
X127400000Y-111250000D03*
X128200000Y-111250000D03*
X129000000Y-111250000D03*
X129800000Y-111250000D03*
D34*
X131250000Y-109800000D03*
X131250000Y-109000000D03*
X131250000Y-108200000D03*
X131250000Y-107400000D03*
X131250000Y-106600000D03*
X131250000Y-105800000D03*
X131250000Y-105000000D03*
X131250000Y-104200000D03*
D35*
X129800000Y-102750000D03*
X129000000Y-102750000D03*
X128200000Y-102750000D03*
X127400000Y-102750000D03*
X126600000Y-102750000D03*
X125800000Y-102750000D03*
X125000000Y-102750000D03*
X124200000Y-102750000D03*
G36*
G01*
X82995000Y-131450000D02*
X82695000Y-131450000D01*
G75*
G02*
X82545000Y-131300000I0J150000D01*
G01*
X82545000Y-129650000D01*
G75*
G02*
X82695000Y-129500000I150000J0D01*
G01*
X82995000Y-129500000D01*
G75*
G02*
X83145000Y-129650000I0J-150000D01*
G01*
X83145000Y-131300000D01*
G75*
G02*
X82995000Y-131450000I-150000J0D01*
G01*
G37*
G36*
G01*
X84265000Y-131450000D02*
X83965000Y-131450000D01*
G75*
G02*
X83815000Y-131300000I0J150000D01*
G01*
X83815000Y-129650000D01*
G75*
G02*
X83965000Y-129500000I150000J0D01*
G01*
X84265000Y-129500000D01*
G75*
G02*
X84415000Y-129650000I0J-150000D01*
G01*
X84415000Y-131300000D01*
G75*
G02*
X84265000Y-131450000I-150000J0D01*
G01*
G37*
G36*
G01*
X85535000Y-131450000D02*
X85235000Y-131450000D01*
G75*
G02*
X85085000Y-131300000I0J150000D01*
G01*
X85085000Y-129650000D01*
G75*
G02*
X85235000Y-129500000I150000J0D01*
G01*
X85535000Y-129500000D01*
G75*
G02*
X85685000Y-129650000I0J-150000D01*
G01*
X85685000Y-131300000D01*
G75*
G02*
X85535000Y-131450000I-150000J0D01*
G01*
G37*
G36*
G01*
X86805000Y-131450000D02*
X86505000Y-131450000D01*
G75*
G02*
X86355000Y-131300000I0J150000D01*
G01*
X86355000Y-129650000D01*
G75*
G02*
X86505000Y-129500000I150000J0D01*
G01*
X86805000Y-129500000D01*
G75*
G02*
X86955000Y-129650000I0J-150000D01*
G01*
X86955000Y-131300000D01*
G75*
G02*
X86805000Y-131450000I-150000J0D01*
G01*
G37*
G36*
G01*
X86805000Y-126500000D02*
X86505000Y-126500000D01*
G75*
G02*
X86355000Y-126350000I0J150000D01*
G01*
X86355000Y-124700000D01*
G75*
G02*
X86505000Y-124550000I150000J0D01*
G01*
X86805000Y-124550000D01*
G75*
G02*
X86955000Y-124700000I0J-150000D01*
G01*
X86955000Y-126350000D01*
G75*
G02*
X86805000Y-126500000I-150000J0D01*
G01*
G37*
G36*
G01*
X85535000Y-126500000D02*
X85235000Y-126500000D01*
G75*
G02*
X85085000Y-126350000I0J150000D01*
G01*
X85085000Y-124700000D01*
G75*
G02*
X85235000Y-124550000I150000J0D01*
G01*
X85535000Y-124550000D01*
G75*
G02*
X85685000Y-124700000I0J-150000D01*
G01*
X85685000Y-126350000D01*
G75*
G02*
X85535000Y-126500000I-150000J0D01*
G01*
G37*
G36*
G01*
X84265000Y-126500000D02*
X83965000Y-126500000D01*
G75*
G02*
X83815000Y-126350000I0J150000D01*
G01*
X83815000Y-124700000D01*
G75*
G02*
X83965000Y-124550000I150000J0D01*
G01*
X84265000Y-124550000D01*
G75*
G02*
X84415000Y-124700000I0J-150000D01*
G01*
X84415000Y-126350000D01*
G75*
G02*
X84265000Y-126500000I-150000J0D01*
G01*
G37*
G36*
G01*
X82995000Y-126500000D02*
X82695000Y-126500000D01*
G75*
G02*
X82545000Y-126350000I0J150000D01*
G01*
X82545000Y-124700000D01*
G75*
G02*
X82695000Y-124550000I150000J0D01*
G01*
X82995000Y-124550000D01*
G75*
G02*
X83145000Y-124700000I0J-150000D01*
G01*
X83145000Y-126350000D01*
G75*
G02*
X82995000Y-126500000I-150000J0D01*
G01*
G37*
D36*
X101100000Y-106000000D03*
D15*
X101100000Y-108540000D03*
X98900000Y-108540000D03*
X98900000Y-106000000D03*
G36*
G01*
X130579000Y-94890000D02*
X130279000Y-94890000D01*
G75*
G02*
X130129000Y-94740000I0J150000D01*
G01*
X130129000Y-93090000D01*
G75*
G02*
X130279000Y-92940000I150000J0D01*
G01*
X130579000Y-92940000D01*
G75*
G02*
X130729000Y-93090000I0J-150000D01*
G01*
X130729000Y-94740000D01*
G75*
G02*
X130579000Y-94890000I-150000J0D01*
G01*
G37*
G36*
G01*
X131849000Y-94890000D02*
X131549000Y-94890000D01*
G75*
G02*
X131399000Y-94740000I0J150000D01*
G01*
X131399000Y-93090000D01*
G75*
G02*
X131549000Y-92940000I150000J0D01*
G01*
X131849000Y-92940000D01*
G75*
G02*
X131999000Y-93090000I0J-150000D01*
G01*
X131999000Y-94740000D01*
G75*
G02*
X131849000Y-94890000I-150000J0D01*
G01*
G37*
G36*
G01*
X133119000Y-94890000D02*
X132819000Y-94890000D01*
G75*
G02*
X132669000Y-94740000I0J150000D01*
G01*
X132669000Y-93090000D01*
G75*
G02*
X132819000Y-92940000I150000J0D01*
G01*
X133119000Y-92940000D01*
G75*
G02*
X133269000Y-93090000I0J-150000D01*
G01*
X133269000Y-94740000D01*
G75*
G02*
X133119000Y-94890000I-150000J0D01*
G01*
G37*
G36*
G01*
X134389000Y-94890000D02*
X134089000Y-94890000D01*
G75*
G02*
X133939000Y-94740000I0J150000D01*
G01*
X133939000Y-93090000D01*
G75*
G02*
X134089000Y-92940000I150000J0D01*
G01*
X134389000Y-92940000D01*
G75*
G02*
X134539000Y-93090000I0J-150000D01*
G01*
X134539000Y-94740000D01*
G75*
G02*
X134389000Y-94890000I-150000J0D01*
G01*
G37*
G36*
G01*
X135659000Y-94890000D02*
X135359000Y-94890000D01*
G75*
G02*
X135209000Y-94740000I0J150000D01*
G01*
X135209000Y-93090000D01*
G75*
G02*
X135359000Y-92940000I150000J0D01*
G01*
X135659000Y-92940000D01*
G75*
G02*
X135809000Y-93090000I0J-150000D01*
G01*
X135809000Y-94740000D01*
G75*
G02*
X135659000Y-94890000I-150000J0D01*
G01*
G37*
G36*
G01*
X136929000Y-94890000D02*
X136629000Y-94890000D01*
G75*
G02*
X136479000Y-94740000I0J150000D01*
G01*
X136479000Y-93090000D01*
G75*
G02*
X136629000Y-92940000I150000J0D01*
G01*
X136929000Y-92940000D01*
G75*
G02*
X137079000Y-93090000I0J-150000D01*
G01*
X137079000Y-94740000D01*
G75*
G02*
X136929000Y-94890000I-150000J0D01*
G01*
G37*
G36*
G01*
X138199000Y-94890000D02*
X137899000Y-94890000D01*
G75*
G02*
X137749000Y-94740000I0J150000D01*
G01*
X137749000Y-93090000D01*
G75*
G02*
X137899000Y-92940000I150000J0D01*
G01*
X138199000Y-92940000D01*
G75*
G02*
X138349000Y-93090000I0J-150000D01*
G01*
X138349000Y-94740000D01*
G75*
G02*
X138199000Y-94890000I-150000J0D01*
G01*
G37*
G36*
G01*
X139469000Y-94890000D02*
X139169000Y-94890000D01*
G75*
G02*
X139019000Y-94740000I0J150000D01*
G01*
X139019000Y-93090000D01*
G75*
G02*
X139169000Y-92940000I150000J0D01*
G01*
X139469000Y-92940000D01*
G75*
G02*
X139619000Y-93090000I0J-150000D01*
G01*
X139619000Y-94740000D01*
G75*
G02*
X139469000Y-94890000I-150000J0D01*
G01*
G37*
G36*
G01*
X139469000Y-89940000D02*
X139169000Y-89940000D01*
G75*
G02*
X139019000Y-89790000I0J150000D01*
G01*
X139019000Y-88140000D01*
G75*
G02*
X139169000Y-87990000I150000J0D01*
G01*
X139469000Y-87990000D01*
G75*
G02*
X139619000Y-88140000I0J-150000D01*
G01*
X139619000Y-89790000D01*
G75*
G02*
X139469000Y-89940000I-150000J0D01*
G01*
G37*
G36*
G01*
X138199000Y-89940000D02*
X137899000Y-89940000D01*
G75*
G02*
X137749000Y-89790000I0J150000D01*
G01*
X137749000Y-88140000D01*
G75*
G02*
X137899000Y-87990000I150000J0D01*
G01*
X138199000Y-87990000D01*
G75*
G02*
X138349000Y-88140000I0J-150000D01*
G01*
X138349000Y-89790000D01*
G75*
G02*
X138199000Y-89940000I-150000J0D01*
G01*
G37*
G36*
G01*
X136929000Y-89940000D02*
X136629000Y-89940000D01*
G75*
G02*
X136479000Y-89790000I0J150000D01*
G01*
X136479000Y-88140000D01*
G75*
G02*
X136629000Y-87990000I150000J0D01*
G01*
X136929000Y-87990000D01*
G75*
G02*
X137079000Y-88140000I0J-150000D01*
G01*
X137079000Y-89790000D01*
G75*
G02*
X136929000Y-89940000I-150000J0D01*
G01*
G37*
G36*
G01*
X135659000Y-89940000D02*
X135359000Y-89940000D01*
G75*
G02*
X135209000Y-89790000I0J150000D01*
G01*
X135209000Y-88140000D01*
G75*
G02*
X135359000Y-87990000I150000J0D01*
G01*
X135659000Y-87990000D01*
G75*
G02*
X135809000Y-88140000I0J-150000D01*
G01*
X135809000Y-89790000D01*
G75*
G02*
X135659000Y-89940000I-150000J0D01*
G01*
G37*
G36*
G01*
X134389000Y-89940000D02*
X134089000Y-89940000D01*
G75*
G02*
X133939000Y-89790000I0J150000D01*
G01*
X133939000Y-88140000D01*
G75*
G02*
X134089000Y-87990000I150000J0D01*
G01*
X134389000Y-87990000D01*
G75*
G02*
X134539000Y-88140000I0J-150000D01*
G01*
X134539000Y-89790000D01*
G75*
G02*
X134389000Y-89940000I-150000J0D01*
G01*
G37*
G36*
G01*
X133119000Y-89940000D02*
X132819000Y-89940000D01*
G75*
G02*
X132669000Y-89790000I0J150000D01*
G01*
X132669000Y-88140000D01*
G75*
G02*
X132819000Y-87990000I150000J0D01*
G01*
X133119000Y-87990000D01*
G75*
G02*
X133269000Y-88140000I0J-150000D01*
G01*
X133269000Y-89790000D01*
G75*
G02*
X133119000Y-89940000I-150000J0D01*
G01*
G37*
G36*
G01*
X131849000Y-89940000D02*
X131549000Y-89940000D01*
G75*
G02*
X131399000Y-89790000I0J150000D01*
G01*
X131399000Y-88140000D01*
G75*
G02*
X131549000Y-87990000I150000J0D01*
G01*
X131849000Y-87990000D01*
G75*
G02*
X131999000Y-88140000I0J-150000D01*
G01*
X131999000Y-89790000D01*
G75*
G02*
X131849000Y-89940000I-150000J0D01*
G01*
G37*
G36*
G01*
X130579000Y-89940000D02*
X130279000Y-89940000D01*
G75*
G02*
X130129000Y-89790000I0J150000D01*
G01*
X130129000Y-88140000D01*
G75*
G02*
X130279000Y-87990000I150000J0D01*
G01*
X130579000Y-87990000D01*
G75*
G02*
X130729000Y-88140000I0J-150000D01*
G01*
X130729000Y-89790000D01*
G75*
G02*
X130579000Y-89940000I-150000J0D01*
G01*
G37*
D37*
X116800000Y-116350000D03*
X122300000Y-116350000D03*
D38*
X83500000Y-133500000D03*
X85400000Y-133500000D03*
D39*
X102525000Y-48500000D03*
X97475000Y-48500000D03*
D18*
X91000000Y-97500000D03*
X109000000Y-97500000D03*
X91000000Y-130500000D03*
D14*
X104500000Y-108500000D03*
D13*
X104500000Y-105960000D03*
X95500000Y-105960000D03*
D14*
X95500000Y-108500000D03*
X104500000Y-72136000D03*
D13*
X104500000Y-69596000D03*
X95500000Y-72136000D03*
D14*
X95500000Y-69596000D03*
D40*
X108500000Y-143000000D03*
X108500000Y-139000000D03*
G36*
G01*
X93250000Y-54100000D02*
X94350000Y-54100000D01*
G75*
G02*
X94600000Y-54350000I0J-250000D01*
G01*
X94600000Y-56850000D01*
G75*
G02*
X94350000Y-57100000I-250000J0D01*
G01*
X93250000Y-57100000D01*
G75*
G02*
X93000000Y-56850000I0J250000D01*
G01*
X93000000Y-54350000D01*
G75*
G02*
X93250000Y-54100000I250000J0D01*
G01*
G37*
G36*
G01*
X93250000Y-58500000D02*
X94350000Y-58500000D01*
G75*
G02*
X94600000Y-58750000I0J-250000D01*
G01*
X94600000Y-61250000D01*
G75*
G02*
X94350000Y-61500000I-250000J0D01*
G01*
X93250000Y-61500000D01*
G75*
G02*
X93000000Y-61250000I0J250000D01*
G01*
X93000000Y-58750000D01*
G75*
G02*
X93250000Y-58500000I250000J0D01*
G01*
G37*
G36*
G01*
X97950000Y-56875000D02*
X98450000Y-56875000D01*
G75*
G02*
X98675000Y-57100000I0J-225000D01*
G01*
X98675000Y-57550000D01*
G75*
G02*
X98450000Y-57775000I-225000J0D01*
G01*
X97950000Y-57775000D01*
G75*
G02*
X97725000Y-57550000I0J225000D01*
G01*
X97725000Y-57100000D01*
G75*
G02*
X97950000Y-56875000I225000J0D01*
G01*
G37*
G36*
G01*
X97950000Y-58425000D02*
X98450000Y-58425000D01*
G75*
G02*
X98675000Y-58650000I0J-225000D01*
G01*
X98675000Y-59100000D01*
G75*
G02*
X98450000Y-59325000I-225000J0D01*
G01*
X97950000Y-59325000D01*
G75*
G02*
X97725000Y-59100000I0J225000D01*
G01*
X97725000Y-58650000D01*
G75*
G02*
X97950000Y-58425000I225000J0D01*
G01*
G37*
M02*
