%TF.GenerationSoftware,KiCad,Pcbnew,5.1.10-88a1d61d58~88~ubuntu18.04.1*%
%TF.CreationDate,2021-07-16T18:03:04+01:00*%
%TF.ProjectId,NerdClock,4e657264-436c-46f6-936b-2e6b69636164,rev?*%
%TF.SameCoordinates,Original*%
%TF.FileFunction,Legend,Bot*%
%TF.FilePolarity,Positive*%
%FSLAX46Y46*%
G04 Gerber Fmt 4.6, Leading zero omitted, Abs format (unit mm)*
G04 Created by KiCad (PCBNEW 5.1.10-88a1d61d58~88~ubuntu18.04.1) date 2021-07-16 18:03:04*
%MOMM*%
%LPD*%
G01*
G04 APERTURE LIST*
%ADD10C,0.120000*%
%ADD11C,0.150000*%
%ADD12C,0.100000*%
%ADD13C,3.500000*%
%ADD14R,1.700000X1.700000*%
%ADD15O,1.700000X1.700000*%
%ADD16C,1.524000*%
%ADD17C,3.200000*%
%ADD18C,6.400000*%
%ADD19C,0.800000*%
%ADD20O,1.800000X4.000000*%
%ADD21O,4.000000X1.800000*%
%ADD22R,4.400000X1.800000*%
%ADD23O,1.500000X1.100000*%
%ADD24O,1.700000X1.350000*%
%ADD25R,1.524000X1.524000*%
%ADD26C,1.000000*%
G04 APERTURE END LIST*
D10*
X126000000Y-100000000D02*
G75*
G03*
X126000000Y-100000000I-26000000J0D01*
G01*
X94860000Y-94670000D02*
X94860000Y-96000000D01*
X96190000Y-94670000D02*
X94860000Y-94670000D01*
X97460000Y-94670000D02*
X97460000Y-97330000D01*
X97460000Y-97330000D02*
X105140000Y-97330000D01*
X97460000Y-94670000D02*
X105140000Y-94670000D01*
X105140000Y-94670000D02*
X105140000Y-97330000D01*
X102200000Y-110320000D02*
X102200000Y-104220000D01*
X97800000Y-110320000D02*
X102200000Y-110320000D01*
X97800000Y-104220000D02*
X97800000Y-110320000D01*
X102200000Y-104220000D02*
X97800000Y-104220000D01*
X105830000Y-109830000D02*
X103170000Y-109830000D01*
X105830000Y-107230000D02*
X105830000Y-109830000D01*
X103170000Y-107230000D02*
X103170000Y-109830000D01*
X105830000Y-107230000D02*
X103170000Y-107230000D01*
X105830000Y-105960000D02*
X105830000Y-104630000D01*
X105830000Y-104630000D02*
X104500000Y-104630000D01*
X96830000Y-104630000D02*
X95500000Y-104630000D01*
X96830000Y-105960000D02*
X96830000Y-104630000D01*
X96830000Y-107230000D02*
X94170000Y-107230000D01*
X94170000Y-107230000D02*
X94170000Y-109830000D01*
X96830000Y-107230000D02*
X96830000Y-109830000D01*
X96830000Y-109830000D02*
X94170000Y-109830000D01*
X95000000Y-60000000D02*
G75*
G03*
X95000000Y-60000000I-4000000J0D01*
G01*
X113000000Y-60000000D02*
G75*
G03*
X113000000Y-60000000I-4000000J0D01*
G01*
X99277500Y-58137258D02*
X99277500Y-57662742D01*
X100322500Y-58137258D02*
X100322500Y-57662742D01*
X98722500Y-58137258D02*
X98722500Y-57662742D01*
X97677500Y-58137258D02*
X97677500Y-57662742D01*
D11*
X100809523Y-97852380D02*
X100809523Y-98566666D01*
X100857142Y-98709523D01*
X100952380Y-98804761D01*
X101095238Y-98852380D01*
X101190476Y-98852380D01*
X99809523Y-98852380D02*
X100380952Y-98852380D01*
X100095238Y-98852380D02*
X100095238Y-97852380D01*
X100190476Y-97995238D01*
X100285714Y-98090476D01*
X100380952Y-98138095D01*
X99190476Y-97852380D02*
X99095238Y-97852380D01*
X99000000Y-97900000D01*
X98952380Y-97947619D01*
X98904761Y-98042857D01*
X98857142Y-98233333D01*
X98857142Y-98471428D01*
X98904761Y-98661904D01*
X98952380Y-98757142D01*
X99000000Y-98804761D01*
X99095238Y-98852380D01*
X99190476Y-98852380D01*
X99285714Y-98804761D01*
X99333333Y-98757142D01*
X99380952Y-98661904D01*
X99428571Y-98471428D01*
X99428571Y-98233333D01*
X99380952Y-98042857D01*
X99333333Y-97947619D01*
X99285714Y-97900000D01*
X99190476Y-97852380D01*
X100761904Y-110652380D02*
X100761904Y-111461904D01*
X100714285Y-111557142D01*
X100666666Y-111604761D01*
X100571428Y-111652380D01*
X100380952Y-111652380D01*
X100285714Y-111604761D01*
X100238095Y-111557142D01*
X100190476Y-111461904D01*
X100190476Y-110652380D01*
X99238095Y-110652380D02*
X99714285Y-110652380D01*
X99761904Y-111128571D01*
X99714285Y-111080952D01*
X99619047Y-111033333D01*
X99380952Y-111033333D01*
X99285714Y-111080952D01*
X99238095Y-111128571D01*
X99190476Y-111223809D01*
X99190476Y-111461904D01*
X99238095Y-111557142D01*
X99285714Y-111604761D01*
X99380952Y-111652380D01*
X99619047Y-111652380D01*
X99714285Y-111604761D01*
X99761904Y-111557142D01*
X104833333Y-110582380D02*
X104833333Y-111296666D01*
X104880952Y-111439523D01*
X104976190Y-111534761D01*
X105119047Y-111582380D01*
X105214285Y-111582380D01*
X103880952Y-110582380D02*
X104357142Y-110582380D01*
X104404761Y-111058571D01*
X104357142Y-111010952D01*
X104261904Y-110963333D01*
X104023809Y-110963333D01*
X103928571Y-111010952D01*
X103880952Y-111058571D01*
X103833333Y-111153809D01*
X103833333Y-111391904D01*
X103880952Y-111487142D01*
X103928571Y-111534761D01*
X104023809Y-111582380D01*
X104261904Y-111582380D01*
X104357142Y-111534761D01*
X104404761Y-111487142D01*
X95833333Y-110582380D02*
X95833333Y-111296666D01*
X95880952Y-111439523D01*
X95976190Y-111534761D01*
X96119047Y-111582380D01*
X96214285Y-111582380D01*
X94928571Y-110582380D02*
X95119047Y-110582380D01*
X95214285Y-110630000D01*
X95261904Y-110677619D01*
X95357142Y-110820476D01*
X95404761Y-111010952D01*
X95404761Y-111391904D01*
X95357142Y-111487142D01*
X95309523Y-111534761D01*
X95214285Y-111582380D01*
X95023809Y-111582380D01*
X94928571Y-111534761D01*
X94880952Y-111487142D01*
X94833333Y-111391904D01*
X94833333Y-111153809D01*
X94880952Y-111058571D01*
X94928571Y-111010952D01*
X95023809Y-110963333D01*
X95214285Y-110963333D01*
X95309523Y-111010952D01*
X95357142Y-111058571D01*
X95404761Y-111153809D01*
X92214285Y-55652380D02*
X92214285Y-54652380D01*
X91976190Y-54652380D01*
X91833333Y-54700000D01*
X91738095Y-54795238D01*
X91690476Y-54890476D01*
X91642857Y-55080952D01*
X91642857Y-55223809D01*
X91690476Y-55414285D01*
X91738095Y-55509523D01*
X91833333Y-55604761D01*
X91976190Y-55652380D01*
X92214285Y-55652380D01*
X90690476Y-55652380D02*
X91261904Y-55652380D01*
X90976190Y-55652380D02*
X90976190Y-54652380D01*
X91071428Y-54795238D01*
X91166666Y-54890476D01*
X91261904Y-54938095D01*
X90119047Y-55080952D02*
X90214285Y-55033333D01*
X90261904Y-54985714D01*
X90309523Y-54890476D01*
X90309523Y-54842857D01*
X90261904Y-54747619D01*
X90214285Y-54700000D01*
X90119047Y-54652380D01*
X89928571Y-54652380D01*
X89833333Y-54700000D01*
X89785714Y-54747619D01*
X89738095Y-54842857D01*
X89738095Y-54890476D01*
X89785714Y-54985714D01*
X89833333Y-55033333D01*
X89928571Y-55080952D01*
X90119047Y-55080952D01*
X90214285Y-55128571D01*
X90261904Y-55176190D01*
X90309523Y-55271428D01*
X90309523Y-55461904D01*
X90261904Y-55557142D01*
X90214285Y-55604761D01*
X90119047Y-55652380D01*
X89928571Y-55652380D01*
X89833333Y-55604761D01*
X89785714Y-55557142D01*
X89738095Y-55461904D01*
X89738095Y-55271428D01*
X89785714Y-55176190D01*
X89833333Y-55128571D01*
X89928571Y-55080952D01*
X110214285Y-55652380D02*
X110214285Y-54652380D01*
X109976190Y-54652380D01*
X109833333Y-54700000D01*
X109738095Y-54795238D01*
X109690476Y-54890476D01*
X109642857Y-55080952D01*
X109642857Y-55223809D01*
X109690476Y-55414285D01*
X109738095Y-55509523D01*
X109833333Y-55604761D01*
X109976190Y-55652380D01*
X110214285Y-55652380D01*
X108690476Y-55652380D02*
X109261904Y-55652380D01*
X108976190Y-55652380D02*
X108976190Y-54652380D01*
X109071428Y-54795238D01*
X109166666Y-54890476D01*
X109261904Y-54938095D01*
X108214285Y-55652380D02*
X108023809Y-55652380D01*
X107928571Y-55604761D01*
X107880952Y-55557142D01*
X107785714Y-55414285D01*
X107738095Y-55223809D01*
X107738095Y-54842857D01*
X107785714Y-54747619D01*
X107833333Y-54700000D01*
X107928571Y-54652380D01*
X108119047Y-54652380D01*
X108214285Y-54700000D01*
X108261904Y-54747619D01*
X108309523Y-54842857D01*
X108309523Y-55080952D01*
X108261904Y-55176190D01*
X108214285Y-55223809D01*
X108119047Y-55271428D01*
X107928571Y-55271428D01*
X107833333Y-55223809D01*
X107785714Y-55176190D01*
X107738095Y-55080952D01*
X102642857Y-57052380D02*
X102976190Y-56576190D01*
X103214285Y-57052380D02*
X103214285Y-56052380D01*
X102833333Y-56052380D01*
X102738095Y-56100000D01*
X102690476Y-56147619D01*
X102642857Y-56242857D01*
X102642857Y-56385714D01*
X102690476Y-56480952D01*
X102738095Y-56528571D01*
X102833333Y-56576190D01*
X103214285Y-56576190D01*
X102261904Y-56147619D02*
X102214285Y-56100000D01*
X102119047Y-56052380D01*
X101880952Y-56052380D01*
X101785714Y-56100000D01*
X101738095Y-56147619D01*
X101690476Y-56242857D01*
X101690476Y-56338095D01*
X101738095Y-56480952D01*
X102309523Y-57052380D01*
X101690476Y-57052380D01*
X101357142Y-56052380D02*
X100738095Y-56052380D01*
X101071428Y-56433333D01*
X100928571Y-56433333D01*
X100833333Y-56480952D01*
X100785714Y-56528571D01*
X100738095Y-56623809D01*
X100738095Y-56861904D01*
X100785714Y-56957142D01*
X100833333Y-57004761D01*
X100928571Y-57052380D01*
X101214285Y-57052380D01*
X101309523Y-57004761D01*
X101357142Y-56957142D01*
X97252380Y-57157142D02*
X96776190Y-56823809D01*
X97252380Y-56585714D02*
X96252380Y-56585714D01*
X96252380Y-56966666D01*
X96300000Y-57061904D01*
X96347619Y-57109523D01*
X96442857Y-57157142D01*
X96585714Y-57157142D01*
X96680952Y-57109523D01*
X96728571Y-57061904D01*
X96776190Y-56966666D01*
X96776190Y-56585714D01*
X96347619Y-57538095D02*
X96300000Y-57585714D01*
X96252380Y-57680952D01*
X96252380Y-57919047D01*
X96300000Y-58014285D01*
X96347619Y-58061904D01*
X96442857Y-58109523D01*
X96538095Y-58109523D01*
X96680952Y-58061904D01*
X97252380Y-57490476D01*
X97252380Y-58109523D01*
X96585714Y-58966666D02*
X97252380Y-58966666D01*
X96204761Y-58728571D02*
X96919047Y-58490476D01*
X96919047Y-59109523D01*
%LPC*%
D12*
G36*
X124600000Y-134700000D02*
G01*
X121200000Y-134700000D01*
X121200000Y-125200000D01*
X124600000Y-125200000D01*
X124600000Y-134700000D01*
G37*
X124600000Y-134700000D02*
X121200000Y-134700000D01*
X121200000Y-125200000D01*
X124600000Y-125200000D01*
X124600000Y-134700000D01*
D13*
X92750000Y-60000000D02*
G75*
G03*
X92750000Y-60000000I-1750000J0D01*
G01*
X110750000Y-60000000D02*
G75*
G03*
X110750000Y-60000000I-1750000J0D01*
G01*
D14*
X96190000Y-96000000D03*
D15*
X98730000Y-96000000D03*
X101270000Y-96000000D03*
X103810000Y-96000000D03*
X103810000Y-129000000D03*
X101270000Y-129000000D03*
X98730000Y-129000000D03*
D14*
X96190000Y-129000000D03*
D16*
X95500000Y-93000000D03*
X98500000Y-93000000D03*
X101500000Y-93000000D03*
X104500000Y-93000000D03*
X92500000Y-88000000D03*
X107500000Y-88000000D03*
D17*
X109000000Y-130500000D03*
D18*
X111114000Y-80749000D03*
D19*
X113514000Y-80749000D03*
X112811056Y-82446056D03*
X111114000Y-83149000D03*
X109416944Y-82446056D03*
X108714000Y-80749000D03*
X109416944Y-79051944D03*
X111114000Y-78349000D03*
X112811056Y-79051944D03*
D18*
X111114000Y-119251000D03*
D19*
X113514000Y-119251000D03*
X112811056Y-120948056D03*
X111114000Y-121651000D03*
X109416944Y-120948056D03*
X108714000Y-119251000D03*
X109416944Y-117553944D03*
X111114000Y-116851000D03*
X112811056Y-117553944D03*
X79468056Y-98302944D03*
X77771000Y-97600000D03*
X76073944Y-98302944D03*
X75371000Y-100000000D03*
X76073944Y-101697056D03*
X77771000Y-102400000D03*
X79468056Y-101697056D03*
X80171000Y-100000000D03*
D18*
X77771000Y-100000000D03*
D17*
X143000000Y-100000000D03*
X78500000Y-137239000D03*
X78500000Y-62761000D03*
D15*
X101270000Y-54500000D03*
D14*
X98730000Y-54500000D03*
D20*
X104800000Y-141500000D03*
D21*
X100000000Y-144300000D03*
D22*
X100000000Y-138500000D03*
D14*
X141450000Y-111550000D03*
D15*
X138910000Y-111550000D03*
X141450000Y-109010000D03*
X138910000Y-109010000D03*
X141450000Y-106470000D03*
X138910000Y-106470000D03*
D23*
X141625000Y-93885000D03*
X141625000Y-89045000D03*
D24*
X144625000Y-94195000D03*
X144625000Y-88735000D03*
D25*
X101100000Y-106000000D03*
D16*
X101100000Y-108540000D03*
X98900000Y-108540000D03*
X98900000Y-106000000D03*
D26*
X83500000Y-133500000D03*
X85400000Y-133500000D03*
D17*
X91000000Y-97500000D03*
X109000000Y-97500000D03*
X91000000Y-130500000D03*
D15*
X104500000Y-108500000D03*
D14*
X104500000Y-105960000D03*
X95500000Y-105960000D03*
D15*
X95500000Y-108500000D03*
X104500000Y-72136000D03*
D14*
X104500000Y-69596000D03*
X95500000Y-72136000D03*
D15*
X95500000Y-69596000D03*
G36*
G01*
X82750000Y-59750000D02*
X82750000Y-58250000D01*
G75*
G02*
X83500000Y-57500000I750000J0D01*
G01*
X86000000Y-57500000D01*
G75*
G02*
X86750000Y-58250000I0J-750000D01*
G01*
X86750000Y-59750000D01*
G75*
G02*
X86000000Y-60500000I-750000J0D01*
G01*
X83500000Y-60500000D01*
G75*
G02*
X82750000Y-59750000I0J750000D01*
G01*
G37*
G36*
G01*
X99250000Y-60250000D02*
X99250000Y-61750000D01*
G75*
G02*
X98500000Y-62500000I-750000J0D01*
G01*
X96000000Y-62500000D01*
G75*
G02*
X95250000Y-61750000I0J750000D01*
G01*
X95250000Y-60250000D01*
G75*
G02*
X96000000Y-59500000I750000J0D01*
G01*
X98500000Y-59500000D01*
G75*
G02*
X99250000Y-60250000I0J-750000D01*
G01*
G37*
G36*
G01*
X117250000Y-60250000D02*
X117250000Y-61750000D01*
G75*
G02*
X116500000Y-62500000I-750000J0D01*
G01*
X114000000Y-62500000D01*
G75*
G02*
X113250000Y-61750000I0J750000D01*
G01*
X113250000Y-60250000D01*
G75*
G02*
X114000000Y-59500000I750000J0D01*
G01*
X116500000Y-59500000D01*
G75*
G02*
X117250000Y-60250000I0J-750000D01*
G01*
G37*
G36*
G01*
X100750000Y-59750000D02*
X100750000Y-58250000D01*
G75*
G02*
X101500000Y-57500000I750000J0D01*
G01*
X104000000Y-57500000D01*
G75*
G02*
X104750000Y-58250000I0J-750000D01*
G01*
X104750000Y-59750000D01*
G75*
G02*
X104000000Y-60500000I-750000J0D01*
G01*
X101500000Y-60500000D01*
G75*
G02*
X100750000Y-59750000I0J750000D01*
G01*
G37*
G36*
G01*
X100075000Y-59125000D02*
X99525000Y-59125000D01*
G75*
G02*
X99325000Y-58925000I0J200000D01*
G01*
X99325000Y-58525000D01*
G75*
G02*
X99525000Y-58325000I200000J0D01*
G01*
X100075000Y-58325000D01*
G75*
G02*
X100275000Y-58525000I0J-200000D01*
G01*
X100275000Y-58925000D01*
G75*
G02*
X100075000Y-59125000I-200000J0D01*
G01*
G37*
G36*
G01*
X100075000Y-57475000D02*
X99525000Y-57475000D01*
G75*
G02*
X99325000Y-57275000I0J200000D01*
G01*
X99325000Y-56875000D01*
G75*
G02*
X99525000Y-56675000I200000J0D01*
G01*
X100075000Y-56675000D01*
G75*
G02*
X100275000Y-56875000I0J-200000D01*
G01*
X100275000Y-57275000D01*
G75*
G02*
X100075000Y-57475000I-200000J0D01*
G01*
G37*
G36*
G01*
X98475000Y-57475000D02*
X97925000Y-57475000D01*
G75*
G02*
X97725000Y-57275000I0J200000D01*
G01*
X97725000Y-56875000D01*
G75*
G02*
X97925000Y-56675000I200000J0D01*
G01*
X98475000Y-56675000D01*
G75*
G02*
X98675000Y-56875000I0J-200000D01*
G01*
X98675000Y-57275000D01*
G75*
G02*
X98475000Y-57475000I-200000J0D01*
G01*
G37*
G36*
G01*
X98475000Y-59125000D02*
X97925000Y-59125000D01*
G75*
G02*
X97725000Y-58925000I0J200000D01*
G01*
X97725000Y-58525000D01*
G75*
G02*
X97925000Y-58325000I200000J0D01*
G01*
X98475000Y-58325000D01*
G75*
G02*
X98675000Y-58525000I0J-200000D01*
G01*
X98675000Y-58925000D01*
G75*
G02*
X98475000Y-59125000I-200000J0D01*
G01*
G37*
M02*
