%FSLAX45Y45*%
G04 Gerber Fmt 4.5, Leading zero omitted, Abs format (unit mm)*
G04 Created by KiCad (PCBNEW 5.1.10-88a1d61d58~88~ubuntu18.04.1) date 2021-07-16 18:04:01*
%MOMM*%
%LPD*%
G01*
G04 APERTURE LIST*
%TA.AperFunction,Profile*%
%ADD10C,0.050000*%
%TD*%
%ADD11C,0.200000*%
%ADD12C,0.300000*%
G04 APERTURE END LIST*
D10*
X9898946Y-11797135D02*
G75*
G02*
X8202800Y-10099900I101055J1797135D01*
G01*
X9900000Y-11550000D02*
X9898946Y-11797135D01*
X10099900Y-11797200D02*
X10100000Y-11550000D01*
X9725000Y-6775000D02*
X9725000Y-7400000D01*
X10275000Y-6775000D02*
X9725000Y-6775000D01*
X10275000Y-7400000D02*
X10275000Y-6775000D01*
X9725000Y-7400000D02*
X10275000Y-7400000D01*
X10500000Y-10100000D02*
X9500000Y-10100000D01*
X10500000Y-10350000D02*
X10500000Y-10100000D01*
X9500000Y-10350000D02*
X10500000Y-10350000D01*
X9500000Y-10100000D02*
X9500000Y-10350000D01*
X9300000Y-10100000D02*
X8700000Y-10100000D01*
X9300000Y-11200000D02*
X9300000Y-10100000D01*
X9900000Y-11200000D02*
X9300000Y-11200000D01*
X9900000Y-11550000D02*
X9900000Y-11200000D01*
X10700000Y-10100000D02*
X11300000Y-10100000D01*
X10700000Y-10400000D02*
X10700000Y-10100000D01*
X10700000Y-11200000D02*
X10700000Y-10400000D01*
X10100000Y-11200000D02*
X10700000Y-11200000D01*
X10100000Y-11550000D02*
X10100000Y-11200000D01*
X11300000Y-10100000D02*
X11797135Y-10101055D01*
X8202800Y-10099900D02*
X8700000Y-10100000D01*
X11797135Y-10101055D02*
G75*
G02*
X10099900Y-11797200I-1797135J101055D01*
G01*
X11300000Y-9900000D02*
X11797200Y-9900100D01*
X11300000Y-9150000D02*
X11300000Y-9900000D01*
X10101055Y-8202864D02*
X10100000Y-8700000D01*
X9900100Y-8202800D02*
X9900000Y-8700000D01*
X8700000Y-9900000D02*
X8700000Y-9150000D01*
X8202864Y-9898946D02*
X8700000Y-9900000D01*
X10101055Y-8202865D02*
G75*
G02*
X11797200Y-9900100I-101055J-1797135D01*
G01*
X10950000Y-9150000D02*
X11300000Y-9150000D01*
X10950000Y-8700000D02*
X10950000Y-9150000D01*
X10100000Y-8700000D02*
X10950000Y-8700000D01*
X9050000Y-8700000D02*
X9900000Y-8700000D01*
X9050000Y-9150000D02*
X9050000Y-8700000D01*
X8700000Y-9150000D02*
X9050000Y-9150000D01*
X8202865Y-9898946D02*
G75*
G02*
X9900100Y-8202800I1797135J-101055D01*
G01*
X13620201Y-6624108D02*
X13473930Y-6760508D01*
X13358757Y-6641243D02*
X13500179Y-6499821D01*
X14950000Y-10000000D02*
X14750000Y-10000000D01*
X14747106Y-10165773D02*
X14946985Y-10172753D01*
X13358757Y-13358757D02*
X13500179Y-13500179D01*
X13375892Y-13620201D02*
X13239492Y-13473930D01*
X10000000Y-14950000D02*
X10000000Y-14750000D01*
X9834227Y-14747106D02*
X9827248Y-14946985D01*
X6499821Y-13500179D02*
X6641243Y-13358757D01*
X6526070Y-13239492D02*
X6379799Y-13375892D01*
X5250000Y-10000000D02*
X5050000Y-10000000D01*
X5053015Y-9827248D02*
X5252894Y-9834227D01*
X6641243Y-6641243D02*
X6499821Y-6499821D01*
X6760508Y-6526070D02*
X6624108Y-6379799D01*
X10000000Y-5050000D02*
X10000000Y-5250000D01*
X10172753Y-5053015D02*
X10165773Y-5252894D01*
X5053015Y-9827248D02*
G75*
G02*
X6499821Y-6499821I4946985J-172753D01*
G01*
X6379799Y-13375892D02*
G75*
G02*
X5050000Y-10000000I3620201J3375892D01*
G01*
X9827248Y-14946985D02*
G75*
G02*
X6499821Y-13500179I172753J4946985D01*
G01*
X13375892Y-13620201D02*
G75*
G02*
X10000000Y-14950000I-3375892J3620201D01*
G01*
X14946985Y-10172753D02*
G75*
G02*
X13500179Y-13500179I-4946985J172753D01*
G01*
X10172753Y-5053015D02*
G75*
G02*
X13500179Y-6499821I-172753J-4946985D01*
G01*
X13620201Y-6624108D02*
G75*
G02*
X14950000Y-10000000I-3620201J-3375892D01*
G01*
X6624108Y-6379799D02*
G75*
G02*
X10000000Y-5050000I3375892J-3620201D01*
G01*
X10165773Y-5252894D02*
G75*
G02*
X13358757Y-6641243I-165773J-4747106D01*
G01*
X14747106Y-10165773D02*
G75*
G02*
X13358757Y-13358757I-4747106J165773D01*
G01*
X9834227Y-14747106D02*
G75*
G02*
X6641243Y-13358757I165773J4747106D01*
G01*
X5252894Y-9834227D02*
G75*
G02*
X6641243Y-6641243I4747106J-165773D01*
G01*
X13473930Y-6760508D02*
G75*
G02*
X14750000Y-10000000I-3473930J-3239492D01*
G01*
X13239492Y-13473930D02*
G75*
G02*
X10000000Y-14750000I-3239492J3473930D01*
G01*
X6526070Y-13239492D02*
G75*
G02*
X5250000Y-10000000I3473930J3239492D01*
G01*
X6760508Y-6526070D02*
G75*
G02*
X10000000Y-5250000I3239492J-3473930D01*
G01*
X16150000Y-10000000D02*
G75*
G03*
X16150000Y-10000000I-6150000J0D01*
G01*
D11*
X7690000Y-6116100D02*
X8010000Y-6436100D01*
X8010000Y-6116100D02*
X7690000Y-6436100D01*
X7690000Y-13563900D02*
X8010000Y-13883900D01*
X8010000Y-13563900D02*
X7690000Y-13883900D01*
X8940000Y-9590000D02*
X9260000Y-9910000D01*
X9260000Y-9590000D02*
X8940000Y-9910000D01*
X8940000Y-12890000D02*
X9260000Y-13210000D01*
X9260000Y-12890000D02*
X8940000Y-13210000D01*
X10740000Y-9590000D02*
X11060000Y-9910000D01*
X11060000Y-9590000D02*
X10740000Y-9910000D01*
X10740000Y-12890000D02*
X11060000Y-13210000D01*
X11060000Y-12890000D02*
X10740000Y-13210000D01*
X14140000Y-9840000D02*
X14460000Y-10160000D01*
X14460000Y-9840000D02*
X14140000Y-10160000D01*
D12*
X4133928Y-16618214D02*
X4133928Y-16318214D01*
X4205357Y-16318214D01*
X4248214Y-16332500D01*
X4276786Y-16361071D01*
X4291071Y-16389643D01*
X4305357Y-16446786D01*
X4305357Y-16489643D01*
X4291071Y-16546786D01*
X4276786Y-16575357D01*
X4248214Y-16603929D01*
X4205357Y-16618214D01*
X4133928Y-16618214D01*
X4433928Y-16618214D02*
X4433928Y-16418214D01*
X4433928Y-16475357D02*
X4448214Y-16446786D01*
X4462500Y-16432500D01*
X4491071Y-16418214D01*
X4519643Y-16418214D01*
X4619643Y-16618214D02*
X4619643Y-16418214D01*
X4619643Y-16318214D02*
X4605357Y-16332500D01*
X4619643Y-16346786D01*
X4633928Y-16332500D01*
X4619643Y-16318214D01*
X4619643Y-16346786D01*
X4805357Y-16618214D02*
X4776786Y-16603929D01*
X4762500Y-16575357D01*
X4762500Y-16318214D01*
X4962500Y-16618214D02*
X4933928Y-16603929D01*
X4919643Y-16575357D01*
X4919643Y-16318214D01*
X5305357Y-16618214D02*
X5305357Y-16318214D01*
X5405357Y-16532500D01*
X5505357Y-16318214D01*
X5505357Y-16618214D01*
X5776786Y-16618214D02*
X5776786Y-16461071D01*
X5762500Y-16432500D01*
X5733928Y-16418214D01*
X5676786Y-16418214D01*
X5648214Y-16432500D01*
X5776786Y-16603929D02*
X5748214Y-16618214D01*
X5676786Y-16618214D01*
X5648214Y-16603929D01*
X5633928Y-16575357D01*
X5633928Y-16546786D01*
X5648214Y-16518214D01*
X5676786Y-16503929D01*
X5748214Y-16503929D01*
X5776786Y-16489643D01*
X5919643Y-16418214D02*
X5919643Y-16718214D01*
X5919643Y-16432500D02*
X5948214Y-16418214D01*
X6005357Y-16418214D01*
X6033928Y-16432500D01*
X6048214Y-16446786D01*
X6062500Y-16475357D01*
X6062500Y-16561071D01*
X6048214Y-16589643D01*
X6033928Y-16603929D01*
X6005357Y-16618214D01*
X5948214Y-16618214D01*
X5919643Y-16603929D01*
X6191071Y-16589643D02*
X6205357Y-16603929D01*
X6191071Y-16618214D01*
X6176786Y-16603929D01*
X6191071Y-16589643D01*
X6191071Y-16618214D01*
X6191071Y-16432500D02*
X6205357Y-16446786D01*
X6191071Y-16461071D01*
X6176786Y-16446786D01*
X6191071Y-16432500D01*
X6191071Y-16461071D01*
X3527500Y-16952500D02*
X3847500Y-17272500D01*
X3847500Y-16952500D02*
X3527500Y-17272500D01*
X4105357Y-16948214D02*
X4291071Y-16948214D01*
X4191071Y-17062500D01*
X4233928Y-17062500D01*
X4262500Y-17076786D01*
X4276786Y-17091072D01*
X4291071Y-17119643D01*
X4291071Y-17191072D01*
X4276786Y-17219643D01*
X4262500Y-17233929D01*
X4233928Y-17248214D01*
X4148214Y-17248214D01*
X4119643Y-17233929D01*
X4105357Y-17219643D01*
X4419643Y-17219643D02*
X4433928Y-17233929D01*
X4419643Y-17248214D01*
X4405357Y-17233929D01*
X4419643Y-17219643D01*
X4419643Y-17248214D01*
X4548214Y-16976786D02*
X4562500Y-16962500D01*
X4591071Y-16948214D01*
X4662500Y-16948214D01*
X4691071Y-16962500D01*
X4705357Y-16976786D01*
X4719643Y-17005357D01*
X4719643Y-17033929D01*
X4705357Y-17076786D01*
X4533928Y-17248214D01*
X4719643Y-17248214D01*
X4905357Y-16948214D02*
X4933928Y-16948214D01*
X4962500Y-16962500D01*
X4976786Y-16976786D01*
X4991071Y-17005357D01*
X5005357Y-17062500D01*
X5005357Y-17133929D01*
X4991071Y-17191072D01*
X4976786Y-17219643D01*
X4962500Y-17233929D01*
X4933928Y-17248214D01*
X4905357Y-17248214D01*
X4876786Y-17233929D01*
X4862500Y-17219643D01*
X4848214Y-17191072D01*
X4833928Y-17133929D01*
X4833928Y-17062500D01*
X4848214Y-17005357D01*
X4862500Y-16976786D01*
X4876786Y-16962500D01*
X4905357Y-16948214D01*
X5191071Y-16948214D02*
X5219643Y-16948214D01*
X5248214Y-16962500D01*
X5262500Y-16976786D01*
X5276786Y-17005357D01*
X5291071Y-17062500D01*
X5291071Y-17133929D01*
X5276786Y-17191072D01*
X5262500Y-17219643D01*
X5248214Y-17233929D01*
X5219643Y-17248214D01*
X5191071Y-17248214D01*
X5162500Y-17233929D01*
X5148214Y-17219643D01*
X5133928Y-17191072D01*
X5119643Y-17133929D01*
X5119643Y-17062500D01*
X5133928Y-17005357D01*
X5148214Y-16976786D01*
X5162500Y-16962500D01*
X5191071Y-16948214D01*
X5419643Y-17248214D02*
X5419643Y-17048214D01*
X5419643Y-17076786D02*
X5433928Y-17062500D01*
X5462500Y-17048214D01*
X5505357Y-17048214D01*
X5533928Y-17062500D01*
X5548214Y-17091072D01*
X5548214Y-17248214D01*
X5548214Y-17091072D02*
X5562500Y-17062500D01*
X5591071Y-17048214D01*
X5633928Y-17048214D01*
X5662500Y-17062500D01*
X5676786Y-17091072D01*
X5676786Y-17248214D01*
X5819643Y-17248214D02*
X5819643Y-17048214D01*
X5819643Y-17076786D02*
X5833928Y-17062500D01*
X5862500Y-17048214D01*
X5905357Y-17048214D01*
X5933928Y-17062500D01*
X5948214Y-17091072D01*
X5948214Y-17248214D01*
X5948214Y-17091072D02*
X5962500Y-17062500D01*
X5991071Y-17048214D01*
X6033928Y-17048214D01*
X6062500Y-17062500D01*
X6076786Y-17091072D01*
X6076786Y-17248214D01*
X6662500Y-16933929D02*
X6405357Y-17319643D01*
X7048214Y-16948214D02*
X7076786Y-16948214D01*
X7105357Y-16962500D01*
X7119643Y-16976786D01*
X7133928Y-17005357D01*
X7148214Y-17062500D01*
X7148214Y-17133929D01*
X7133928Y-17191072D01*
X7119643Y-17219643D01*
X7105357Y-17233929D01*
X7076786Y-17248214D01*
X7048214Y-17248214D01*
X7019643Y-17233929D01*
X7005357Y-17219643D01*
X6991071Y-17191072D01*
X6976786Y-17133929D01*
X6976786Y-17062500D01*
X6991071Y-17005357D01*
X7005357Y-16976786D01*
X7019643Y-16962500D01*
X7048214Y-16948214D01*
X7276786Y-17219643D02*
X7291071Y-17233929D01*
X7276786Y-17248214D01*
X7262500Y-17233929D01*
X7276786Y-17219643D01*
X7276786Y-17248214D01*
X7576786Y-17248214D02*
X7405357Y-17248214D01*
X7491071Y-17248214D02*
X7491071Y-16948214D01*
X7462500Y-16991072D01*
X7433928Y-17019643D01*
X7405357Y-17033929D01*
X7691071Y-16976786D02*
X7705357Y-16962500D01*
X7733928Y-16948214D01*
X7805357Y-16948214D01*
X7833928Y-16962500D01*
X7848214Y-16976786D01*
X7862500Y-17005357D01*
X7862500Y-17033929D01*
X7848214Y-17076786D01*
X7676786Y-17248214D01*
X7862500Y-17248214D01*
X8119643Y-16948214D02*
X8062500Y-16948214D01*
X8033928Y-16962500D01*
X8019643Y-16976786D01*
X7991071Y-17019643D01*
X7976786Y-17076786D01*
X7976786Y-17191072D01*
X7991071Y-17219643D01*
X8005357Y-17233929D01*
X8033928Y-17248214D01*
X8091071Y-17248214D01*
X8119643Y-17233929D01*
X8133928Y-17219643D01*
X8148214Y-17191072D01*
X8148214Y-17119643D01*
X8133928Y-17091072D01*
X8119643Y-17076786D01*
X8091071Y-17062500D01*
X8033928Y-17062500D01*
X8005357Y-17076786D01*
X7991071Y-17091072D01*
X7976786Y-17119643D01*
X8333928Y-16948214D02*
X8362500Y-16948214D01*
X8391071Y-16962500D01*
X8405357Y-16976786D01*
X8419643Y-17005357D01*
X8433928Y-17062500D01*
X8433928Y-17133929D01*
X8419643Y-17191072D01*
X8405357Y-17219643D01*
X8391071Y-17233929D01*
X8362500Y-17248214D01*
X8333928Y-17248214D01*
X8305357Y-17233929D01*
X8291071Y-17219643D01*
X8276786Y-17191072D01*
X8262500Y-17133929D01*
X8262500Y-17062500D01*
X8276786Y-17005357D01*
X8291071Y-16976786D01*
X8305357Y-16962500D01*
X8333928Y-16948214D01*
X8548214Y-16948214D02*
X8548214Y-17005357D01*
X8662500Y-16948214D02*
X8662500Y-17005357D01*
X9105357Y-17362500D02*
X9091071Y-17348214D01*
X9062500Y-17305357D01*
X9048214Y-17276786D01*
X9033928Y-17233929D01*
X9019643Y-17162500D01*
X9019643Y-17105357D01*
X9033928Y-17033929D01*
X9048214Y-16991072D01*
X9062500Y-16962500D01*
X9091071Y-16919643D01*
X9105357Y-16905357D01*
X9191071Y-16948214D02*
X9391071Y-16948214D01*
X9262500Y-17248214D01*
X9733928Y-17248214D02*
X9733928Y-16948214D01*
X9862500Y-17248214D02*
X9862500Y-17091072D01*
X9848214Y-17062500D01*
X9819643Y-17048214D01*
X9776786Y-17048214D01*
X9748214Y-17062500D01*
X9733928Y-17076786D01*
X10048214Y-17248214D02*
X10019643Y-17233929D01*
X10005357Y-17219643D01*
X9991071Y-17191072D01*
X9991071Y-17105357D01*
X10005357Y-17076786D01*
X10019643Y-17062500D01*
X10048214Y-17048214D01*
X10091071Y-17048214D01*
X10119643Y-17062500D01*
X10133928Y-17076786D01*
X10148214Y-17105357D01*
X10148214Y-17191072D01*
X10133928Y-17219643D01*
X10119643Y-17233929D01*
X10091071Y-17248214D01*
X10048214Y-17248214D01*
X10319643Y-17248214D02*
X10291071Y-17233929D01*
X10276786Y-17205357D01*
X10276786Y-16948214D01*
X10548214Y-17233929D02*
X10519643Y-17248214D01*
X10462500Y-17248214D01*
X10433928Y-17233929D01*
X10419643Y-17205357D01*
X10419643Y-17091072D01*
X10433928Y-17062500D01*
X10462500Y-17048214D01*
X10519643Y-17048214D01*
X10548214Y-17062500D01*
X10562500Y-17091072D01*
X10562500Y-17119643D01*
X10419643Y-17148214D01*
X10676786Y-17233929D02*
X10705357Y-17248214D01*
X10762500Y-17248214D01*
X10791071Y-17233929D01*
X10805357Y-17205357D01*
X10805357Y-17191072D01*
X10791071Y-17162500D01*
X10762500Y-17148214D01*
X10719643Y-17148214D01*
X10691071Y-17133929D01*
X10676786Y-17105357D01*
X10676786Y-17091072D01*
X10691071Y-17062500D01*
X10719643Y-17048214D01*
X10762500Y-17048214D01*
X10791071Y-17062500D01*
X10905357Y-17362500D02*
X10919643Y-17348214D01*
X10948214Y-17305357D01*
X10962500Y-17276786D01*
X10976786Y-17233929D01*
X10991071Y-17162500D01*
X10991071Y-17105357D01*
X10976786Y-17033929D01*
X10962500Y-16991072D01*
X10948214Y-16962500D01*
X10919643Y-16919643D01*
X10905357Y-16905357D01*
X11448214Y-17362500D02*
X11433928Y-17348214D01*
X11405357Y-17305357D01*
X11391071Y-17276786D01*
X11376786Y-17233929D01*
X11362500Y-17162500D01*
X11362500Y-17105357D01*
X11376786Y-17033929D01*
X11391071Y-16991072D01*
X11405357Y-16962500D01*
X11433928Y-16919643D01*
X11448214Y-16905357D01*
X11562500Y-17048214D02*
X11562500Y-17248214D01*
X11562500Y-17076786D02*
X11576786Y-17062500D01*
X11605357Y-17048214D01*
X11648214Y-17048214D01*
X11676786Y-17062500D01*
X11691071Y-17091072D01*
X11691071Y-17248214D01*
X11876786Y-17248214D02*
X11848214Y-17233929D01*
X11833928Y-17219643D01*
X11819643Y-17191072D01*
X11819643Y-17105357D01*
X11833928Y-17076786D01*
X11848214Y-17062500D01*
X11876786Y-17048214D01*
X11919643Y-17048214D01*
X11948214Y-17062500D01*
X11962500Y-17076786D01*
X11976786Y-17105357D01*
X11976786Y-17191072D01*
X11962500Y-17219643D01*
X11948214Y-17233929D01*
X11919643Y-17248214D01*
X11876786Y-17248214D01*
X12062500Y-17048214D02*
X12176786Y-17048214D01*
X12105357Y-16948214D02*
X12105357Y-17205357D01*
X12119643Y-17233929D01*
X12148214Y-17248214D01*
X12176786Y-17248214D01*
X12505357Y-17048214D02*
X12505357Y-17348214D01*
X12505357Y-17062500D02*
X12533928Y-17048214D01*
X12591071Y-17048214D01*
X12619643Y-17062500D01*
X12633928Y-17076786D01*
X12648214Y-17105357D01*
X12648214Y-17191072D01*
X12633928Y-17219643D01*
X12619643Y-17233929D01*
X12591071Y-17248214D01*
X12533928Y-17248214D01*
X12505357Y-17233929D01*
X12819643Y-17248214D02*
X12791071Y-17233929D01*
X12776786Y-17205357D01*
X12776786Y-16948214D01*
X13062500Y-17248214D02*
X13062500Y-17091072D01*
X13048214Y-17062500D01*
X13019643Y-17048214D01*
X12962500Y-17048214D01*
X12933928Y-17062500D01*
X13062500Y-17233929D02*
X13033928Y-17248214D01*
X12962500Y-17248214D01*
X12933928Y-17233929D01*
X12919643Y-17205357D01*
X12919643Y-17176786D01*
X12933928Y-17148214D01*
X12962500Y-17133929D01*
X13033928Y-17133929D01*
X13062500Y-17119643D01*
X13162500Y-17048214D02*
X13276786Y-17048214D01*
X13205357Y-16948214D02*
X13205357Y-17205357D01*
X13219643Y-17233929D01*
X13248214Y-17248214D01*
X13276786Y-17248214D01*
X13491071Y-17233929D02*
X13462500Y-17248214D01*
X13405357Y-17248214D01*
X13376786Y-17233929D01*
X13362500Y-17205357D01*
X13362500Y-17091072D01*
X13376786Y-17062500D01*
X13405357Y-17048214D01*
X13462500Y-17048214D01*
X13491071Y-17062500D01*
X13505357Y-17091072D01*
X13505357Y-17119643D01*
X13362500Y-17148214D01*
X13762500Y-17248214D02*
X13762500Y-16948214D01*
X13762500Y-17233929D02*
X13733928Y-17248214D01*
X13676786Y-17248214D01*
X13648214Y-17233929D01*
X13633928Y-17219643D01*
X13619643Y-17191072D01*
X13619643Y-17105357D01*
X13633928Y-17076786D01*
X13648214Y-17062500D01*
X13676786Y-17048214D01*
X13733928Y-17048214D01*
X13762500Y-17062500D01*
X13876786Y-17362500D02*
X13891071Y-17348214D01*
X13919643Y-17305357D01*
X13933928Y-17276786D01*
X13948214Y-17233929D01*
X13962500Y-17162500D01*
X13962500Y-17105357D01*
X13948214Y-17033929D01*
X13933928Y-16991072D01*
X13919643Y-16962500D01*
X13891071Y-16919643D01*
X13876786Y-16905357D01*
M02*
