M48
; DRILL file {KiCad 5.1.10-88a1d61d58~88~ubuntu18.04.1} date Fri Jul 16 18:03:39 2021
; FORMAT={-:-/ absolute / metric / decimal}
; #@! TF.CreationDate,2021-07-16T18:03:39+01:00
; #@! TF.GenerationSoftware,Kicad,Pcbnew,5.1.10-88a1d61d58~88~ubuntu18.04.1
; #@! TF.FileFunction,Plated,1,2,PTH
FMAT,2
METRIC
T1C0.300
T2C0.400
T3C0.500
T4C0.650
T5C0.700
T6C0.762
T7C0.800
T8C1.000
T9C3.200
%
G90
G05
T1
X121.606Y-125.513
X121.606Y-127.293
X121.606Y-129.073
X121.606Y-130.853
X121.606Y-132.633
X121.606Y-134.413
X122.906Y-125.513
X122.906Y-127.293
X122.906Y-129.073
X122.906Y-130.853
X122.906Y-132.633
X122.906Y-134.413
X124.206Y-125.513
X124.206Y-127.293
X124.206Y-129.073
X124.206Y-130.853
X124.206Y-132.633
X124.206Y-134.413
T2
X44.5Y-102.0
X47.25Y-80.25
X48.7Y-123.35
X56.5Y-114.5
X58.0Y-61.5
X61.0Y-83.75
X61.0Y-93.75
X61.0Y-103.75
X61.5Y-142.0
X67.9Y-119.7
X68.3Y-133.7
X69.0Y-83.75
X69.0Y-93.75
X69.0Y-103.75
X72.0Y-73.4
X73.1Y-87.0
X73.2Y-78.2
X76.65Y-48.7
X77.0Y-67.3
X78.1Y-72.7
X79.7Y-93.5
X80.25Y-152.8
X80.4Y-106.2
X81.7Y-141.6
X84.0Y-121.5
X84.2Y-61.5
X84.2Y-67.4
X86.75Y-128.75
X87.3Y-132.6
X88.7Y-117.5
X88.75Y-65.05
X89.1Y-81.9
X89.5Y-64.3
X89.5Y-65.8
X92.202Y-126.238
X92.25Y-65.8
X92.25Y-64.346
X92.3Y-60.0
X92.8Y-69.0
X92.8Y-76.0
X92.8Y-81.9
X92.989Y-65.127
X93.7Y-62.0
X93.8Y-58.0
X95.2Y-131.0
X96.5Y-55.1
X98.0Y-42.75
X99.2Y-57.7
X99.9Y-80.4
X100.1Y-60.5
X100.3Y-48.5
X100.7Y-75.8
X101.25Y-66.5
X101.4Y-62.2
X101.5Y-121.5
X101.7Y-47.4
X101.9Y-136.1
X102.5Y-157.0
X103.0Y-49.6
X104.7Y-48.5
X105.2Y-56.6
X110.5Y-64.5
X111.2Y-72.1
X111.527Y-66.5
X113.0Y-123.5
X114.5Y-143.5
X114.554Y-113.284
X115.75Y-139.5
X116.0Y-141.0
X116.0Y-142.5
X116.75Y-124.75
X116.9Y-108.9
X117.0Y-127.5
X117.0Y-132.575
X118.173Y-134.188
X118.5Y-79.0
X118.7Y-69.6
X118.8Y-104.1
X119.0Y-107.0
X119.38Y-114.554
X119.75Y-47.25
X120.904Y-109.982
X122.25Y-136.25
X122.428Y-112.014
X123.35Y-151.3
X123.551Y-113.184
X123.75Y-88.75
X123.75Y-94.0
X123.994Y-107.4
X124.251Y-105.692
X124.5Y-113.5
X125.489Y-114.442
X125.5Y-121.0
X125.736Y-115.514
X125.96Y-109.96
X126.238Y-104.17
X126.545Y-105.122
X126.673Y-124.75
X126.748Y-138.494
X126.8Y-95.375
X127.1Y-128.333
X127.1Y-129.794
X127.1Y-132.8
X127.127Y-126.873
X127.477Y-96.873
X127.5Y-113.25
X127.537Y-104.997
X127.65Y-101.125
X127.75Y-84.1
X128.204Y-98.761
X128.273Y-100.198
X128.431Y-96.571
X129.0Y-110.0
X129.586Y-113.673
X129.8Y-114.7
X129.927Y-105.1
X130.0Y-106.6
X130.1Y-124.8
X130.5Y-85.473
X130.5Y-87.25
X130.5Y-95.5
X130.8Y-83.3
X130.8Y-100.0
X131.2Y-123.6
X131.516Y-129.088
X131.647Y-127.187
X132.024Y-125.024
X132.25Y-97.028
X132.532Y-128.072
X133.294Y-125.024
X134.7Y-103.4
X135.072Y-126.053
X135.2Y-108.0
X136.5Y-99.9
X137.3Y-86.8
X137.37Y-128.297
X138.5Y-58.0
X139.0Y-115.5
X139.5Y-102.5
X141.986Y-138.684
X151.25Y-76.65
X152.75Y-119.75
X157.0Y-97.5
T3
X75.371Y-100.0
X76.074Y-98.303
X76.074Y-101.697
X77.771Y-97.6
X77.771Y-102.4
X79.468Y-98.303
X79.468Y-101.697
X80.171Y-100.0
X83.5Y-133.5
X85.4Y-133.5
X108.714Y-80.749
X108.714Y-119.251
X109.417Y-79.052
X109.417Y-82.446
X109.417Y-117.554
X109.417Y-120.948
X111.114Y-78.349
X111.114Y-83.149
X111.114Y-116.851
X111.114Y-121.651
X112.811Y-79.052
X112.811Y-82.446
X112.811Y-117.554
X112.811Y-120.948
X113.514Y-80.749
X113.514Y-119.251
T6
X92.5Y-88.0
X95.5Y-93.0
X98.5Y-93.0
X98.9Y-106.0
X98.9Y-108.54
X101.1Y-106.0
X101.1Y-108.54
X101.5Y-93.0
X104.5Y-93.0
X107.5Y-88.0
T8
X95.5Y-69.596
X95.5Y-72.136
X95.5Y-105.96
X95.5Y-108.5
X96.19Y-96.0
X96.19Y-129.0
X98.73Y-54.5
X98.73Y-96.0
X98.73Y-129.0
X101.27Y-54.5
X101.27Y-96.0
X101.27Y-129.0
X103.81Y-96.0
X103.81Y-129.0
X104.5Y-69.596
X104.5Y-72.136
X104.5Y-105.96
X104.5Y-108.5
X138.91Y-106.47
X138.91Y-109.01
X138.91Y-111.55
X141.45Y-106.47
X141.45Y-109.01
X141.45Y-111.55
T9
X77.771Y-100.0
X111.114Y-80.749
X111.114Y-119.251
T4
X141.825Y-89.045G85X141.425Y-89.045
G05
X141.825Y-93.885G85X141.425Y-93.885
G05
T5
X144.875Y-88.735G85X144.375Y-88.735
G05
X144.875Y-94.195G85X144.375Y-94.195
G05
T7
X98.7Y-138.5G85X101.3Y-138.5
G05
X98.9Y-144.3G85X101.1Y-144.3
G05
X104.8Y-142.6G85X104.8Y-140.4
G05
T0
M30
