%TF.GenerationSoftware,KiCad,Pcbnew,5.1.10-88a1d61d58~88~ubuntu18.04.1*%
%TF.CreationDate,2021-07-16T18:03:04+01:00*%
%TF.ProjectId,NerdClock,4e657264-436c-46f6-936b-2e6b69636164,rev?*%
%TF.SameCoordinates,Original*%
%TF.FileFunction,Profile,NP*%
%FSLAX46Y46*%
G04 Gerber Fmt 4.6, Leading zero omitted, Abs format (unit mm)*
G04 Created by KiCad (PCBNEW 5.1.10-88a1d61d58~88~ubuntu18.04.1) date 2021-07-16 18:03:04*
%MOMM*%
%LPD*%
G01*
G04 APERTURE LIST*
%TA.AperFunction,Profile*%
%ADD10C,0.050000*%
%TD*%
G04 APERTURE END LIST*
D10*
X98989455Y-117971354D02*
G75*
G02*
X82028000Y-100999000I1010545J17971354D01*
G01*
X99000000Y-115500000D02*
X98989455Y-117971355D01*
X100999000Y-117972000D02*
X101000000Y-115500000D01*
X97250000Y-67750000D02*
X97250000Y-74000000D01*
X102750000Y-67750000D02*
X97250000Y-67750000D01*
X102750000Y-74000000D02*
X102750000Y-67750000D01*
X97250000Y-74000000D02*
X102750000Y-74000000D01*
X105000000Y-101000000D02*
X95000000Y-101000000D01*
X105000000Y-103500000D02*
X105000000Y-101000000D01*
X95000000Y-103500000D02*
X105000000Y-103500000D01*
X95000000Y-101000000D02*
X95000000Y-103500000D01*
X93000000Y-101000000D02*
X87000000Y-101000000D01*
X93000000Y-112000000D02*
X93000000Y-101000000D01*
X99000000Y-112000000D02*
X93000000Y-112000000D01*
X99000000Y-115500000D02*
X99000000Y-112000000D01*
X107000000Y-101000000D02*
X113000000Y-101000000D01*
X107000000Y-104000000D02*
X107000000Y-101000000D01*
X107000000Y-112000000D02*
X107000000Y-104000000D01*
X101000000Y-112000000D02*
X107000000Y-112000000D01*
X101000000Y-115500000D02*
X101000000Y-112000000D01*
X113000000Y-101000000D02*
X117971355Y-101010545D01*
X82028000Y-100999000D02*
X87000000Y-101000000D01*
X117971354Y-101010545D02*
G75*
G02*
X100999000Y-117972000I-17971354J1010545D01*
G01*
X113000000Y-99000000D02*
X117972000Y-99001000D01*
X113000000Y-91500000D02*
X113000000Y-99000000D01*
X101010545Y-82028645D02*
X101000000Y-87000000D01*
X99001000Y-82028000D02*
X99000000Y-87000000D01*
X87000000Y-99000000D02*
X87000000Y-91500000D01*
X82028645Y-98989455D02*
X87000000Y-99000000D01*
X101010545Y-82028646D02*
G75*
G02*
X117972000Y-99001000I-1010545J-17971354D01*
G01*
X109500000Y-91500000D02*
X113000000Y-91500000D01*
X109500000Y-87000000D02*
X109500000Y-91500000D01*
X101000000Y-87000000D02*
X109500000Y-87000000D01*
X90500000Y-87000000D02*
X99000000Y-87000000D01*
X90500000Y-91500000D02*
X90500000Y-87000000D01*
X87000000Y-91500000D02*
X90500000Y-91500000D01*
X82028646Y-98989455D02*
G75*
G02*
X99001000Y-82028000I17971354J-1010545D01*
G01*
X136202008Y-66241081D02*
X134739301Y-67605078D01*
X133587572Y-66412428D02*
X135001786Y-64998214D01*
X149500000Y-100000000D02*
X147500000Y-100000000D01*
X147471064Y-101657726D02*
X149469846Y-101727525D01*
X133587572Y-133587572D02*
X135001786Y-135001786D01*
X133758919Y-136202008D02*
X132394922Y-134739301D01*
X100000000Y-149500000D02*
X100000000Y-147500000D01*
X98342274Y-147471064D02*
X98272475Y-149469846D01*
X64998214Y-135001786D02*
X66412428Y-133587572D01*
X65260699Y-132394922D02*
X63797992Y-133758919D01*
X52500000Y-100000000D02*
X50500000Y-100000000D01*
X50530154Y-98272475D02*
X52528936Y-98342274D01*
X66412428Y-66412428D02*
X64998214Y-64998214D01*
X67605078Y-65260699D02*
X66241081Y-63797992D01*
X100000000Y-50500000D02*
X100000000Y-52500000D01*
X101727525Y-50530154D02*
X101657726Y-52528936D01*
X50530154Y-98272475D02*
G75*
G02*
X64998214Y-64998214I49469846J-1727525D01*
G01*
X63797992Y-133758919D02*
G75*
G02*
X50500000Y-100000000I36202008J33758919D01*
G01*
X98272475Y-149469846D02*
G75*
G02*
X64998214Y-135001786I1727525J49469846D01*
G01*
X133758919Y-136202008D02*
G75*
G02*
X100000000Y-149500000I-33758919J36202008D01*
G01*
X149469846Y-101727525D02*
G75*
G02*
X135001786Y-135001786I-49469846J1727525D01*
G01*
X101727525Y-50530154D02*
G75*
G02*
X135001786Y-64998214I-1727525J-49469846D01*
G01*
X136202008Y-66241081D02*
G75*
G02*
X149500000Y-100000000I-36202008J-33758919D01*
G01*
X66241081Y-63797992D02*
G75*
G02*
X100000000Y-50500000I33758919J-36202008D01*
G01*
X101657726Y-52528936D02*
G75*
G02*
X133587572Y-66412428I-1657726J-47471064D01*
G01*
X147471064Y-101657726D02*
G75*
G02*
X133587572Y-133587572I-47471064J1657726D01*
G01*
X98342274Y-147471064D02*
G75*
G02*
X66412428Y-133587572I1657726J47471064D01*
G01*
X52528936Y-98342274D02*
G75*
G02*
X66412428Y-66412428I47471064J-1657726D01*
G01*
X134739301Y-67605078D02*
G75*
G02*
X147500000Y-100000000I-34739301J-32394922D01*
G01*
X132394922Y-134739301D02*
G75*
G02*
X100000000Y-147500000I-32394922J34739301D01*
G01*
X65260699Y-132394922D02*
G75*
G02*
X52500000Y-100000000I34739301J32394922D01*
G01*
X67605078Y-65260699D02*
G75*
G02*
X100000000Y-52500000I32394922J-34739301D01*
G01*
X161500000Y-100000000D02*
G75*
G03*
X161500000Y-100000000I-61500000J0D01*
G01*
M02*
