%FSLAX45Y45*%
G04 Gerber Fmt 4.5, Leading zero omitted, Abs format (unit mm)*
G04 Created by KiCad (PCBNEW 5.1.10-88a1d61d58~88~ubuntu18.04.1) date 2021-07-16 18:04:01*
%MOMM*%
%LPD*%
G01*
G04 APERTURE LIST*
%TA.AperFunction,Profile*%
%ADD10C,0.050000*%
%TD*%
%ADD11C,0.200000*%
%ADD12C,0.300000*%
G04 APERTURE END LIST*
D10*
X9898946Y-11797135D02*
G75*
G02*
X8202800Y-10099900I101055J1797135D01*
G01*
X9900000Y-11550000D02*
X9898946Y-11797135D01*
X10099900Y-11797200D02*
X10100000Y-11550000D01*
X9725000Y-6775000D02*
X9725000Y-7400000D01*
X10275000Y-6775000D02*
X9725000Y-6775000D01*
X10275000Y-7400000D02*
X10275000Y-6775000D01*
X9725000Y-7400000D02*
X10275000Y-7400000D01*
X10500000Y-10100000D02*
X9500000Y-10100000D01*
X10500000Y-10350000D02*
X10500000Y-10100000D01*
X9500000Y-10350000D02*
X10500000Y-10350000D01*
X9500000Y-10100000D02*
X9500000Y-10350000D01*
X9300000Y-10100000D02*
X8700000Y-10100000D01*
X9300000Y-11200000D02*
X9300000Y-10100000D01*
X9900000Y-11200000D02*
X9300000Y-11200000D01*
X9900000Y-11550000D02*
X9900000Y-11200000D01*
X10700000Y-10100000D02*
X11300000Y-10100000D01*
X10700000Y-10400000D02*
X10700000Y-10100000D01*
X10700000Y-11200000D02*
X10700000Y-10400000D01*
X10100000Y-11200000D02*
X10700000Y-11200000D01*
X10100000Y-11550000D02*
X10100000Y-11200000D01*
X11300000Y-10100000D02*
X11797135Y-10101055D01*
X8202800Y-10099900D02*
X8700000Y-10100000D01*
X11797135Y-10101055D02*
G75*
G02*
X10099900Y-11797200I-1797135J101055D01*
G01*
X11300000Y-9900000D02*
X11797200Y-9900100D01*
X11300000Y-9150000D02*
X11300000Y-9900000D01*
X10101055Y-8202864D02*
X10100000Y-8700000D01*
X9900100Y-8202800D02*
X9900000Y-8700000D01*
X8700000Y-9900000D02*
X8700000Y-9150000D01*
X8202864Y-9898946D02*
X8700000Y-9900000D01*
X10101055Y-8202865D02*
G75*
G02*
X11797200Y-9900100I-101055J-1797135D01*
G01*
X10950000Y-9150000D02*
X11300000Y-9150000D01*
X10950000Y-8700000D02*
X10950000Y-9150000D01*
X10100000Y-8700000D02*
X10950000Y-8700000D01*
X9050000Y-8700000D02*
X9900000Y-8700000D01*
X9050000Y-9150000D02*
X9050000Y-8700000D01*
X8700000Y-9150000D02*
X9050000Y-9150000D01*
X8202865Y-9898946D02*
G75*
G02*
X9900100Y-8202800I1797135J-101055D01*
G01*
X13620201Y-6624108D02*
X13473930Y-6760508D01*
X13358757Y-6641243D02*
X13500179Y-6499821D01*
X14950000Y-10000000D02*
X14750000Y-10000000D01*
X14747106Y-10165773D02*
X14946985Y-10172753D01*
X13358757Y-13358757D02*
X13500179Y-13500179D01*
X13375892Y-13620201D02*
X13239492Y-13473930D01*
X10000000Y-14950000D02*
X10000000Y-14750000D01*
X9834227Y-14747106D02*
X9827248Y-14946985D01*
X6499821Y-13500179D02*
X6641243Y-13358757D01*
X6526070Y-13239492D02*
X6379799Y-13375892D01*
X5250000Y-10000000D02*
X5050000Y-10000000D01*
X5053015Y-9827248D02*
X5252894Y-9834227D01*
X6641243Y-6641243D02*
X6499821Y-6499821D01*
X6760508Y-6526070D02*
X6624108Y-6379799D01*
X10000000Y-5050000D02*
X10000000Y-5250000D01*
X10172753Y-5053015D02*
X10165773Y-5252894D01*
X5053015Y-9827248D02*
G75*
G02*
X6499821Y-6499821I4946985J-172753D01*
G01*
X6379799Y-13375892D02*
G75*
G02*
X5050000Y-10000000I3620201J3375892D01*
G01*
X9827248Y-14946985D02*
G75*
G02*
X6499821Y-13500179I172753J4946985D01*
G01*
X13375892Y-13620201D02*
G75*
G02*
X10000000Y-14950000I-3375892J3620201D01*
G01*
X14946985Y-10172753D02*
G75*
G02*
X13500179Y-13500179I-4946985J172753D01*
G01*
X10172753Y-5053015D02*
G75*
G02*
X13500179Y-6499821I-172753J-4946985D01*
G01*
X13620201Y-6624108D02*
G75*
G02*
X14950000Y-10000000I-3620201J-3375892D01*
G01*
X6624108Y-6379799D02*
G75*
G02*
X10000000Y-5050000I3375892J-3620201D01*
G01*
X10165773Y-5252894D02*
G75*
G02*
X13358757Y-6641243I-165773J-4747106D01*
G01*
X14747106Y-10165773D02*
G75*
G02*
X13358757Y-13358757I-4747106J165773D01*
G01*
X9834227Y-14747106D02*
G75*
G02*
X6641243Y-13358757I165773J4747106D01*
G01*
X5252894Y-9834227D02*
G75*
G02*
X6641243Y-6641243I4747106J-165773D01*
G01*
X13473930Y-6760508D02*
G75*
G02*
X14750000Y-10000000I-3473930J-3239492D01*
G01*
X13239492Y-13473930D02*
G75*
G02*
X10000000Y-14750000I-3239492J3473930D01*
G01*
X6526070Y-13239492D02*
G75*
G02*
X5250000Y-10000000I3473930J3239492D01*
G01*
X6760508Y-6526070D02*
G75*
G02*
X10000000Y-5250000I3239492J-3473930D01*
G01*
X16150000Y-10000000D02*
G75*
G03*
X16150000Y-10000000I-6150000J0D01*
G01*
D11*
X12145600Y-12536300D02*
X12175600Y-12566300D01*
X12175600Y-12536300D02*
X12145600Y-12566300D01*
X12145600Y-12714300D02*
X12175600Y-12744300D01*
X12175600Y-12714300D02*
X12145600Y-12744300D01*
X12145600Y-12892300D02*
X12175600Y-12922300D01*
X12175600Y-12892300D02*
X12145600Y-12922300D01*
X12145600Y-13070300D02*
X12175600Y-13100300D01*
X12175600Y-13070300D02*
X12145600Y-13100300D01*
X12145600Y-13248300D02*
X12175600Y-13278300D01*
X12175600Y-13248300D02*
X12145600Y-13278300D01*
X12145600Y-13426300D02*
X12175600Y-13456300D01*
X12175600Y-13426300D02*
X12145600Y-13456300D01*
X12275600Y-12536300D02*
X12305600Y-12566300D01*
X12305600Y-12536300D02*
X12275600Y-12566300D01*
X12275600Y-12714300D02*
X12305600Y-12744300D01*
X12305600Y-12714300D02*
X12275600Y-12744300D01*
X12275600Y-12892300D02*
X12305600Y-12922300D01*
X12305600Y-12892300D02*
X12275600Y-12922300D01*
X12275600Y-13070300D02*
X12305600Y-13100300D01*
X12305600Y-13070300D02*
X12275600Y-13100300D01*
X12275600Y-13248300D02*
X12305600Y-13278300D01*
X12305600Y-13248300D02*
X12275600Y-13278300D01*
X12275600Y-13426300D02*
X12305600Y-13456300D01*
X12305600Y-13426300D02*
X12275600Y-13456300D01*
X12405600Y-12536300D02*
X12435600Y-12566300D01*
X12435600Y-12536300D02*
X12405600Y-12566300D01*
X12405600Y-12714300D02*
X12435600Y-12744300D01*
X12435600Y-12714300D02*
X12405600Y-12744300D01*
X12405600Y-12892300D02*
X12435600Y-12922300D01*
X12435600Y-12892300D02*
X12405600Y-12922300D01*
X12405600Y-13070300D02*
X12435600Y-13100300D01*
X12435600Y-13070300D02*
X12405600Y-13100300D01*
X12405600Y-13248300D02*
X12435600Y-13278300D01*
X12435600Y-13248300D02*
X12405600Y-13278300D01*
X12405600Y-13426300D02*
X12435600Y-13456300D01*
X12435600Y-13426300D02*
X12405600Y-13456300D01*
X4470000Y-10200000D02*
G75*
G03*
X4470000Y-10200000I-20000J0D01*
G01*
X4745000Y-8025000D02*
G75*
G03*
X4745000Y-8025000I-20000J0D01*
G01*
X4890000Y-12335000D02*
G75*
G03*
X4890000Y-12335000I-20000J0D01*
G01*
X5670000Y-11450000D02*
G75*
G03*
X5670000Y-11450000I-20000J0D01*
G01*
X5820000Y-6150000D02*
G75*
G03*
X5820000Y-6150000I-20000J0D01*
G01*
X6120000Y-8375000D02*
G75*
G03*
X6120000Y-8375000I-20000J0D01*
G01*
X6120000Y-9375000D02*
G75*
G03*
X6120000Y-9375000I-20000J0D01*
G01*
X6120000Y-10375000D02*
G75*
G03*
X6120000Y-10375000I-20000J0D01*
G01*
X6170000Y-14200000D02*
G75*
G03*
X6170000Y-14200000I-20000J0D01*
G01*
X6810000Y-11970000D02*
G75*
G03*
X6810000Y-11970000I-20000J0D01*
G01*
X6850000Y-13370000D02*
G75*
G03*
X6850000Y-13370000I-20000J0D01*
G01*
X6920000Y-8375000D02*
G75*
G03*
X6920000Y-8375000I-20000J0D01*
G01*
X6920000Y-9375000D02*
G75*
G03*
X6920000Y-9375000I-20000J0D01*
G01*
X6920000Y-10375000D02*
G75*
G03*
X6920000Y-10375000I-20000J0D01*
G01*
X7220000Y-7340000D02*
G75*
G03*
X7220000Y-7340000I-20000J0D01*
G01*
X7330000Y-8700000D02*
G75*
G03*
X7330000Y-8700000I-20000J0D01*
G01*
X7340000Y-7820000D02*
G75*
G03*
X7340000Y-7820000I-20000J0D01*
G01*
X7685000Y-4870000D02*
G75*
G03*
X7685000Y-4870000I-20000J0D01*
G01*
X7720000Y-6730000D02*
G75*
G03*
X7720000Y-6730000I-20000J0D01*
G01*
X7830000Y-7270000D02*
G75*
G03*
X7830000Y-7270000I-20000J0D01*
G01*
X7990000Y-9350000D02*
G75*
G03*
X7990000Y-9350000I-20000J0D01*
G01*
X8045000Y-15280000D02*
G75*
G03*
X8045000Y-15280000I-20000J0D01*
G01*
X8060000Y-10620000D02*
G75*
G03*
X8060000Y-10620000I-20000J0D01*
G01*
X8190000Y-14160000D02*
G75*
G03*
X8190000Y-14160000I-20000J0D01*
G01*
X8420000Y-12150000D02*
G75*
G03*
X8420000Y-12150000I-20000J0D01*
G01*
X8440000Y-6150000D02*
G75*
G03*
X8440000Y-6150000I-20000J0D01*
G01*
X8440000Y-6740000D02*
G75*
G03*
X8440000Y-6740000I-20000J0D01*
G01*
X8695000Y-12875000D02*
G75*
G03*
X8695000Y-12875000I-20000J0D01*
G01*
X8750000Y-13260000D02*
G75*
G03*
X8750000Y-13260000I-20000J0D01*
G01*
X8890000Y-11750000D02*
G75*
G03*
X8890000Y-11750000I-20000J0D01*
G01*
X8895000Y-6505000D02*
G75*
G03*
X8895000Y-6505000I-20000J0D01*
G01*
X8930000Y-8190000D02*
G75*
G03*
X8930000Y-8190000I-20000J0D01*
G01*
X8970000Y-6430000D02*
G75*
G03*
X8970000Y-6430000I-20000J0D01*
G01*
X8970000Y-6580000D02*
G75*
G03*
X8970000Y-6580000I-20000J0D01*
G01*
X9240198Y-12623800D02*
G75*
G03*
X9240198Y-12623800I-20000J0D01*
G01*
X9244988Y-6580011D02*
G75*
G03*
X9244988Y-6580011I-20000J0D01*
G01*
X9245000Y-6434599D02*
G75*
G03*
X9245000Y-6434599I-20000J0D01*
G01*
X9250000Y-6000000D02*
G75*
G03*
X9250000Y-6000000I-20000J0D01*
G01*
X9300000Y-6900000D02*
G75*
G03*
X9300000Y-6900000I-20000J0D01*
G01*
X9300000Y-7600000D02*
G75*
G03*
X9300000Y-7600000I-20000J0D01*
G01*
X9300000Y-8190000D02*
G75*
G03*
X9300000Y-8190000I-20000J0D01*
G01*
X9318945Y-6512701D02*
G75*
G03*
X9318945Y-6512701I-20000J0D01*
G01*
X9390000Y-6200000D02*
G75*
G03*
X9390000Y-6200000I-20000J0D01*
G01*
X9400000Y-5800000D02*
G75*
G03*
X9400000Y-5800000I-20000J0D01*
G01*
X9540000Y-13100000D02*
G75*
G03*
X9540000Y-13100000I-20000J0D01*
G01*
X9670000Y-5510000D02*
G75*
G03*
X9670000Y-5510000I-20000J0D01*
G01*
X9820000Y-4275000D02*
G75*
G03*
X9820000Y-4275000I-20000J0D01*
G01*
X9940000Y-5770000D02*
G75*
G03*
X9940000Y-5770000I-20000J0D01*
G01*
X10010000Y-8040000D02*
G75*
G03*
X10010000Y-8040000I-20000J0D01*
G01*
X10030000Y-6050000D02*
G75*
G03*
X10030000Y-6050000I-20000J0D01*
G01*
X10050000Y-4850000D02*
G75*
G03*
X10050000Y-4850000I-20000J0D01*
G01*
X10090000Y-7580000D02*
G75*
G03*
X10090000Y-7580000I-20000J0D01*
G01*
X10145000Y-6650000D02*
G75*
G03*
X10145000Y-6650000I-20000J0D01*
G01*
X10160000Y-6220000D02*
G75*
G03*
X10160000Y-6220000I-20000J0D01*
G01*
X10170000Y-12150000D02*
G75*
G03*
X10170000Y-12150000I-20000J0D01*
G01*
X10190000Y-4740000D02*
G75*
G03*
X10190000Y-4740000I-20000J0D01*
G01*
X10210000Y-13610000D02*
G75*
G03*
X10210000Y-13610000I-20000J0D01*
G01*
X10270000Y-15700000D02*
G75*
G03*
X10270000Y-15700000I-20000J0D01*
G01*
X10320000Y-4960000D02*
G75*
G03*
X10320000Y-4960000I-20000J0D01*
G01*
X10490000Y-4850000D02*
G75*
G03*
X10490000Y-4850000I-20000J0D01*
G01*
X10540000Y-5660000D02*
G75*
G03*
X10540000Y-5660000I-20000J0D01*
G01*
X11070000Y-6450000D02*
G75*
G03*
X11070000Y-6450000I-20000J0D01*
G01*
X11140000Y-7210000D02*
G75*
G03*
X11140000Y-7210000I-20000J0D01*
G01*
X11172700Y-6650000D02*
G75*
G03*
X11172700Y-6650000I-20000J0D01*
G01*
X11320000Y-12350000D02*
G75*
G03*
X11320000Y-12350000I-20000J0D01*
G01*
X11470000Y-14350000D02*
G75*
G03*
X11470000Y-14350000I-20000J0D01*
G01*
X11475400Y-11328400D02*
G75*
G03*
X11475400Y-11328400I-20000J0D01*
G01*
X11595000Y-13950000D02*
G75*
G03*
X11595000Y-13950000I-20000J0D01*
G01*
X11620000Y-14100000D02*
G75*
G03*
X11620000Y-14100000I-20000J0D01*
G01*
X11620000Y-14250000D02*
G75*
G03*
X11620000Y-14250000I-20000J0D01*
G01*
X11695000Y-12475000D02*
G75*
G03*
X11695000Y-12475000I-20000J0D01*
G01*
X11710000Y-10890000D02*
G75*
G03*
X11710000Y-10890000I-20000J0D01*
G01*
X11720000Y-12750000D02*
G75*
G03*
X11720000Y-12750000I-20000J0D01*
G01*
X11720000Y-13257500D02*
G75*
G03*
X11720000Y-13257500I-20000J0D01*
G01*
X11837300Y-13418800D02*
G75*
G03*
X11837300Y-13418800I-20000J0D01*
G01*
X11870000Y-7900000D02*
G75*
G03*
X11870000Y-7900000I-20000J0D01*
G01*
X11890000Y-6960000D02*
G75*
G03*
X11890000Y-6960000I-20000J0D01*
G01*
X11900000Y-10410000D02*
G75*
G03*
X11900000Y-10410000I-20000J0D01*
G01*
X11920000Y-10700000D02*
G75*
G03*
X11920000Y-10700000I-20000J0D01*
G01*
X11958000Y-11455400D02*
G75*
G03*
X11958000Y-11455400I-20000J0D01*
G01*
X11995000Y-4725000D02*
G75*
G03*
X11995000Y-4725000I-20000J0D01*
G01*
X12110400Y-10998200D02*
G75*
G03*
X12110400Y-10998200I-20000J0D01*
G01*
X12245000Y-13625000D02*
G75*
G03*
X12245000Y-13625000I-20000J0D01*
G01*
X12262800Y-11201400D02*
G75*
G03*
X12262800Y-11201400I-20000J0D01*
G01*
X12355000Y-15130000D02*
G75*
G03*
X12355000Y-15130000I-20000J0D01*
G01*
X12375131Y-11318377D02*
G75*
G03*
X12375131Y-11318377I-20000J0D01*
G01*
X12395000Y-8875000D02*
G75*
G03*
X12395000Y-8875000I-20000J0D01*
G01*
X12395000Y-9400000D02*
G75*
G03*
X12395000Y-9400000I-20000J0D01*
G01*
X12419400Y-10740000D02*
G75*
G03*
X12419400Y-10740000I-20000J0D01*
G01*
X12445067Y-10569199D02*
G75*
G03*
X12445067Y-10569199I-20000J0D01*
G01*
X12470000Y-11350000D02*
G75*
G03*
X12470000Y-11350000I-20000J0D01*
G01*
X12568939Y-11444157D02*
G75*
G03*
X12568939Y-11444157I-20000J0D01*
G01*
X12570000Y-12100000D02*
G75*
G03*
X12570000Y-12100000I-20000J0D01*
G01*
X12593593Y-11551407D02*
G75*
G03*
X12593593Y-11551407I-20000J0D01*
G01*
X12616011Y-10996011D02*
G75*
G03*
X12616011Y-10996011I-20000J0D01*
G01*
X12643800Y-10417030D02*
G75*
G03*
X12643800Y-10417030I-20000J0D01*
G01*
X12674520Y-10512196D02*
G75*
G03*
X12674520Y-10512196I-20000J0D01*
G01*
X12687300Y-12475000D02*
G75*
G03*
X12687300Y-12475000I-20000J0D01*
G01*
X12694751Y-13849406D02*
G75*
G03*
X12694751Y-13849406I-20000J0D01*
G01*
X12700000Y-9537500D02*
G75*
G03*
X12700000Y-9537500I-20000J0D01*
G01*
X12730000Y-12833350D02*
G75*
G03*
X12730000Y-12833350I-20000J0D01*
G01*
X12730000Y-12979400D02*
G75*
G03*
X12730000Y-12979400I-20000J0D01*
G01*
X12730000Y-13280000D02*
G75*
G03*
X12730000Y-13280000I-20000J0D01*
G01*
X12732700Y-12687300D02*
G75*
G03*
X12732700Y-12687300I-20000J0D01*
G01*
X12767701Y-9687251D02*
G75*
G03*
X12767701Y-9687251I-20000J0D01*
G01*
X12770000Y-11325000D02*
G75*
G03*
X12770000Y-11325000I-20000J0D01*
G01*
X12773731Y-10499656D02*
G75*
G03*
X12773731Y-10499656I-20000J0D01*
G01*
X12785000Y-10112500D02*
G75*
G03*
X12785000Y-10112500I-20000J0D01*
G01*
X12795000Y-8410000D02*
G75*
G03*
X12795000Y-8410000I-20000J0D01*
G01*
X12840402Y-9876063D02*
G75*
G03*
X12840402Y-9876063I-20000J0D01*
G01*
X12847300Y-10019800D02*
G75*
G03*
X12847300Y-10019800I-20000J0D01*
G01*
X12863054Y-9657118D02*
G75*
G03*
X12863054Y-9657118I-20000J0D01*
G01*
X12920000Y-11000000D02*
G75*
G03*
X12920000Y-11000000I-20000J0D01*
G01*
X12978593Y-11367299D02*
G75*
G03*
X12978593Y-11367299I-20000J0D01*
G01*
X13000000Y-11470000D02*
G75*
G03*
X13000000Y-11470000I-20000J0D01*
G01*
X13012700Y-10510000D02*
G75*
G03*
X13012700Y-10510000I-20000J0D01*
G01*
X13020000Y-10660000D02*
G75*
G03*
X13020000Y-10660000I-20000J0D01*
G01*
X13030000Y-12480000D02*
G75*
G03*
X13030000Y-12480000I-20000J0D01*
G01*
X13070000Y-8547300D02*
G75*
G03*
X13070000Y-8547300I-20000J0D01*
G01*
X13070000Y-8725000D02*
G75*
G03*
X13070000Y-8725000I-20000J0D01*
G01*
X13070000Y-9550000D02*
G75*
G03*
X13070000Y-9550000I-20000J0D01*
G01*
X13100000Y-8330000D02*
G75*
G03*
X13100000Y-8330000I-20000J0D01*
G01*
X13100000Y-10000000D02*
G75*
G03*
X13100000Y-10000000I-20000J0D01*
G01*
X13140000Y-12360000D02*
G75*
G03*
X13140000Y-12360000I-20000J0D01*
G01*
X13171600Y-12908800D02*
G75*
G03*
X13171600Y-12908800I-20000J0D01*
G01*
X13184716Y-12718716D02*
G75*
G03*
X13184716Y-12718716I-20000J0D01*
G01*
X13222400Y-12502400D02*
G75*
G03*
X13222400Y-12502400I-20000J0D01*
G01*
X13245000Y-9702800D02*
G75*
G03*
X13245000Y-9702800I-20000J0D01*
G01*
X13273200Y-12807200D02*
G75*
G03*
X13273200Y-12807200I-20000J0D01*
G01*
X13349400Y-12502400D02*
G75*
G03*
X13349400Y-12502400I-20000J0D01*
G01*
X13490000Y-10340000D02*
G75*
G03*
X13490000Y-10340000I-20000J0D01*
G01*
X13527200Y-12605300D02*
G75*
G03*
X13527200Y-12605300I-20000J0D01*
G01*
X13540000Y-10800000D02*
G75*
G03*
X13540000Y-10800000I-20000J0D01*
G01*
X13670000Y-9990000D02*
G75*
G03*
X13670000Y-9990000I-20000J0D01*
G01*
X13750000Y-8680000D02*
G75*
G03*
X13750000Y-8680000I-20000J0D01*
G01*
X13757011Y-12829734D02*
G75*
G03*
X13757011Y-12829734I-20000J0D01*
G01*
X13870000Y-5800000D02*
G75*
G03*
X13870000Y-5800000I-20000J0D01*
G01*
X13920000Y-11550000D02*
G75*
G03*
X13920000Y-11550000I-20000J0D01*
G01*
X13970000Y-10250000D02*
G75*
G03*
X13970000Y-10250000I-20000J0D01*
G01*
X14218601Y-13868400D02*
G75*
G03*
X14218601Y-13868400I-20000J0D01*
G01*
X15145000Y-7665000D02*
G75*
G03*
X15145000Y-7665000I-20000J0D01*
G01*
X15295000Y-11975000D02*
G75*
G03*
X15295000Y-11975000I-20000J0D01*
G01*
X15720000Y-9750000D02*
G75*
G03*
X15720000Y-9750000I-20000J0D01*
G01*
X7537100Y-9975000D02*
X7537100Y-10025000D01*
X7512100Y-10000000D02*
X7562100Y-10000000D01*
X7607394Y-9805294D02*
X7607394Y-9855294D01*
X7582394Y-9830294D02*
X7632394Y-9830294D01*
X7607394Y-10144706D02*
X7607394Y-10194706D01*
X7582394Y-10169706D02*
X7632394Y-10169706D01*
X7777100Y-9735000D02*
X7777100Y-9785000D01*
X7752100Y-9760000D02*
X7802100Y-9760000D01*
X7777100Y-10215000D02*
X7777100Y-10265000D01*
X7752100Y-10240000D02*
X7802100Y-10240000D01*
X7946806Y-9805294D02*
X7946806Y-9855294D01*
X7921806Y-9830294D02*
X7971806Y-9830294D01*
X7946806Y-10144706D02*
X7946806Y-10194706D01*
X7921806Y-10169706D02*
X7971806Y-10169706D01*
X8017100Y-9975000D02*
X8017100Y-10025000D01*
X7992100Y-10000000D02*
X8042100Y-10000000D01*
X8350000Y-13325000D02*
X8350000Y-13375000D01*
X8325000Y-13350000D02*
X8375000Y-13350000D01*
X8540000Y-13325000D02*
X8540000Y-13375000D01*
X8515000Y-13350000D02*
X8565000Y-13350000D01*
X10871400Y-8049900D02*
X10871400Y-8099900D01*
X10846400Y-8074900D02*
X10896400Y-8074900D01*
X10871400Y-11900100D02*
X10871400Y-11950100D01*
X10846400Y-11925100D02*
X10896400Y-11925100D01*
X10941694Y-7880194D02*
X10941694Y-7930194D01*
X10916694Y-7905194D02*
X10966694Y-7905194D01*
X10941694Y-8219606D02*
X10941694Y-8269606D01*
X10916694Y-8244606D02*
X10966694Y-8244606D01*
X10941694Y-11730394D02*
X10941694Y-11780394D01*
X10916694Y-11755394D02*
X10966694Y-11755394D01*
X10941694Y-12069806D02*
X10941694Y-12119806D01*
X10916694Y-12094806D02*
X10966694Y-12094806D01*
X11111400Y-7809900D02*
X11111400Y-7859900D01*
X11086400Y-7834900D02*
X11136400Y-7834900D01*
X11111400Y-8289900D02*
X11111400Y-8339900D01*
X11086400Y-8314900D02*
X11136400Y-8314900D01*
X11111400Y-11660100D02*
X11111400Y-11710100D01*
X11086400Y-11685100D02*
X11136400Y-11685100D01*
X11111400Y-12140100D02*
X11111400Y-12190100D01*
X11086400Y-12165100D02*
X11136400Y-12165100D01*
X11281106Y-7880194D02*
X11281106Y-7930194D01*
X11256106Y-7905194D02*
X11306106Y-7905194D01*
X11281106Y-8219606D02*
X11281106Y-8269606D01*
X11256106Y-8244606D02*
X11306106Y-8244606D01*
X11281106Y-11730394D02*
X11281106Y-11780394D01*
X11256106Y-11755394D02*
X11306106Y-11755394D01*
X11281106Y-12069806D02*
X11281106Y-12119806D01*
X11256106Y-12094806D02*
X11306106Y-12094806D01*
X11351400Y-8049900D02*
X11351400Y-8099900D01*
X11326400Y-8074900D02*
X11376400Y-8074900D01*
X11351400Y-11900100D02*
X11351400Y-11950100D01*
X11326400Y-11925100D02*
X11376400Y-11925100D01*
X14185481Y-8927481D02*
X14185481Y-8881519D01*
X14139519Y-8881519D01*
X14139519Y-8927481D01*
X14185481Y-8927481D01*
X14182500Y-8882000D02*
X14142500Y-8882000D01*
X14182500Y-8927000D02*
X14142500Y-8927000D01*
X14142500Y-8882000D02*
G75*
G03*
X14142500Y-8927000I0J-22500D01*
G01*
X14182500Y-8927000D02*
G75*
G03*
X14182500Y-8882000I0J22500D01*
G01*
X14185481Y-9411481D02*
X14185481Y-9365519D01*
X14139519Y-9365519D01*
X14139519Y-9411481D01*
X14185481Y-9411481D01*
X14182500Y-9366000D02*
X14142500Y-9366000D01*
X14182500Y-9411000D02*
X14142500Y-9411000D01*
X14142500Y-9366000D02*
G75*
G03*
X14142500Y-9411000I0J-22500D01*
G01*
X14182500Y-9411000D02*
G75*
G03*
X14182500Y-9366000I0J22500D01*
G01*
X14462500Y-8908500D02*
X14497500Y-8873500D01*
X14462500Y-8838500D01*
X14427500Y-8873500D01*
X14462500Y-8908500D01*
X14487500Y-8848500D02*
X14437500Y-8848500D01*
X14487500Y-8898500D02*
X14437500Y-8898500D01*
X14437500Y-8848500D02*
G75*
G03*
X14437500Y-8898500I0J-25000D01*
G01*
X14487500Y-8898500D02*
G75*
G03*
X14487500Y-8848500I0J25000D01*
G01*
X14462500Y-9454500D02*
X14497500Y-9419500D01*
X14462500Y-9384500D01*
X14427500Y-9419500D01*
X14462500Y-9454500D01*
X14487500Y-9394500D02*
X14437500Y-9394500D01*
X14487500Y-9444500D02*
X14437500Y-9444500D01*
X14437500Y-9394500D02*
G75*
G03*
X14437500Y-9444500I0J-25000D01*
G01*
X14487500Y-9444500D02*
G75*
G03*
X14487500Y-9394500I0J25000D01*
G01*
X9211900Y-8761900D02*
X9288100Y-8838100D01*
X9288100Y-8761900D02*
X9211900Y-8838100D01*
X9288100Y-8800000D02*
G75*
G03*
X9288100Y-8800000I-38100J0D01*
G01*
X9511900Y-9261900D02*
X9588100Y-9338100D01*
X9588100Y-9261900D02*
X9511900Y-9338100D01*
X9588100Y-9300000D02*
G75*
G03*
X9588100Y-9300000I-38100J0D01*
G01*
X9811900Y-9261900D02*
X9888100Y-9338100D01*
X9888100Y-9261900D02*
X9811900Y-9338100D01*
X9888100Y-9300000D02*
G75*
G03*
X9888100Y-9300000I-38100J0D01*
G01*
X9851900Y-10561900D02*
X9928100Y-10638100D01*
X9928100Y-10561900D02*
X9851900Y-10638100D01*
X9928100Y-10600000D02*
G75*
G03*
X9928100Y-10600000I-38100J0D01*
G01*
X9851900Y-10815900D02*
X9928100Y-10892100D01*
X9928100Y-10815900D02*
X9851900Y-10892100D01*
X9928100Y-10854000D02*
G75*
G03*
X9928100Y-10854000I-38100J0D01*
G01*
X10071900Y-10561900D02*
X10148100Y-10638100D01*
X10148100Y-10561900D02*
X10071900Y-10638100D01*
X10148100Y-10600000D02*
G75*
G03*
X10148100Y-10600000I-38100J0D01*
G01*
X10071900Y-10815900D02*
X10148100Y-10892100D01*
X10148100Y-10815900D02*
X10071900Y-10892100D01*
X10148100Y-10854000D02*
G75*
G03*
X10148100Y-10854000I-38100J0D01*
G01*
X10111900Y-9261900D02*
X10188100Y-9338100D01*
X10188100Y-9261900D02*
X10111900Y-9338100D01*
X10188100Y-9300000D02*
G75*
G03*
X10188100Y-9300000I-38100J0D01*
G01*
X10411900Y-9261900D02*
X10488100Y-9338100D01*
X10488100Y-9261900D02*
X10411900Y-9338100D01*
X10488100Y-9300000D02*
G75*
G03*
X10488100Y-9300000I-38100J0D01*
G01*
X10711900Y-8761900D02*
X10788100Y-8838100D01*
X10788100Y-8761900D02*
X10711900Y-8838100D01*
X10788100Y-8800000D02*
G75*
G03*
X10788100Y-8800000I-38100J0D01*
G01*
X9960000Y-13810000D02*
X10040000Y-13890000D01*
X10040000Y-13810000D02*
X9960000Y-13890000D01*
X10000000Y-13810000D02*
X10000000Y-13890000D01*
X9960000Y-13850000D02*
X10040000Y-13850000D01*
X9870000Y-13880000D02*
X10130000Y-13880000D01*
X9870000Y-13820000D02*
X10130000Y-13820000D01*
X10130000Y-13880000D02*
G75*
G03*
X10130000Y-13820000I0J30000D01*
G01*
X9870000Y-13820000D02*
G75*
G03*
X9870000Y-13880000I0J-30000D01*
G01*
X9960000Y-14390000D02*
X10040000Y-14470000D01*
X10040000Y-14390000D02*
X9960000Y-14470000D01*
X10000000Y-14390000D02*
X10000000Y-14470000D01*
X9960000Y-14430000D02*
X10040000Y-14430000D01*
X9890000Y-14460000D02*
X10110000Y-14460000D01*
X9890000Y-14400000D02*
X10110000Y-14400000D01*
X10110000Y-14460000D02*
G75*
G03*
X10110000Y-14400000I0J30000D01*
G01*
X9890000Y-14400000D02*
G75*
G03*
X9890000Y-14460000I0J-30000D01*
G01*
X10440000Y-14110000D02*
X10520000Y-14190000D01*
X10520000Y-14110000D02*
X10440000Y-14190000D01*
X10480000Y-14110000D02*
X10480000Y-14190000D01*
X10440000Y-14150000D02*
X10520000Y-14150000D01*
X10510000Y-14260000D02*
X10510000Y-14040000D01*
X10450000Y-14260000D02*
X10450000Y-14040000D01*
X10510000Y-14040000D02*
G75*
G03*
X10450000Y-14040000I-30000J0D01*
G01*
X10450000Y-14260000D02*
G75*
G03*
X10510000Y-14260000I30000J0D01*
G01*
X9500000Y-6909600D02*
X9600000Y-7009600D01*
X9600000Y-6909600D02*
X9500000Y-7009600D01*
X9585356Y-6994956D02*
X9585356Y-6924244D01*
X9514644Y-6924244D01*
X9514644Y-6994956D01*
X9585356Y-6994956D01*
X9500000Y-7163600D02*
X9600000Y-7263600D01*
X9600000Y-7163600D02*
X9500000Y-7263600D01*
X9585356Y-7248956D02*
X9585356Y-7178244D01*
X9514644Y-7178244D01*
X9514644Y-7248956D01*
X9585356Y-7248956D01*
X9500000Y-10546000D02*
X9600000Y-10646000D01*
X9600000Y-10546000D02*
X9500000Y-10646000D01*
X9585356Y-10631356D02*
X9585356Y-10560644D01*
X9514644Y-10560644D01*
X9514644Y-10631356D01*
X9585356Y-10631356D01*
X9500000Y-10800000D02*
X9600000Y-10900000D01*
X9600000Y-10800000D02*
X9500000Y-10900000D01*
X9585356Y-10885356D02*
X9585356Y-10814644D01*
X9514644Y-10814644D01*
X9514644Y-10885356D01*
X9585356Y-10885356D01*
X9569000Y-9550000D02*
X9669000Y-9650000D01*
X9669000Y-9550000D02*
X9569000Y-9650000D01*
X9654356Y-9635356D02*
X9654356Y-9564644D01*
X9583644Y-9564644D01*
X9583644Y-9635356D01*
X9654356Y-9635356D01*
X9569000Y-12850000D02*
X9669000Y-12950000D01*
X9669000Y-12850000D02*
X9569000Y-12950000D01*
X9654356Y-12935356D02*
X9654356Y-12864644D01*
X9583644Y-12864644D01*
X9583644Y-12935356D01*
X9654356Y-12935356D01*
X9823000Y-5400000D02*
X9923000Y-5500000D01*
X9923000Y-5400000D02*
X9823000Y-5500000D01*
X9908356Y-5485356D02*
X9908356Y-5414644D01*
X9837644Y-5414644D01*
X9837644Y-5485356D01*
X9908356Y-5485356D01*
X9823000Y-9550000D02*
X9923000Y-9650000D01*
X9923000Y-9550000D02*
X9823000Y-9650000D01*
X9908356Y-9635356D02*
X9908356Y-9564644D01*
X9837644Y-9564644D01*
X9837644Y-9635356D01*
X9908356Y-9635356D01*
X9823000Y-12850000D02*
X9923000Y-12950000D01*
X9923000Y-12850000D02*
X9823000Y-12950000D01*
X9908356Y-12935356D02*
X9908356Y-12864644D01*
X9837644Y-12864644D01*
X9837644Y-12935356D01*
X9908356Y-12935356D01*
X10077000Y-5400000D02*
X10177000Y-5500000D01*
X10177000Y-5400000D02*
X10077000Y-5500000D01*
X10162356Y-5485356D02*
X10162356Y-5414644D01*
X10091644Y-5414644D01*
X10091644Y-5485356D01*
X10162356Y-5485356D01*
X10077000Y-9550000D02*
X10177000Y-9650000D01*
X10177000Y-9550000D02*
X10077000Y-9650000D01*
X10162356Y-9635356D02*
X10162356Y-9564644D01*
X10091644Y-9564644D01*
X10091644Y-9635356D01*
X10162356Y-9635356D01*
X10077000Y-12850000D02*
X10177000Y-12950000D01*
X10177000Y-12850000D02*
X10077000Y-12950000D01*
X10162356Y-12935356D02*
X10162356Y-12864644D01*
X10091644Y-12864644D01*
X10091644Y-12935356D01*
X10162356Y-12935356D01*
X10331000Y-9550000D02*
X10431000Y-9650000D01*
X10431000Y-9550000D02*
X10331000Y-9650000D01*
X10416356Y-9635356D02*
X10416356Y-9564644D01*
X10345644Y-9564644D01*
X10345644Y-9635356D01*
X10416356Y-9635356D01*
X10331000Y-12850000D02*
X10431000Y-12950000D01*
X10431000Y-12850000D02*
X10331000Y-12950000D01*
X10416356Y-12935356D02*
X10416356Y-12864644D01*
X10345644Y-12864644D01*
X10345644Y-12935356D01*
X10416356Y-12935356D01*
X10400000Y-6909600D02*
X10500000Y-7009600D01*
X10500000Y-6909600D02*
X10400000Y-7009600D01*
X10485356Y-6994956D02*
X10485356Y-6924244D01*
X10414644Y-6924244D01*
X10414644Y-6994956D01*
X10485356Y-6994956D01*
X10400000Y-7163600D02*
X10500000Y-7263600D01*
X10500000Y-7163600D02*
X10400000Y-7263600D01*
X10485356Y-7248956D02*
X10485356Y-7178244D01*
X10414644Y-7178244D01*
X10414644Y-7248956D01*
X10485356Y-7248956D01*
X10400000Y-10546000D02*
X10500000Y-10646000D01*
X10500000Y-10546000D02*
X10400000Y-10646000D01*
X10485356Y-10631356D02*
X10485356Y-10560644D01*
X10414644Y-10560644D01*
X10414644Y-10631356D01*
X10485356Y-10631356D01*
X10400000Y-10800000D02*
X10500000Y-10900000D01*
X10500000Y-10800000D02*
X10400000Y-10900000D01*
X10485356Y-10885356D02*
X10485356Y-10814644D01*
X10414644Y-10814644D01*
X10414644Y-10885356D01*
X10485356Y-10885356D01*
X13841000Y-10597000D02*
X13941000Y-10697000D01*
X13941000Y-10597000D02*
X13841000Y-10697000D01*
X13926356Y-10682356D02*
X13926356Y-10611644D01*
X13855644Y-10611644D01*
X13855644Y-10682356D01*
X13926356Y-10682356D01*
X13841000Y-10851000D02*
X13941000Y-10951000D01*
X13941000Y-10851000D02*
X13841000Y-10951000D01*
X13926356Y-10936356D02*
X13926356Y-10865644D01*
X13855644Y-10865644D01*
X13855644Y-10936356D01*
X13926356Y-10936356D01*
X13841000Y-11105000D02*
X13941000Y-11205000D01*
X13941000Y-11105000D02*
X13841000Y-11205000D01*
X13926356Y-11190356D02*
X13926356Y-11119644D01*
X13855644Y-11119644D01*
X13855644Y-11190356D01*
X13926356Y-11190356D01*
X14095000Y-10597000D02*
X14195000Y-10697000D01*
X14195000Y-10597000D02*
X14095000Y-10697000D01*
X14180356Y-10682356D02*
X14180356Y-10611644D01*
X14109644Y-10611644D01*
X14109644Y-10682356D01*
X14180356Y-10682356D01*
X14095000Y-10851000D02*
X14195000Y-10951000D01*
X14195000Y-10851000D02*
X14095000Y-10951000D01*
X14180356Y-10936356D02*
X14180356Y-10865644D01*
X14109644Y-10865644D01*
X14109644Y-10936356D01*
X14180356Y-10936356D01*
X14095000Y-11105000D02*
X14195000Y-11205000D01*
X14195000Y-11105000D02*
X14095000Y-11205000D01*
X14180356Y-11190356D02*
X14180356Y-11119644D01*
X14109644Y-11119644D01*
X14109644Y-11190356D01*
X14180356Y-11190356D01*
X7617100Y-9840000D02*
X7937100Y-10160000D01*
X7937100Y-9840000D02*
X7617100Y-10160000D01*
X7777100Y-10160000D02*
X7937100Y-10000000D01*
X7777100Y-9840000D01*
X7617100Y-10000000D01*
X7777100Y-10160000D01*
X10951400Y-7914900D02*
X11271400Y-8234900D01*
X11271400Y-7914900D02*
X10951400Y-8234900D01*
X11111400Y-8234900D02*
X11271400Y-8074900D01*
X11111400Y-7914900D01*
X10951400Y-8074900D01*
X11111400Y-8234900D01*
X10951400Y-11765100D02*
X11271400Y-12085100D01*
X11271400Y-11765100D02*
X10951400Y-12085100D01*
X11111400Y-12085100D02*
X11271400Y-11925100D01*
X11111400Y-11765100D01*
X10951400Y-11925100D01*
X11111400Y-12085100D01*
D12*
X4133928Y-16618214D02*
X4133928Y-16318214D01*
X4205357Y-16318214D01*
X4248214Y-16332500D01*
X4276786Y-16361071D01*
X4291071Y-16389643D01*
X4305357Y-16446786D01*
X4305357Y-16489643D01*
X4291071Y-16546786D01*
X4276786Y-16575357D01*
X4248214Y-16603929D01*
X4205357Y-16618214D01*
X4133928Y-16618214D01*
X4433928Y-16618214D02*
X4433928Y-16418214D01*
X4433928Y-16475357D02*
X4448214Y-16446786D01*
X4462500Y-16432500D01*
X4491071Y-16418214D01*
X4519643Y-16418214D01*
X4619643Y-16618214D02*
X4619643Y-16418214D01*
X4619643Y-16318214D02*
X4605357Y-16332500D01*
X4619643Y-16346786D01*
X4633928Y-16332500D01*
X4619643Y-16318214D01*
X4619643Y-16346786D01*
X4805357Y-16618214D02*
X4776786Y-16603929D01*
X4762500Y-16575357D01*
X4762500Y-16318214D01*
X4962500Y-16618214D02*
X4933928Y-16603929D01*
X4919643Y-16575357D01*
X4919643Y-16318214D01*
X5305357Y-16618214D02*
X5305357Y-16318214D01*
X5405357Y-16532500D01*
X5505357Y-16318214D01*
X5505357Y-16618214D01*
X5776786Y-16618214D02*
X5776786Y-16461071D01*
X5762500Y-16432500D01*
X5733928Y-16418214D01*
X5676786Y-16418214D01*
X5648214Y-16432500D01*
X5776786Y-16603929D02*
X5748214Y-16618214D01*
X5676786Y-16618214D01*
X5648214Y-16603929D01*
X5633928Y-16575357D01*
X5633928Y-16546786D01*
X5648214Y-16518214D01*
X5676786Y-16503929D01*
X5748214Y-16503929D01*
X5776786Y-16489643D01*
X5919643Y-16418214D02*
X5919643Y-16718214D01*
X5919643Y-16432500D02*
X5948214Y-16418214D01*
X6005357Y-16418214D01*
X6033928Y-16432500D01*
X6048214Y-16446786D01*
X6062500Y-16475357D01*
X6062500Y-16561071D01*
X6048214Y-16589643D01*
X6033928Y-16603929D01*
X6005357Y-16618214D01*
X5948214Y-16618214D01*
X5919643Y-16603929D01*
X6191071Y-16589643D02*
X6205357Y-16603929D01*
X6191071Y-16618214D01*
X6176786Y-16603929D01*
X6191071Y-16589643D01*
X6191071Y-16618214D01*
X6191071Y-16432500D02*
X6205357Y-16446786D01*
X6191071Y-16461071D01*
X6176786Y-16446786D01*
X6191071Y-16432500D01*
X6191071Y-16461071D01*
X3817500Y-17097500D02*
X3847500Y-17127500D01*
X3847500Y-17097500D02*
X3817500Y-17127500D01*
X4191071Y-16948214D02*
X4219643Y-16948214D01*
X4248214Y-16962500D01*
X4262500Y-16976786D01*
X4276786Y-17005357D01*
X4291071Y-17062500D01*
X4291071Y-17133929D01*
X4276786Y-17191072D01*
X4262500Y-17219643D01*
X4248214Y-17233929D01*
X4219643Y-17248214D01*
X4191071Y-17248214D01*
X4162500Y-17233929D01*
X4148214Y-17219643D01*
X4133928Y-17191072D01*
X4119643Y-17133929D01*
X4119643Y-17062500D01*
X4133928Y-17005357D01*
X4148214Y-16976786D01*
X4162500Y-16962500D01*
X4191071Y-16948214D01*
X4419643Y-17219643D02*
X4433928Y-17233929D01*
X4419643Y-17248214D01*
X4405357Y-17233929D01*
X4419643Y-17219643D01*
X4419643Y-17248214D01*
X4533928Y-16948214D02*
X4719643Y-16948214D01*
X4619643Y-17062500D01*
X4662500Y-17062500D01*
X4691071Y-17076786D01*
X4705357Y-17091072D01*
X4719643Y-17119643D01*
X4719643Y-17191072D01*
X4705357Y-17219643D01*
X4691071Y-17233929D01*
X4662500Y-17248214D01*
X4576786Y-17248214D01*
X4548214Y-17233929D01*
X4533928Y-17219643D01*
X4905357Y-16948214D02*
X4933928Y-16948214D01*
X4962500Y-16962500D01*
X4976786Y-16976786D01*
X4991071Y-17005357D01*
X5005357Y-17062500D01*
X5005357Y-17133929D01*
X4991071Y-17191072D01*
X4976786Y-17219643D01*
X4962500Y-17233929D01*
X4933928Y-17248214D01*
X4905357Y-17248214D01*
X4876786Y-17233929D01*
X4862500Y-17219643D01*
X4848214Y-17191072D01*
X4833928Y-17133929D01*
X4833928Y-17062500D01*
X4848214Y-17005357D01*
X4862500Y-16976786D01*
X4876786Y-16962500D01*
X4905357Y-16948214D01*
X5191071Y-16948214D02*
X5219643Y-16948214D01*
X5248214Y-16962500D01*
X5262500Y-16976786D01*
X5276786Y-17005357D01*
X5291071Y-17062500D01*
X5291071Y-17133929D01*
X5276786Y-17191072D01*
X5262500Y-17219643D01*
X5248214Y-17233929D01*
X5219643Y-17248214D01*
X5191071Y-17248214D01*
X5162500Y-17233929D01*
X5148214Y-17219643D01*
X5133928Y-17191072D01*
X5119643Y-17133929D01*
X5119643Y-17062500D01*
X5133928Y-17005357D01*
X5148214Y-16976786D01*
X5162500Y-16962500D01*
X5191071Y-16948214D01*
X5419643Y-17248214D02*
X5419643Y-17048214D01*
X5419643Y-17076786D02*
X5433928Y-17062500D01*
X5462500Y-17048214D01*
X5505357Y-17048214D01*
X5533928Y-17062500D01*
X5548214Y-17091072D01*
X5548214Y-17248214D01*
X5548214Y-17091072D02*
X5562500Y-17062500D01*
X5591071Y-17048214D01*
X5633928Y-17048214D01*
X5662500Y-17062500D01*
X5676786Y-17091072D01*
X5676786Y-17248214D01*
X5819643Y-17248214D02*
X5819643Y-17048214D01*
X5819643Y-17076786D02*
X5833928Y-17062500D01*
X5862500Y-17048214D01*
X5905357Y-17048214D01*
X5933928Y-17062500D01*
X5948214Y-17091072D01*
X5948214Y-17248214D01*
X5948214Y-17091072D02*
X5962500Y-17062500D01*
X5991071Y-17048214D01*
X6033928Y-17048214D01*
X6062500Y-17062500D01*
X6076786Y-17091072D01*
X6076786Y-17248214D01*
X6662500Y-16933929D02*
X6405357Y-17319643D01*
X7048214Y-16948214D02*
X7076786Y-16948214D01*
X7105357Y-16962500D01*
X7119643Y-16976786D01*
X7133928Y-17005357D01*
X7148214Y-17062500D01*
X7148214Y-17133929D01*
X7133928Y-17191072D01*
X7119643Y-17219643D01*
X7105357Y-17233929D01*
X7076786Y-17248214D01*
X7048214Y-17248214D01*
X7019643Y-17233929D01*
X7005357Y-17219643D01*
X6991071Y-17191072D01*
X6976786Y-17133929D01*
X6976786Y-17062500D01*
X6991071Y-17005357D01*
X7005357Y-16976786D01*
X7019643Y-16962500D01*
X7048214Y-16948214D01*
X7276786Y-17219643D02*
X7291071Y-17233929D01*
X7276786Y-17248214D01*
X7262500Y-17233929D01*
X7276786Y-17219643D01*
X7276786Y-17248214D01*
X7476786Y-16948214D02*
X7505357Y-16948214D01*
X7533928Y-16962500D01*
X7548214Y-16976786D01*
X7562500Y-17005357D01*
X7576786Y-17062500D01*
X7576786Y-17133929D01*
X7562500Y-17191072D01*
X7548214Y-17219643D01*
X7533928Y-17233929D01*
X7505357Y-17248214D01*
X7476786Y-17248214D01*
X7448214Y-17233929D01*
X7433928Y-17219643D01*
X7419643Y-17191072D01*
X7405357Y-17133929D01*
X7405357Y-17062500D01*
X7419643Y-17005357D01*
X7433928Y-16976786D01*
X7448214Y-16962500D01*
X7476786Y-16948214D01*
X7862500Y-17248214D02*
X7691071Y-17248214D01*
X7776786Y-17248214D02*
X7776786Y-16948214D01*
X7748214Y-16991072D01*
X7719643Y-17019643D01*
X7691071Y-17033929D01*
X8148214Y-17248214D02*
X7976786Y-17248214D01*
X8062500Y-17248214D02*
X8062500Y-16948214D01*
X8033928Y-16991072D01*
X8005357Y-17019643D01*
X7976786Y-17033929D01*
X8319643Y-17076786D02*
X8291071Y-17062500D01*
X8276786Y-17048214D01*
X8262500Y-17019643D01*
X8262500Y-17005357D01*
X8276786Y-16976786D01*
X8291071Y-16962500D01*
X8319643Y-16948214D01*
X8376786Y-16948214D01*
X8405357Y-16962500D01*
X8419643Y-16976786D01*
X8433928Y-17005357D01*
X8433928Y-17019643D01*
X8419643Y-17048214D01*
X8405357Y-17062500D01*
X8376786Y-17076786D01*
X8319643Y-17076786D01*
X8291071Y-17091072D01*
X8276786Y-17105357D01*
X8262500Y-17133929D01*
X8262500Y-17191072D01*
X8276786Y-17219643D01*
X8291071Y-17233929D01*
X8319643Y-17248214D01*
X8376786Y-17248214D01*
X8405357Y-17233929D01*
X8419643Y-17219643D01*
X8433928Y-17191072D01*
X8433928Y-17133929D01*
X8419643Y-17105357D01*
X8405357Y-17091072D01*
X8376786Y-17076786D01*
X8548214Y-16948214D02*
X8548214Y-17005357D01*
X8662500Y-16948214D02*
X8662500Y-17005357D01*
X9105357Y-17362500D02*
X9091071Y-17348214D01*
X9062500Y-17305357D01*
X9048214Y-17276786D01*
X9033928Y-17233929D01*
X9019643Y-17162500D01*
X9019643Y-17105357D01*
X9033928Y-17033929D01*
X9048214Y-16991072D01*
X9062500Y-16962500D01*
X9091071Y-16919643D01*
X9105357Y-16905357D01*
X9376786Y-17248214D02*
X9205357Y-17248214D01*
X9291071Y-17248214D02*
X9291071Y-16948214D01*
X9262500Y-16991072D01*
X9233928Y-17019643D01*
X9205357Y-17033929D01*
X9548214Y-17076786D02*
X9519643Y-17062500D01*
X9505357Y-17048214D01*
X9491071Y-17019643D01*
X9491071Y-17005357D01*
X9505357Y-16976786D01*
X9519643Y-16962500D01*
X9548214Y-16948214D01*
X9605357Y-16948214D01*
X9633928Y-16962500D01*
X9648214Y-16976786D01*
X9662500Y-17005357D01*
X9662500Y-17019643D01*
X9648214Y-17048214D01*
X9633928Y-17062500D01*
X9605357Y-17076786D01*
X9548214Y-17076786D01*
X9519643Y-17091072D01*
X9505357Y-17105357D01*
X9491071Y-17133929D01*
X9491071Y-17191072D01*
X9505357Y-17219643D01*
X9519643Y-17233929D01*
X9548214Y-17248214D01*
X9605357Y-17248214D01*
X9633928Y-17233929D01*
X9648214Y-17219643D01*
X9662500Y-17191072D01*
X9662500Y-17133929D01*
X9648214Y-17105357D01*
X9633928Y-17091072D01*
X9605357Y-17076786D01*
X10019643Y-17248214D02*
X10019643Y-16948214D01*
X10148214Y-17248214D02*
X10148214Y-17091072D01*
X10133928Y-17062500D01*
X10105357Y-17048214D01*
X10062500Y-17048214D01*
X10033928Y-17062500D01*
X10019643Y-17076786D01*
X10333928Y-17248214D02*
X10305357Y-17233929D01*
X10291071Y-17219643D01*
X10276786Y-17191072D01*
X10276786Y-17105357D01*
X10291071Y-17076786D01*
X10305357Y-17062500D01*
X10333928Y-17048214D01*
X10376786Y-17048214D01*
X10405357Y-17062500D01*
X10419643Y-17076786D01*
X10433928Y-17105357D01*
X10433928Y-17191072D01*
X10419643Y-17219643D01*
X10405357Y-17233929D01*
X10376786Y-17248214D01*
X10333928Y-17248214D01*
X10605357Y-17248214D02*
X10576786Y-17233929D01*
X10562500Y-17205357D01*
X10562500Y-16948214D01*
X10833928Y-17233929D02*
X10805357Y-17248214D01*
X10748214Y-17248214D01*
X10719643Y-17233929D01*
X10705357Y-17205357D01*
X10705357Y-17091072D01*
X10719643Y-17062500D01*
X10748214Y-17048214D01*
X10805357Y-17048214D01*
X10833928Y-17062500D01*
X10848214Y-17091072D01*
X10848214Y-17119643D01*
X10705357Y-17148214D01*
X10962500Y-17233929D02*
X10991071Y-17248214D01*
X11048214Y-17248214D01*
X11076786Y-17233929D01*
X11091071Y-17205357D01*
X11091071Y-17191072D01*
X11076786Y-17162500D01*
X11048214Y-17148214D01*
X11005357Y-17148214D01*
X10976786Y-17133929D01*
X10962500Y-17105357D01*
X10962500Y-17091072D01*
X10976786Y-17062500D01*
X11005357Y-17048214D01*
X11048214Y-17048214D01*
X11076786Y-17062500D01*
X11191071Y-17362500D02*
X11205357Y-17348214D01*
X11233928Y-17305357D01*
X11248214Y-17276786D01*
X11262500Y-17233929D01*
X11276786Y-17162500D01*
X11276786Y-17105357D01*
X11262500Y-17033929D01*
X11248214Y-16991072D01*
X11233928Y-16962500D01*
X11205357Y-16919643D01*
X11191071Y-16905357D01*
X3847500Y-17508500D02*
G75*
G03*
X3847500Y-17508500I-20000J0D01*
G01*
X4191071Y-17344214D02*
X4219643Y-17344214D01*
X4248214Y-17358500D01*
X4262500Y-17372786D01*
X4276786Y-17401357D01*
X4291071Y-17458500D01*
X4291071Y-17529929D01*
X4276786Y-17587072D01*
X4262500Y-17615643D01*
X4248214Y-17629929D01*
X4219643Y-17644214D01*
X4191071Y-17644214D01*
X4162500Y-17629929D01*
X4148214Y-17615643D01*
X4133928Y-17587072D01*
X4119643Y-17529929D01*
X4119643Y-17458500D01*
X4133928Y-17401357D01*
X4148214Y-17372786D01*
X4162500Y-17358500D01*
X4191071Y-17344214D01*
X4419643Y-17615643D02*
X4433928Y-17629929D01*
X4419643Y-17644214D01*
X4405357Y-17629929D01*
X4419643Y-17615643D01*
X4419643Y-17644214D01*
X4691071Y-17444214D02*
X4691071Y-17644214D01*
X4619643Y-17329929D02*
X4548214Y-17544214D01*
X4733928Y-17544214D01*
X4905357Y-17344214D02*
X4933928Y-17344214D01*
X4962500Y-17358500D01*
X4976786Y-17372786D01*
X4991071Y-17401357D01*
X5005357Y-17458500D01*
X5005357Y-17529929D01*
X4991071Y-17587072D01*
X4976786Y-17615643D01*
X4962500Y-17629929D01*
X4933928Y-17644214D01*
X4905357Y-17644214D01*
X4876786Y-17629929D01*
X4862500Y-17615643D01*
X4848214Y-17587072D01*
X4833928Y-17529929D01*
X4833928Y-17458500D01*
X4848214Y-17401357D01*
X4862500Y-17372786D01*
X4876786Y-17358500D01*
X4905357Y-17344214D01*
X5191071Y-17344214D02*
X5219643Y-17344214D01*
X5248214Y-17358500D01*
X5262500Y-17372786D01*
X5276786Y-17401357D01*
X5291071Y-17458500D01*
X5291071Y-17529929D01*
X5276786Y-17587072D01*
X5262500Y-17615643D01*
X5248214Y-17629929D01*
X5219643Y-17644214D01*
X5191071Y-17644214D01*
X5162500Y-17629929D01*
X5148214Y-17615643D01*
X5133928Y-17587072D01*
X5119643Y-17529929D01*
X5119643Y-17458500D01*
X5133928Y-17401357D01*
X5148214Y-17372786D01*
X5162500Y-17358500D01*
X5191071Y-17344214D01*
X5419643Y-17644214D02*
X5419643Y-17444214D01*
X5419643Y-17472786D02*
X5433928Y-17458500D01*
X5462500Y-17444214D01*
X5505357Y-17444214D01*
X5533928Y-17458500D01*
X5548214Y-17487072D01*
X5548214Y-17644214D01*
X5548214Y-17487072D02*
X5562500Y-17458500D01*
X5591071Y-17444214D01*
X5633928Y-17444214D01*
X5662500Y-17458500D01*
X5676786Y-17487072D01*
X5676786Y-17644214D01*
X5819643Y-17644214D02*
X5819643Y-17444214D01*
X5819643Y-17472786D02*
X5833928Y-17458500D01*
X5862500Y-17444214D01*
X5905357Y-17444214D01*
X5933928Y-17458500D01*
X5948214Y-17487072D01*
X5948214Y-17644214D01*
X5948214Y-17487072D02*
X5962500Y-17458500D01*
X5991071Y-17444214D01*
X6033928Y-17444214D01*
X6062500Y-17458500D01*
X6076786Y-17487072D01*
X6076786Y-17644214D01*
X6662500Y-17329929D02*
X6405357Y-17715643D01*
X7048214Y-17344214D02*
X7076786Y-17344214D01*
X7105357Y-17358500D01*
X7119643Y-17372786D01*
X7133928Y-17401357D01*
X7148214Y-17458500D01*
X7148214Y-17529929D01*
X7133928Y-17587072D01*
X7119643Y-17615643D01*
X7105357Y-17629929D01*
X7076786Y-17644214D01*
X7048214Y-17644214D01*
X7019643Y-17629929D01*
X7005357Y-17615643D01*
X6991071Y-17587072D01*
X6976786Y-17529929D01*
X6976786Y-17458500D01*
X6991071Y-17401357D01*
X7005357Y-17372786D01*
X7019643Y-17358500D01*
X7048214Y-17344214D01*
X7276786Y-17615643D02*
X7291071Y-17629929D01*
X7276786Y-17644214D01*
X7262500Y-17629929D01*
X7276786Y-17615643D01*
X7276786Y-17644214D01*
X7476786Y-17344214D02*
X7505357Y-17344214D01*
X7533928Y-17358500D01*
X7548214Y-17372786D01*
X7562500Y-17401357D01*
X7576786Y-17458500D01*
X7576786Y-17529929D01*
X7562500Y-17587072D01*
X7548214Y-17615643D01*
X7533928Y-17629929D01*
X7505357Y-17644214D01*
X7476786Y-17644214D01*
X7448214Y-17629929D01*
X7433928Y-17615643D01*
X7419643Y-17587072D01*
X7405357Y-17529929D01*
X7405357Y-17458500D01*
X7419643Y-17401357D01*
X7433928Y-17372786D01*
X7448214Y-17358500D01*
X7476786Y-17344214D01*
X7862500Y-17644214D02*
X7691071Y-17644214D01*
X7776786Y-17644214D02*
X7776786Y-17344214D01*
X7748214Y-17387072D01*
X7719643Y-17415643D01*
X7691071Y-17429929D01*
X8133928Y-17344214D02*
X7991071Y-17344214D01*
X7976786Y-17487072D01*
X7991071Y-17472786D01*
X8019643Y-17458500D01*
X8091071Y-17458500D01*
X8119643Y-17472786D01*
X8133928Y-17487072D01*
X8148214Y-17515643D01*
X8148214Y-17587072D01*
X8133928Y-17615643D01*
X8119643Y-17629929D01*
X8091071Y-17644214D01*
X8019643Y-17644214D01*
X7991071Y-17629929D01*
X7976786Y-17615643D01*
X8248214Y-17344214D02*
X8448214Y-17344214D01*
X8319643Y-17644214D01*
X8548214Y-17344214D02*
X8548214Y-17401357D01*
X8662500Y-17344214D02*
X8662500Y-17401357D01*
X9105357Y-17758500D02*
X9091071Y-17744214D01*
X9062500Y-17701357D01*
X9048214Y-17672786D01*
X9033928Y-17629929D01*
X9019643Y-17558500D01*
X9019643Y-17501357D01*
X9033928Y-17429929D01*
X9048214Y-17387072D01*
X9062500Y-17358500D01*
X9091071Y-17315643D01*
X9105357Y-17301357D01*
X9376786Y-17644214D02*
X9205357Y-17644214D01*
X9291071Y-17644214D02*
X9291071Y-17344214D01*
X9262500Y-17387072D01*
X9233928Y-17415643D01*
X9205357Y-17429929D01*
X9633928Y-17444214D02*
X9633928Y-17644214D01*
X9562500Y-17329929D02*
X9491071Y-17544214D01*
X9676786Y-17544214D01*
X9762500Y-17344214D02*
X9948214Y-17344214D01*
X9848214Y-17458500D01*
X9891071Y-17458500D01*
X9919643Y-17472786D01*
X9933928Y-17487072D01*
X9948214Y-17515643D01*
X9948214Y-17587072D01*
X9933928Y-17615643D01*
X9919643Y-17629929D01*
X9891071Y-17644214D01*
X9805357Y-17644214D01*
X9776786Y-17629929D01*
X9762500Y-17615643D01*
X10305357Y-17644214D02*
X10305357Y-17344214D01*
X10433928Y-17644214D02*
X10433928Y-17487072D01*
X10419643Y-17458500D01*
X10391071Y-17444214D01*
X10348214Y-17444214D01*
X10319643Y-17458500D01*
X10305357Y-17472786D01*
X10619643Y-17644214D02*
X10591071Y-17629929D01*
X10576786Y-17615643D01*
X10562500Y-17587072D01*
X10562500Y-17501357D01*
X10576786Y-17472786D01*
X10591071Y-17458500D01*
X10619643Y-17444214D01*
X10662500Y-17444214D01*
X10691071Y-17458500D01*
X10705357Y-17472786D01*
X10719643Y-17501357D01*
X10719643Y-17587072D01*
X10705357Y-17615643D01*
X10691071Y-17629929D01*
X10662500Y-17644214D01*
X10619643Y-17644214D01*
X10891071Y-17644214D02*
X10862500Y-17629929D01*
X10848214Y-17601357D01*
X10848214Y-17344214D01*
X11119643Y-17629929D02*
X11091071Y-17644214D01*
X11033928Y-17644214D01*
X11005357Y-17629929D01*
X10991071Y-17601357D01*
X10991071Y-17487072D01*
X11005357Y-17458500D01*
X11033928Y-17444214D01*
X11091071Y-17444214D01*
X11119643Y-17458500D01*
X11133928Y-17487072D01*
X11133928Y-17515643D01*
X10991071Y-17544214D01*
X11248214Y-17629929D02*
X11276786Y-17644214D01*
X11333928Y-17644214D01*
X11362500Y-17629929D01*
X11376786Y-17601357D01*
X11376786Y-17587072D01*
X11362500Y-17558500D01*
X11333928Y-17544214D01*
X11291071Y-17544214D01*
X11262500Y-17529929D01*
X11248214Y-17501357D01*
X11248214Y-17487072D01*
X11262500Y-17458500D01*
X11291071Y-17444214D01*
X11333928Y-17444214D01*
X11362500Y-17458500D01*
X11476786Y-17758500D02*
X11491071Y-17744214D01*
X11519643Y-17701357D01*
X11533928Y-17672786D01*
X11548214Y-17629929D01*
X11562500Y-17558500D01*
X11562500Y-17501357D01*
X11548214Y-17429929D01*
X11533928Y-17387072D01*
X11519643Y-17358500D01*
X11491071Y-17315643D01*
X11476786Y-17301357D01*
X3822500Y-17879500D02*
X3822500Y-17929500D01*
X3797500Y-17904500D02*
X3847500Y-17904500D01*
X4191071Y-17740214D02*
X4219643Y-17740214D01*
X4248214Y-17754500D01*
X4262500Y-17768786D01*
X4276786Y-17797357D01*
X4291071Y-17854500D01*
X4291071Y-17925929D01*
X4276786Y-17983072D01*
X4262500Y-18011643D01*
X4248214Y-18025929D01*
X4219643Y-18040214D01*
X4191071Y-18040214D01*
X4162500Y-18025929D01*
X4148214Y-18011643D01*
X4133928Y-17983072D01*
X4119643Y-17925929D01*
X4119643Y-17854500D01*
X4133928Y-17797357D01*
X4148214Y-17768786D01*
X4162500Y-17754500D01*
X4191071Y-17740214D01*
X4419643Y-18011643D02*
X4433928Y-18025929D01*
X4419643Y-18040214D01*
X4405357Y-18025929D01*
X4419643Y-18011643D01*
X4419643Y-18040214D01*
X4705357Y-17740214D02*
X4562500Y-17740214D01*
X4548214Y-17883072D01*
X4562500Y-17868786D01*
X4591071Y-17854500D01*
X4662500Y-17854500D01*
X4691071Y-17868786D01*
X4705357Y-17883072D01*
X4719643Y-17911643D01*
X4719643Y-17983072D01*
X4705357Y-18011643D01*
X4691071Y-18025929D01*
X4662500Y-18040214D01*
X4591071Y-18040214D01*
X4562500Y-18025929D01*
X4548214Y-18011643D01*
X4905357Y-17740214D02*
X4933928Y-17740214D01*
X4962500Y-17754500D01*
X4976786Y-17768786D01*
X4991071Y-17797357D01*
X5005357Y-17854500D01*
X5005357Y-17925929D01*
X4991071Y-17983072D01*
X4976786Y-18011643D01*
X4962500Y-18025929D01*
X4933928Y-18040214D01*
X4905357Y-18040214D01*
X4876786Y-18025929D01*
X4862500Y-18011643D01*
X4848214Y-17983072D01*
X4833928Y-17925929D01*
X4833928Y-17854500D01*
X4848214Y-17797357D01*
X4862500Y-17768786D01*
X4876786Y-17754500D01*
X4905357Y-17740214D01*
X5191071Y-17740214D02*
X5219643Y-17740214D01*
X5248214Y-17754500D01*
X5262500Y-17768786D01*
X5276786Y-17797357D01*
X5291071Y-17854500D01*
X5291071Y-17925929D01*
X5276786Y-17983072D01*
X5262500Y-18011643D01*
X5248214Y-18025929D01*
X5219643Y-18040214D01*
X5191071Y-18040214D01*
X5162500Y-18025929D01*
X5148214Y-18011643D01*
X5133928Y-17983072D01*
X5119643Y-17925929D01*
X5119643Y-17854500D01*
X5133928Y-17797357D01*
X5148214Y-17768786D01*
X5162500Y-17754500D01*
X5191071Y-17740214D01*
X5419643Y-18040214D02*
X5419643Y-17840214D01*
X5419643Y-17868786D02*
X5433928Y-17854500D01*
X5462500Y-17840214D01*
X5505357Y-17840214D01*
X5533928Y-17854500D01*
X5548214Y-17883072D01*
X5548214Y-18040214D01*
X5548214Y-17883072D02*
X5562500Y-17854500D01*
X5591071Y-17840214D01*
X5633928Y-17840214D01*
X5662500Y-17854500D01*
X5676786Y-17883072D01*
X5676786Y-18040214D01*
X5819643Y-18040214D02*
X5819643Y-17840214D01*
X5819643Y-17868786D02*
X5833928Y-17854500D01*
X5862500Y-17840214D01*
X5905357Y-17840214D01*
X5933928Y-17854500D01*
X5948214Y-17883072D01*
X5948214Y-18040214D01*
X5948214Y-17883072D02*
X5962500Y-17854500D01*
X5991071Y-17840214D01*
X6033928Y-17840214D01*
X6062500Y-17854500D01*
X6076786Y-17883072D01*
X6076786Y-18040214D01*
X6662500Y-17725929D02*
X6405357Y-18111643D01*
X7048214Y-17740214D02*
X7076786Y-17740214D01*
X7105357Y-17754500D01*
X7119643Y-17768786D01*
X7133928Y-17797357D01*
X7148214Y-17854500D01*
X7148214Y-17925929D01*
X7133928Y-17983072D01*
X7119643Y-18011643D01*
X7105357Y-18025929D01*
X7076786Y-18040214D01*
X7048214Y-18040214D01*
X7019643Y-18025929D01*
X7005357Y-18011643D01*
X6991071Y-17983072D01*
X6976786Y-17925929D01*
X6976786Y-17854500D01*
X6991071Y-17797357D01*
X7005357Y-17768786D01*
X7019643Y-17754500D01*
X7048214Y-17740214D01*
X7276786Y-18011643D02*
X7291071Y-18025929D01*
X7276786Y-18040214D01*
X7262500Y-18025929D01*
X7276786Y-18011643D01*
X7276786Y-18040214D01*
X7476786Y-17740214D02*
X7505357Y-17740214D01*
X7533928Y-17754500D01*
X7548214Y-17768786D01*
X7562500Y-17797357D01*
X7576786Y-17854500D01*
X7576786Y-17925929D01*
X7562500Y-17983072D01*
X7548214Y-18011643D01*
X7533928Y-18025929D01*
X7505357Y-18040214D01*
X7476786Y-18040214D01*
X7448214Y-18025929D01*
X7433928Y-18011643D01*
X7419643Y-17983072D01*
X7405357Y-17925929D01*
X7405357Y-17854500D01*
X7419643Y-17797357D01*
X7433928Y-17768786D01*
X7448214Y-17754500D01*
X7476786Y-17740214D01*
X7862500Y-18040214D02*
X7691071Y-18040214D01*
X7776786Y-18040214D02*
X7776786Y-17740214D01*
X7748214Y-17783072D01*
X7719643Y-17811643D01*
X7691071Y-17825929D01*
X8005357Y-18040214D02*
X8062500Y-18040214D01*
X8091071Y-18025929D01*
X8105357Y-18011643D01*
X8133928Y-17968786D01*
X8148214Y-17911643D01*
X8148214Y-17797357D01*
X8133928Y-17768786D01*
X8119643Y-17754500D01*
X8091071Y-17740214D01*
X8033928Y-17740214D01*
X8005357Y-17754500D01*
X7991071Y-17768786D01*
X7976786Y-17797357D01*
X7976786Y-17868786D01*
X7991071Y-17897357D01*
X8005357Y-17911643D01*
X8033928Y-17925929D01*
X8091071Y-17925929D01*
X8119643Y-17911643D01*
X8133928Y-17897357D01*
X8148214Y-17868786D01*
X8248214Y-17740214D02*
X8448214Y-17740214D01*
X8319643Y-18040214D01*
X8548214Y-17740214D02*
X8548214Y-17797357D01*
X8662500Y-17740214D02*
X8662500Y-17797357D01*
X9105357Y-18154500D02*
X9091071Y-18140214D01*
X9062500Y-18097357D01*
X9048214Y-18068786D01*
X9033928Y-18025929D01*
X9019643Y-17954500D01*
X9019643Y-17897357D01*
X9033928Y-17825929D01*
X9048214Y-17783072D01*
X9062500Y-17754500D01*
X9091071Y-17711643D01*
X9105357Y-17697357D01*
X9205357Y-17768786D02*
X9219643Y-17754500D01*
X9248214Y-17740214D01*
X9319643Y-17740214D01*
X9348214Y-17754500D01*
X9362500Y-17768786D01*
X9376786Y-17797357D01*
X9376786Y-17825929D01*
X9362500Y-17868786D01*
X9191071Y-18040214D01*
X9376786Y-18040214D01*
X9633928Y-17740214D02*
X9576786Y-17740214D01*
X9548214Y-17754500D01*
X9533928Y-17768786D01*
X9505357Y-17811643D01*
X9491071Y-17868786D01*
X9491071Y-17983072D01*
X9505357Y-18011643D01*
X9519643Y-18025929D01*
X9548214Y-18040214D01*
X9605357Y-18040214D01*
X9633928Y-18025929D01*
X9648214Y-18011643D01*
X9662500Y-17983072D01*
X9662500Y-17911643D01*
X9648214Y-17883072D01*
X9633928Y-17868786D01*
X9605357Y-17854500D01*
X9548214Y-17854500D01*
X9519643Y-17868786D01*
X9505357Y-17883072D01*
X9491071Y-17911643D01*
X10019643Y-18040214D02*
X10019643Y-17740214D01*
X10148214Y-18040214D02*
X10148214Y-17883072D01*
X10133928Y-17854500D01*
X10105357Y-17840214D01*
X10062500Y-17840214D01*
X10033928Y-17854500D01*
X10019643Y-17868786D01*
X10333928Y-18040214D02*
X10305357Y-18025929D01*
X10291071Y-18011643D01*
X10276786Y-17983072D01*
X10276786Y-17897357D01*
X10291071Y-17868786D01*
X10305357Y-17854500D01*
X10333928Y-17840214D01*
X10376786Y-17840214D01*
X10405357Y-17854500D01*
X10419643Y-17868786D01*
X10433928Y-17897357D01*
X10433928Y-17983072D01*
X10419643Y-18011643D01*
X10405357Y-18025929D01*
X10376786Y-18040214D01*
X10333928Y-18040214D01*
X10605357Y-18040214D02*
X10576786Y-18025929D01*
X10562500Y-17997357D01*
X10562500Y-17740214D01*
X10833928Y-18025929D02*
X10805357Y-18040214D01*
X10748214Y-18040214D01*
X10719643Y-18025929D01*
X10705357Y-17997357D01*
X10705357Y-17883072D01*
X10719643Y-17854500D01*
X10748214Y-17840214D01*
X10805357Y-17840214D01*
X10833928Y-17854500D01*
X10848214Y-17883072D01*
X10848214Y-17911643D01*
X10705357Y-17940214D01*
X10962500Y-18025929D02*
X10991071Y-18040214D01*
X11048214Y-18040214D01*
X11076786Y-18025929D01*
X11091071Y-17997357D01*
X11091071Y-17983072D01*
X11076786Y-17954500D01*
X11048214Y-17940214D01*
X11005357Y-17940214D01*
X10976786Y-17925929D01*
X10962500Y-17897357D01*
X10962500Y-17883072D01*
X10976786Y-17854500D01*
X11005357Y-17840214D01*
X11048214Y-17840214D01*
X11076786Y-17854500D01*
X11191071Y-18154500D02*
X11205357Y-18140214D01*
X11233928Y-18097357D01*
X11248214Y-18068786D01*
X11262500Y-18025929D01*
X11276786Y-17954500D01*
X11276786Y-17897357D01*
X11262500Y-17825929D01*
X11248214Y-17783072D01*
X11233928Y-17754500D01*
X11205357Y-17711643D01*
X11191071Y-17697357D01*
X3837981Y-18323481D02*
X3837981Y-18277519D01*
X3792019Y-18277519D01*
X3792019Y-18323481D01*
X3837981Y-18323481D01*
X4191071Y-18136214D02*
X4219643Y-18136214D01*
X4248214Y-18150500D01*
X4262500Y-18164786D01*
X4276786Y-18193357D01*
X4291071Y-18250500D01*
X4291071Y-18321929D01*
X4276786Y-18379072D01*
X4262500Y-18407643D01*
X4248214Y-18421929D01*
X4219643Y-18436214D01*
X4191071Y-18436214D01*
X4162500Y-18421929D01*
X4148214Y-18407643D01*
X4133928Y-18379072D01*
X4119643Y-18321929D01*
X4119643Y-18250500D01*
X4133928Y-18193357D01*
X4148214Y-18164786D01*
X4162500Y-18150500D01*
X4191071Y-18136214D01*
X4419643Y-18407643D02*
X4433928Y-18421929D01*
X4419643Y-18436214D01*
X4405357Y-18421929D01*
X4419643Y-18407643D01*
X4419643Y-18436214D01*
X4691071Y-18136214D02*
X4633928Y-18136214D01*
X4605357Y-18150500D01*
X4591071Y-18164786D01*
X4562500Y-18207643D01*
X4548214Y-18264786D01*
X4548214Y-18379072D01*
X4562500Y-18407643D01*
X4576786Y-18421929D01*
X4605357Y-18436214D01*
X4662500Y-18436214D01*
X4691071Y-18421929D01*
X4705357Y-18407643D01*
X4719643Y-18379072D01*
X4719643Y-18307643D01*
X4705357Y-18279072D01*
X4691071Y-18264786D01*
X4662500Y-18250500D01*
X4605357Y-18250500D01*
X4576786Y-18264786D01*
X4562500Y-18279072D01*
X4548214Y-18307643D01*
X4991071Y-18136214D02*
X4848214Y-18136214D01*
X4833928Y-18279072D01*
X4848214Y-18264786D01*
X4876786Y-18250500D01*
X4948214Y-18250500D01*
X4976786Y-18264786D01*
X4991071Y-18279072D01*
X5005357Y-18307643D01*
X5005357Y-18379072D01*
X4991071Y-18407643D01*
X4976786Y-18421929D01*
X4948214Y-18436214D01*
X4876786Y-18436214D01*
X4848214Y-18421929D01*
X4833928Y-18407643D01*
X5191071Y-18136214D02*
X5219643Y-18136214D01*
X5248214Y-18150500D01*
X5262500Y-18164786D01*
X5276786Y-18193357D01*
X5291071Y-18250500D01*
X5291071Y-18321929D01*
X5276786Y-18379072D01*
X5262500Y-18407643D01*
X5248214Y-18421929D01*
X5219643Y-18436214D01*
X5191071Y-18436214D01*
X5162500Y-18421929D01*
X5148214Y-18407643D01*
X5133928Y-18379072D01*
X5119643Y-18321929D01*
X5119643Y-18250500D01*
X5133928Y-18193357D01*
X5148214Y-18164786D01*
X5162500Y-18150500D01*
X5191071Y-18136214D01*
X5419643Y-18436214D02*
X5419643Y-18236214D01*
X5419643Y-18264786D02*
X5433928Y-18250500D01*
X5462500Y-18236214D01*
X5505357Y-18236214D01*
X5533928Y-18250500D01*
X5548214Y-18279072D01*
X5548214Y-18436214D01*
X5548214Y-18279072D02*
X5562500Y-18250500D01*
X5591071Y-18236214D01*
X5633928Y-18236214D01*
X5662500Y-18250500D01*
X5676786Y-18279072D01*
X5676786Y-18436214D01*
X5819643Y-18436214D02*
X5819643Y-18236214D01*
X5819643Y-18264786D02*
X5833928Y-18250500D01*
X5862500Y-18236214D01*
X5905357Y-18236214D01*
X5933928Y-18250500D01*
X5948214Y-18279072D01*
X5948214Y-18436214D01*
X5948214Y-18279072D02*
X5962500Y-18250500D01*
X5991071Y-18236214D01*
X6033928Y-18236214D01*
X6062500Y-18250500D01*
X6076786Y-18279072D01*
X6076786Y-18436214D01*
X6662500Y-18121929D02*
X6405357Y-18507643D01*
X7048214Y-18136214D02*
X7076786Y-18136214D01*
X7105357Y-18150500D01*
X7119643Y-18164786D01*
X7133928Y-18193357D01*
X7148214Y-18250500D01*
X7148214Y-18321929D01*
X7133928Y-18379072D01*
X7119643Y-18407643D01*
X7105357Y-18421929D01*
X7076786Y-18436214D01*
X7048214Y-18436214D01*
X7019643Y-18421929D01*
X7005357Y-18407643D01*
X6991071Y-18379072D01*
X6976786Y-18321929D01*
X6976786Y-18250500D01*
X6991071Y-18193357D01*
X7005357Y-18164786D01*
X7019643Y-18150500D01*
X7048214Y-18136214D01*
X7276786Y-18407643D02*
X7291071Y-18421929D01*
X7276786Y-18436214D01*
X7262500Y-18421929D01*
X7276786Y-18407643D01*
X7276786Y-18436214D01*
X7476786Y-18136214D02*
X7505357Y-18136214D01*
X7533928Y-18150500D01*
X7548214Y-18164786D01*
X7562500Y-18193357D01*
X7576786Y-18250500D01*
X7576786Y-18321929D01*
X7562500Y-18379072D01*
X7548214Y-18407643D01*
X7533928Y-18421929D01*
X7505357Y-18436214D01*
X7476786Y-18436214D01*
X7448214Y-18421929D01*
X7433928Y-18407643D01*
X7419643Y-18379072D01*
X7405357Y-18321929D01*
X7405357Y-18250500D01*
X7419643Y-18193357D01*
X7433928Y-18164786D01*
X7448214Y-18150500D01*
X7476786Y-18136214D01*
X7691071Y-18164786D02*
X7705357Y-18150500D01*
X7733928Y-18136214D01*
X7805357Y-18136214D01*
X7833928Y-18150500D01*
X7848214Y-18164786D01*
X7862500Y-18193357D01*
X7862500Y-18221929D01*
X7848214Y-18264786D01*
X7676786Y-18436214D01*
X7862500Y-18436214D01*
X8133928Y-18136214D02*
X7991071Y-18136214D01*
X7976786Y-18279072D01*
X7991071Y-18264786D01*
X8019643Y-18250500D01*
X8091071Y-18250500D01*
X8119643Y-18264786D01*
X8133928Y-18279072D01*
X8148214Y-18307643D01*
X8148214Y-18379072D01*
X8133928Y-18407643D01*
X8119643Y-18421929D01*
X8091071Y-18436214D01*
X8019643Y-18436214D01*
X7991071Y-18421929D01*
X7976786Y-18407643D01*
X8405357Y-18136214D02*
X8348214Y-18136214D01*
X8319643Y-18150500D01*
X8305357Y-18164786D01*
X8276786Y-18207643D01*
X8262500Y-18264786D01*
X8262500Y-18379072D01*
X8276786Y-18407643D01*
X8291071Y-18421929D01*
X8319643Y-18436214D01*
X8376786Y-18436214D01*
X8405357Y-18421929D01*
X8419643Y-18407643D01*
X8433928Y-18379072D01*
X8433928Y-18307643D01*
X8419643Y-18279072D01*
X8405357Y-18264786D01*
X8376786Y-18250500D01*
X8319643Y-18250500D01*
X8291071Y-18264786D01*
X8276786Y-18279072D01*
X8262500Y-18307643D01*
X8548214Y-18136214D02*
X8548214Y-18193357D01*
X8662500Y-18136214D02*
X8662500Y-18193357D01*
X9105357Y-18550500D02*
X9091071Y-18536214D01*
X9062500Y-18493357D01*
X9048214Y-18464786D01*
X9033928Y-18421929D01*
X9019643Y-18350500D01*
X9019643Y-18293357D01*
X9033928Y-18221929D01*
X9048214Y-18179072D01*
X9062500Y-18150500D01*
X9091071Y-18107643D01*
X9105357Y-18093357D01*
X9276786Y-18136214D02*
X9305357Y-18136214D01*
X9333928Y-18150500D01*
X9348214Y-18164786D01*
X9362500Y-18193357D01*
X9376786Y-18250500D01*
X9376786Y-18321929D01*
X9362500Y-18379072D01*
X9348214Y-18407643D01*
X9333928Y-18421929D01*
X9305357Y-18436214D01*
X9276786Y-18436214D01*
X9248214Y-18421929D01*
X9233928Y-18407643D01*
X9219643Y-18379072D01*
X9205357Y-18321929D01*
X9205357Y-18250500D01*
X9219643Y-18193357D01*
X9233928Y-18164786D01*
X9248214Y-18150500D01*
X9276786Y-18136214D01*
X9733928Y-18436214D02*
X9733928Y-18136214D01*
X9862500Y-18436214D02*
X9862500Y-18279072D01*
X9848214Y-18250500D01*
X9819643Y-18236214D01*
X9776786Y-18236214D01*
X9748214Y-18250500D01*
X9733928Y-18264786D01*
X10048214Y-18436214D02*
X10019643Y-18421929D01*
X10005357Y-18407643D01*
X9991071Y-18379072D01*
X9991071Y-18293357D01*
X10005357Y-18264786D01*
X10019643Y-18250500D01*
X10048214Y-18236214D01*
X10091071Y-18236214D01*
X10119643Y-18250500D01*
X10133928Y-18264786D01*
X10148214Y-18293357D01*
X10148214Y-18379072D01*
X10133928Y-18407643D01*
X10119643Y-18421929D01*
X10091071Y-18436214D01*
X10048214Y-18436214D01*
X10319643Y-18436214D02*
X10291071Y-18421929D01*
X10276786Y-18393357D01*
X10276786Y-18136214D01*
X10548214Y-18421929D02*
X10519643Y-18436214D01*
X10462500Y-18436214D01*
X10433928Y-18421929D01*
X10419643Y-18393357D01*
X10419643Y-18279072D01*
X10433928Y-18250500D01*
X10462500Y-18236214D01*
X10519643Y-18236214D01*
X10548214Y-18250500D01*
X10562500Y-18279072D01*
X10562500Y-18307643D01*
X10419643Y-18336214D01*
X10676786Y-18421929D02*
X10705357Y-18436214D01*
X10762500Y-18436214D01*
X10791071Y-18421929D01*
X10805357Y-18393357D01*
X10805357Y-18379072D01*
X10791071Y-18350500D01*
X10762500Y-18336214D01*
X10719643Y-18336214D01*
X10691071Y-18321929D01*
X10676786Y-18293357D01*
X10676786Y-18279072D01*
X10691071Y-18250500D01*
X10719643Y-18236214D01*
X10762500Y-18236214D01*
X10791071Y-18250500D01*
X11162500Y-18321929D02*
X11391071Y-18321929D01*
X11276786Y-18436214D02*
X11276786Y-18207643D01*
X11748214Y-18164786D02*
X11762500Y-18150500D01*
X11791071Y-18136214D01*
X11862500Y-18136214D01*
X11891071Y-18150500D01*
X11905357Y-18164786D01*
X11919643Y-18193357D01*
X11919643Y-18221929D01*
X11905357Y-18264786D01*
X11733928Y-18436214D01*
X11919643Y-18436214D01*
X12262500Y-18421929D02*
X12291071Y-18436214D01*
X12348214Y-18436214D01*
X12376786Y-18421929D01*
X12391071Y-18393357D01*
X12391071Y-18379072D01*
X12376786Y-18350500D01*
X12348214Y-18336214D01*
X12305357Y-18336214D01*
X12276786Y-18321929D01*
X12262500Y-18293357D01*
X12262500Y-18279072D01*
X12276786Y-18250500D01*
X12305357Y-18236214D01*
X12348214Y-18236214D01*
X12376786Y-18250500D01*
X12562500Y-18436214D02*
X12533928Y-18421929D01*
X12519643Y-18393357D01*
X12519643Y-18136214D01*
X12719643Y-18436214D02*
X12691071Y-18421929D01*
X12676786Y-18407643D01*
X12662500Y-18379072D01*
X12662500Y-18293357D01*
X12676786Y-18264786D01*
X12691071Y-18250500D01*
X12719643Y-18236214D01*
X12762500Y-18236214D01*
X12791071Y-18250500D01*
X12805357Y-18264786D01*
X12819643Y-18293357D01*
X12819643Y-18379072D01*
X12805357Y-18407643D01*
X12791071Y-18421929D01*
X12762500Y-18436214D01*
X12719643Y-18436214D01*
X12905357Y-18236214D02*
X13019643Y-18236214D01*
X12948214Y-18136214D02*
X12948214Y-18393357D01*
X12962500Y-18421929D01*
X12991071Y-18436214D01*
X13019643Y-18436214D01*
X13105357Y-18421929D02*
X13133928Y-18436214D01*
X13191071Y-18436214D01*
X13219643Y-18421929D01*
X13233928Y-18393357D01*
X13233928Y-18379072D01*
X13219643Y-18350500D01*
X13191071Y-18336214D01*
X13148214Y-18336214D01*
X13119643Y-18321929D01*
X13105357Y-18293357D01*
X13105357Y-18279072D01*
X13119643Y-18250500D01*
X13148214Y-18236214D01*
X13191071Y-18236214D01*
X13219643Y-18250500D01*
X13333928Y-18550500D02*
X13348214Y-18536214D01*
X13376786Y-18493357D01*
X13391071Y-18464786D01*
X13405357Y-18421929D01*
X13419643Y-18350500D01*
X13419643Y-18293357D01*
X13405357Y-18221929D01*
X13391071Y-18179072D01*
X13376786Y-18150500D01*
X13348214Y-18107643D01*
X13333928Y-18093357D01*
X3812500Y-18731500D02*
X3847500Y-18696500D01*
X3812500Y-18661500D01*
X3777500Y-18696500D01*
X3812500Y-18731500D01*
X4191071Y-18532214D02*
X4219643Y-18532214D01*
X4248214Y-18546500D01*
X4262500Y-18560786D01*
X4276786Y-18589357D01*
X4291071Y-18646500D01*
X4291071Y-18717929D01*
X4276786Y-18775072D01*
X4262500Y-18803643D01*
X4248214Y-18817929D01*
X4219643Y-18832214D01*
X4191071Y-18832214D01*
X4162500Y-18817929D01*
X4148214Y-18803643D01*
X4133928Y-18775072D01*
X4119643Y-18717929D01*
X4119643Y-18646500D01*
X4133928Y-18589357D01*
X4148214Y-18560786D01*
X4162500Y-18546500D01*
X4191071Y-18532214D01*
X4419643Y-18803643D02*
X4433928Y-18817929D01*
X4419643Y-18832214D01*
X4405357Y-18817929D01*
X4419643Y-18803643D01*
X4419643Y-18832214D01*
X4533928Y-18532214D02*
X4733928Y-18532214D01*
X4605357Y-18832214D01*
X4905357Y-18532214D02*
X4933928Y-18532214D01*
X4962500Y-18546500D01*
X4976786Y-18560786D01*
X4991071Y-18589357D01*
X5005357Y-18646500D01*
X5005357Y-18717929D01*
X4991071Y-18775072D01*
X4976786Y-18803643D01*
X4962500Y-18817929D01*
X4933928Y-18832214D01*
X4905357Y-18832214D01*
X4876786Y-18817929D01*
X4862500Y-18803643D01*
X4848214Y-18775072D01*
X4833928Y-18717929D01*
X4833928Y-18646500D01*
X4848214Y-18589357D01*
X4862500Y-18560786D01*
X4876786Y-18546500D01*
X4905357Y-18532214D01*
X5191071Y-18532214D02*
X5219643Y-18532214D01*
X5248214Y-18546500D01*
X5262500Y-18560786D01*
X5276786Y-18589357D01*
X5291071Y-18646500D01*
X5291071Y-18717929D01*
X5276786Y-18775072D01*
X5262500Y-18803643D01*
X5248214Y-18817929D01*
X5219643Y-18832214D01*
X5191071Y-18832214D01*
X5162500Y-18817929D01*
X5148214Y-18803643D01*
X5133928Y-18775072D01*
X5119643Y-18717929D01*
X5119643Y-18646500D01*
X5133928Y-18589357D01*
X5148214Y-18560786D01*
X5162500Y-18546500D01*
X5191071Y-18532214D01*
X5419643Y-18832214D02*
X5419643Y-18632214D01*
X5419643Y-18660786D02*
X5433928Y-18646500D01*
X5462500Y-18632214D01*
X5505357Y-18632214D01*
X5533928Y-18646500D01*
X5548214Y-18675072D01*
X5548214Y-18832214D01*
X5548214Y-18675072D02*
X5562500Y-18646500D01*
X5591071Y-18632214D01*
X5633928Y-18632214D01*
X5662500Y-18646500D01*
X5676786Y-18675072D01*
X5676786Y-18832214D01*
X5819643Y-18832214D02*
X5819643Y-18632214D01*
X5819643Y-18660786D02*
X5833928Y-18646500D01*
X5862500Y-18632214D01*
X5905357Y-18632214D01*
X5933928Y-18646500D01*
X5948214Y-18675072D01*
X5948214Y-18832214D01*
X5948214Y-18675072D02*
X5962500Y-18646500D01*
X5991071Y-18632214D01*
X6033928Y-18632214D01*
X6062500Y-18646500D01*
X6076786Y-18675072D01*
X6076786Y-18832214D01*
X6662500Y-18517929D02*
X6405357Y-18903643D01*
X7048214Y-18532214D02*
X7076786Y-18532214D01*
X7105357Y-18546500D01*
X7119643Y-18560786D01*
X7133928Y-18589357D01*
X7148214Y-18646500D01*
X7148214Y-18717929D01*
X7133928Y-18775072D01*
X7119643Y-18803643D01*
X7105357Y-18817929D01*
X7076786Y-18832214D01*
X7048214Y-18832214D01*
X7019643Y-18817929D01*
X7005357Y-18803643D01*
X6991071Y-18775072D01*
X6976786Y-18717929D01*
X6976786Y-18646500D01*
X6991071Y-18589357D01*
X7005357Y-18560786D01*
X7019643Y-18546500D01*
X7048214Y-18532214D01*
X7276786Y-18803643D02*
X7291071Y-18817929D01*
X7276786Y-18832214D01*
X7262500Y-18817929D01*
X7276786Y-18803643D01*
X7276786Y-18832214D01*
X7476786Y-18532214D02*
X7505357Y-18532214D01*
X7533928Y-18546500D01*
X7548214Y-18560786D01*
X7562500Y-18589357D01*
X7576786Y-18646500D01*
X7576786Y-18717929D01*
X7562500Y-18775072D01*
X7548214Y-18803643D01*
X7533928Y-18817929D01*
X7505357Y-18832214D01*
X7476786Y-18832214D01*
X7448214Y-18817929D01*
X7433928Y-18803643D01*
X7419643Y-18775072D01*
X7405357Y-18717929D01*
X7405357Y-18646500D01*
X7419643Y-18589357D01*
X7433928Y-18560786D01*
X7448214Y-18546500D01*
X7476786Y-18532214D01*
X7691071Y-18560786D02*
X7705357Y-18546500D01*
X7733928Y-18532214D01*
X7805357Y-18532214D01*
X7833928Y-18546500D01*
X7848214Y-18560786D01*
X7862500Y-18589357D01*
X7862500Y-18617929D01*
X7848214Y-18660786D01*
X7676786Y-18832214D01*
X7862500Y-18832214D01*
X7962500Y-18532214D02*
X8162500Y-18532214D01*
X8033928Y-18832214D01*
X8405357Y-18532214D02*
X8348214Y-18532214D01*
X8319643Y-18546500D01*
X8305357Y-18560786D01*
X8276786Y-18603643D01*
X8262500Y-18660786D01*
X8262500Y-18775072D01*
X8276786Y-18803643D01*
X8291071Y-18817929D01*
X8319643Y-18832214D01*
X8376786Y-18832214D01*
X8405357Y-18817929D01*
X8419643Y-18803643D01*
X8433928Y-18775072D01*
X8433928Y-18703643D01*
X8419643Y-18675072D01*
X8405357Y-18660786D01*
X8376786Y-18646500D01*
X8319643Y-18646500D01*
X8291071Y-18660786D01*
X8276786Y-18675072D01*
X8262500Y-18703643D01*
X8548214Y-18532214D02*
X8548214Y-18589357D01*
X8662500Y-18532214D02*
X8662500Y-18589357D01*
X9105357Y-18946500D02*
X9091071Y-18932214D01*
X9062500Y-18889357D01*
X9048214Y-18860786D01*
X9033928Y-18817929D01*
X9019643Y-18746500D01*
X9019643Y-18689357D01*
X9033928Y-18617929D01*
X9048214Y-18575072D01*
X9062500Y-18546500D01*
X9091071Y-18503643D01*
X9105357Y-18489357D01*
X9276786Y-18532214D02*
X9305357Y-18532214D01*
X9333928Y-18546500D01*
X9348214Y-18560786D01*
X9362500Y-18589357D01*
X9376786Y-18646500D01*
X9376786Y-18717929D01*
X9362500Y-18775072D01*
X9348214Y-18803643D01*
X9333928Y-18817929D01*
X9305357Y-18832214D01*
X9276786Y-18832214D01*
X9248214Y-18817929D01*
X9233928Y-18803643D01*
X9219643Y-18775072D01*
X9205357Y-18717929D01*
X9205357Y-18646500D01*
X9219643Y-18589357D01*
X9233928Y-18560786D01*
X9248214Y-18546500D01*
X9276786Y-18532214D01*
X9733928Y-18832214D02*
X9733928Y-18532214D01*
X9862500Y-18832214D02*
X9862500Y-18675072D01*
X9848214Y-18646500D01*
X9819643Y-18632214D01*
X9776786Y-18632214D01*
X9748214Y-18646500D01*
X9733928Y-18660786D01*
X10048214Y-18832214D02*
X10019643Y-18817929D01*
X10005357Y-18803643D01*
X9991071Y-18775072D01*
X9991071Y-18689357D01*
X10005357Y-18660786D01*
X10019643Y-18646500D01*
X10048214Y-18632214D01*
X10091071Y-18632214D01*
X10119643Y-18646500D01*
X10133928Y-18660786D01*
X10148214Y-18689357D01*
X10148214Y-18775072D01*
X10133928Y-18803643D01*
X10119643Y-18817929D01*
X10091071Y-18832214D01*
X10048214Y-18832214D01*
X10319643Y-18832214D02*
X10291071Y-18817929D01*
X10276786Y-18789357D01*
X10276786Y-18532214D01*
X10548214Y-18817929D02*
X10519643Y-18832214D01*
X10462500Y-18832214D01*
X10433928Y-18817929D01*
X10419643Y-18789357D01*
X10419643Y-18675072D01*
X10433928Y-18646500D01*
X10462500Y-18632214D01*
X10519643Y-18632214D01*
X10548214Y-18646500D01*
X10562500Y-18675072D01*
X10562500Y-18703643D01*
X10419643Y-18732214D01*
X10676786Y-18817929D02*
X10705357Y-18832214D01*
X10762500Y-18832214D01*
X10791071Y-18817929D01*
X10805357Y-18789357D01*
X10805357Y-18775072D01*
X10791071Y-18746500D01*
X10762500Y-18732214D01*
X10719643Y-18732214D01*
X10691071Y-18717929D01*
X10676786Y-18689357D01*
X10676786Y-18675072D01*
X10691071Y-18646500D01*
X10719643Y-18632214D01*
X10762500Y-18632214D01*
X10791071Y-18646500D01*
X11162500Y-18717929D02*
X11391071Y-18717929D01*
X11276786Y-18832214D02*
X11276786Y-18603643D01*
X11748214Y-18560786D02*
X11762500Y-18546500D01*
X11791071Y-18532214D01*
X11862500Y-18532214D01*
X11891071Y-18546500D01*
X11905357Y-18560786D01*
X11919643Y-18589357D01*
X11919643Y-18617929D01*
X11905357Y-18660786D01*
X11733928Y-18832214D01*
X11919643Y-18832214D01*
X12262500Y-18817929D02*
X12291071Y-18832214D01*
X12348214Y-18832214D01*
X12376786Y-18817929D01*
X12391071Y-18789357D01*
X12391071Y-18775072D01*
X12376786Y-18746500D01*
X12348214Y-18732214D01*
X12305357Y-18732214D01*
X12276786Y-18717929D01*
X12262500Y-18689357D01*
X12262500Y-18675072D01*
X12276786Y-18646500D01*
X12305357Y-18632214D01*
X12348214Y-18632214D01*
X12376786Y-18646500D01*
X12562500Y-18832214D02*
X12533928Y-18817929D01*
X12519643Y-18789357D01*
X12519643Y-18532214D01*
X12719643Y-18832214D02*
X12691071Y-18817929D01*
X12676786Y-18803643D01*
X12662500Y-18775072D01*
X12662500Y-18689357D01*
X12676786Y-18660786D01*
X12691071Y-18646500D01*
X12719643Y-18632214D01*
X12762500Y-18632214D01*
X12791071Y-18646500D01*
X12805357Y-18660786D01*
X12819643Y-18689357D01*
X12819643Y-18775072D01*
X12805357Y-18803643D01*
X12791071Y-18817929D01*
X12762500Y-18832214D01*
X12719643Y-18832214D01*
X12905357Y-18632214D02*
X13019643Y-18632214D01*
X12948214Y-18532214D02*
X12948214Y-18789357D01*
X12962500Y-18817929D01*
X12991071Y-18832214D01*
X13019643Y-18832214D01*
X13105357Y-18817929D02*
X13133928Y-18832214D01*
X13191071Y-18832214D01*
X13219643Y-18817929D01*
X13233928Y-18789357D01*
X13233928Y-18775072D01*
X13219643Y-18746500D01*
X13191071Y-18732214D01*
X13148214Y-18732214D01*
X13119643Y-18717929D01*
X13105357Y-18689357D01*
X13105357Y-18675072D01*
X13119643Y-18646500D01*
X13148214Y-18632214D01*
X13191071Y-18632214D01*
X13219643Y-18646500D01*
X13333928Y-18946500D02*
X13348214Y-18932214D01*
X13376786Y-18889357D01*
X13391071Y-18860786D01*
X13405357Y-18817929D01*
X13419643Y-18746500D01*
X13419643Y-18689357D01*
X13405357Y-18617929D01*
X13391071Y-18575072D01*
X13376786Y-18546500D01*
X13348214Y-18503643D01*
X13333928Y-18489357D01*
X3771300Y-19054400D02*
X3847500Y-19130600D01*
X3847500Y-19054400D02*
X3771300Y-19130600D01*
X3847500Y-19092500D02*
G75*
G03*
X3847500Y-19092500I-38100J0D01*
G01*
X4191071Y-18928214D02*
X4219643Y-18928214D01*
X4248214Y-18942500D01*
X4262500Y-18956786D01*
X4276786Y-18985357D01*
X4291071Y-19042500D01*
X4291071Y-19113929D01*
X4276786Y-19171072D01*
X4262500Y-19199643D01*
X4248214Y-19213929D01*
X4219643Y-19228214D01*
X4191071Y-19228214D01*
X4162500Y-19213929D01*
X4148214Y-19199643D01*
X4133928Y-19171072D01*
X4119643Y-19113929D01*
X4119643Y-19042500D01*
X4133928Y-18985357D01*
X4148214Y-18956786D01*
X4162500Y-18942500D01*
X4191071Y-18928214D01*
X4419643Y-19199643D02*
X4433928Y-19213929D01*
X4419643Y-19228214D01*
X4405357Y-19213929D01*
X4419643Y-19199643D01*
X4419643Y-19228214D01*
X4533928Y-18928214D02*
X4733928Y-18928214D01*
X4605357Y-19228214D01*
X4976786Y-18928214D02*
X4919643Y-18928214D01*
X4891071Y-18942500D01*
X4876786Y-18956786D01*
X4848214Y-18999643D01*
X4833928Y-19056786D01*
X4833928Y-19171072D01*
X4848214Y-19199643D01*
X4862500Y-19213929D01*
X4891071Y-19228214D01*
X4948214Y-19228214D01*
X4976786Y-19213929D01*
X4991071Y-19199643D01*
X5005357Y-19171072D01*
X5005357Y-19099643D01*
X4991071Y-19071072D01*
X4976786Y-19056786D01*
X4948214Y-19042500D01*
X4891071Y-19042500D01*
X4862500Y-19056786D01*
X4848214Y-19071072D01*
X4833928Y-19099643D01*
X5119643Y-18956786D02*
X5133928Y-18942500D01*
X5162500Y-18928214D01*
X5233928Y-18928214D01*
X5262500Y-18942500D01*
X5276786Y-18956786D01*
X5291071Y-18985357D01*
X5291071Y-19013929D01*
X5276786Y-19056786D01*
X5105357Y-19228214D01*
X5291071Y-19228214D01*
X5419643Y-19228214D02*
X5419643Y-19028214D01*
X5419643Y-19056786D02*
X5433928Y-19042500D01*
X5462500Y-19028214D01*
X5505357Y-19028214D01*
X5533928Y-19042500D01*
X5548214Y-19071072D01*
X5548214Y-19228214D01*
X5548214Y-19071072D02*
X5562500Y-19042500D01*
X5591071Y-19028214D01*
X5633928Y-19028214D01*
X5662500Y-19042500D01*
X5676786Y-19071072D01*
X5676786Y-19228214D01*
X5819643Y-19228214D02*
X5819643Y-19028214D01*
X5819643Y-19056786D02*
X5833928Y-19042500D01*
X5862500Y-19028214D01*
X5905357Y-19028214D01*
X5933928Y-19042500D01*
X5948214Y-19071072D01*
X5948214Y-19228214D01*
X5948214Y-19071072D02*
X5962500Y-19042500D01*
X5991071Y-19028214D01*
X6033928Y-19028214D01*
X6062500Y-19042500D01*
X6076786Y-19071072D01*
X6076786Y-19228214D01*
X6662500Y-18913929D02*
X6405357Y-19299643D01*
X7048214Y-18928214D02*
X7076786Y-18928214D01*
X7105357Y-18942500D01*
X7119643Y-18956786D01*
X7133928Y-18985357D01*
X7148214Y-19042500D01*
X7148214Y-19113929D01*
X7133928Y-19171072D01*
X7119643Y-19199643D01*
X7105357Y-19213929D01*
X7076786Y-19228214D01*
X7048214Y-19228214D01*
X7019643Y-19213929D01*
X7005357Y-19199643D01*
X6991071Y-19171072D01*
X6976786Y-19113929D01*
X6976786Y-19042500D01*
X6991071Y-18985357D01*
X7005357Y-18956786D01*
X7019643Y-18942500D01*
X7048214Y-18928214D01*
X7276786Y-19199643D02*
X7291071Y-19213929D01*
X7276786Y-19228214D01*
X7262500Y-19213929D01*
X7276786Y-19199643D01*
X7276786Y-19228214D01*
X7476786Y-18928214D02*
X7505357Y-18928214D01*
X7533928Y-18942500D01*
X7548214Y-18956786D01*
X7562500Y-18985357D01*
X7576786Y-19042500D01*
X7576786Y-19113929D01*
X7562500Y-19171072D01*
X7548214Y-19199643D01*
X7533928Y-19213929D01*
X7505357Y-19228214D01*
X7476786Y-19228214D01*
X7448214Y-19213929D01*
X7433928Y-19199643D01*
X7419643Y-19171072D01*
X7405357Y-19113929D01*
X7405357Y-19042500D01*
X7419643Y-18985357D01*
X7433928Y-18956786D01*
X7448214Y-18942500D01*
X7476786Y-18928214D01*
X7676786Y-18928214D02*
X7862500Y-18928214D01*
X7762500Y-19042500D01*
X7805357Y-19042500D01*
X7833928Y-19056786D01*
X7848214Y-19071072D01*
X7862500Y-19099643D01*
X7862500Y-19171072D01*
X7848214Y-19199643D01*
X7833928Y-19213929D01*
X7805357Y-19228214D01*
X7719643Y-19228214D01*
X7691071Y-19213929D01*
X7676786Y-19199643D01*
X8048214Y-18928214D02*
X8076786Y-18928214D01*
X8105357Y-18942500D01*
X8119643Y-18956786D01*
X8133928Y-18985357D01*
X8148214Y-19042500D01*
X8148214Y-19113929D01*
X8133928Y-19171072D01*
X8119643Y-19199643D01*
X8105357Y-19213929D01*
X8076786Y-19228214D01*
X8048214Y-19228214D01*
X8019643Y-19213929D01*
X8005357Y-19199643D01*
X7991071Y-19171072D01*
X7976786Y-19113929D01*
X7976786Y-19042500D01*
X7991071Y-18985357D01*
X8005357Y-18956786D01*
X8019643Y-18942500D01*
X8048214Y-18928214D01*
X8333928Y-18928214D02*
X8362500Y-18928214D01*
X8391071Y-18942500D01*
X8405357Y-18956786D01*
X8419643Y-18985357D01*
X8433928Y-19042500D01*
X8433928Y-19113929D01*
X8419643Y-19171072D01*
X8405357Y-19199643D01*
X8391071Y-19213929D01*
X8362500Y-19228214D01*
X8333928Y-19228214D01*
X8305357Y-19213929D01*
X8291071Y-19199643D01*
X8276786Y-19171072D01*
X8262500Y-19113929D01*
X8262500Y-19042500D01*
X8276786Y-18985357D01*
X8291071Y-18956786D01*
X8305357Y-18942500D01*
X8333928Y-18928214D01*
X8548214Y-18928214D02*
X8548214Y-18985357D01*
X8662500Y-18928214D02*
X8662500Y-18985357D01*
X9105357Y-19342500D02*
X9091071Y-19328214D01*
X9062500Y-19285357D01*
X9048214Y-19256786D01*
X9033928Y-19213929D01*
X9019643Y-19142500D01*
X9019643Y-19085357D01*
X9033928Y-19013929D01*
X9048214Y-18971072D01*
X9062500Y-18942500D01*
X9091071Y-18899643D01*
X9105357Y-18885357D01*
X9376786Y-19228214D02*
X9205357Y-19228214D01*
X9291071Y-19228214D02*
X9291071Y-18928214D01*
X9262500Y-18971072D01*
X9233928Y-18999643D01*
X9205357Y-19013929D01*
X9562500Y-18928214D02*
X9591071Y-18928214D01*
X9619643Y-18942500D01*
X9633928Y-18956786D01*
X9648214Y-18985357D01*
X9662500Y-19042500D01*
X9662500Y-19113929D01*
X9648214Y-19171072D01*
X9633928Y-19199643D01*
X9619643Y-19213929D01*
X9591071Y-19228214D01*
X9562500Y-19228214D01*
X9533928Y-19213929D01*
X9519643Y-19199643D01*
X9505357Y-19171072D01*
X9491071Y-19113929D01*
X9491071Y-19042500D01*
X9505357Y-18985357D01*
X9519643Y-18956786D01*
X9533928Y-18942500D01*
X9562500Y-18928214D01*
X10019643Y-19228214D02*
X10019643Y-18928214D01*
X10148214Y-19228214D02*
X10148214Y-19071072D01*
X10133928Y-19042500D01*
X10105357Y-19028214D01*
X10062500Y-19028214D01*
X10033928Y-19042500D01*
X10019643Y-19056786D01*
X10333928Y-19228214D02*
X10305357Y-19213929D01*
X10291071Y-19199643D01*
X10276786Y-19171072D01*
X10276786Y-19085357D01*
X10291071Y-19056786D01*
X10305357Y-19042500D01*
X10333928Y-19028214D01*
X10376786Y-19028214D01*
X10405357Y-19042500D01*
X10419643Y-19056786D01*
X10433928Y-19085357D01*
X10433928Y-19171072D01*
X10419643Y-19199643D01*
X10405357Y-19213929D01*
X10376786Y-19228214D01*
X10333928Y-19228214D01*
X10605357Y-19228214D02*
X10576786Y-19213929D01*
X10562500Y-19185357D01*
X10562500Y-18928214D01*
X10833928Y-19213929D02*
X10805357Y-19228214D01*
X10748214Y-19228214D01*
X10719643Y-19213929D01*
X10705357Y-19185357D01*
X10705357Y-19071072D01*
X10719643Y-19042500D01*
X10748214Y-19028214D01*
X10805357Y-19028214D01*
X10833928Y-19042500D01*
X10848214Y-19071072D01*
X10848214Y-19099643D01*
X10705357Y-19128214D01*
X10962500Y-19213929D02*
X10991071Y-19228214D01*
X11048214Y-19228214D01*
X11076786Y-19213929D01*
X11091071Y-19185357D01*
X11091071Y-19171072D01*
X11076786Y-19142500D01*
X11048214Y-19128214D01*
X11005357Y-19128214D01*
X10976786Y-19113929D01*
X10962500Y-19085357D01*
X10962500Y-19071072D01*
X10976786Y-19042500D01*
X11005357Y-19028214D01*
X11048214Y-19028214D01*
X11076786Y-19042500D01*
X11191071Y-19342500D02*
X11205357Y-19328214D01*
X11233928Y-19285357D01*
X11248214Y-19256786D01*
X11262500Y-19213929D01*
X11276786Y-19142500D01*
X11276786Y-19085357D01*
X11262500Y-19013929D01*
X11248214Y-18971072D01*
X11233928Y-18942500D01*
X11205357Y-18899643D01*
X11191071Y-18885357D01*
X3767500Y-19448500D02*
X3847500Y-19528500D01*
X3847500Y-19448500D02*
X3767500Y-19528500D01*
X3807500Y-19448500D02*
X3807500Y-19528500D01*
X3767500Y-19488500D02*
X3847500Y-19488500D01*
X4191071Y-19324214D02*
X4219643Y-19324214D01*
X4248214Y-19338500D01*
X4262500Y-19352786D01*
X4276786Y-19381357D01*
X4291071Y-19438500D01*
X4291071Y-19509929D01*
X4276786Y-19567072D01*
X4262500Y-19595643D01*
X4248214Y-19609929D01*
X4219643Y-19624214D01*
X4191071Y-19624214D01*
X4162500Y-19609929D01*
X4148214Y-19595643D01*
X4133928Y-19567072D01*
X4119643Y-19509929D01*
X4119643Y-19438500D01*
X4133928Y-19381357D01*
X4148214Y-19352786D01*
X4162500Y-19338500D01*
X4191071Y-19324214D01*
X4419643Y-19595643D02*
X4433928Y-19609929D01*
X4419643Y-19624214D01*
X4405357Y-19609929D01*
X4419643Y-19595643D01*
X4419643Y-19624214D01*
X4605357Y-19452786D02*
X4576786Y-19438500D01*
X4562500Y-19424214D01*
X4548214Y-19395643D01*
X4548214Y-19381357D01*
X4562500Y-19352786D01*
X4576786Y-19338500D01*
X4605357Y-19324214D01*
X4662500Y-19324214D01*
X4691071Y-19338500D01*
X4705357Y-19352786D01*
X4719643Y-19381357D01*
X4719643Y-19395643D01*
X4705357Y-19424214D01*
X4691071Y-19438500D01*
X4662500Y-19452786D01*
X4605357Y-19452786D01*
X4576786Y-19467072D01*
X4562500Y-19481357D01*
X4548214Y-19509929D01*
X4548214Y-19567072D01*
X4562500Y-19595643D01*
X4576786Y-19609929D01*
X4605357Y-19624214D01*
X4662500Y-19624214D01*
X4691071Y-19609929D01*
X4705357Y-19595643D01*
X4719643Y-19567072D01*
X4719643Y-19509929D01*
X4705357Y-19481357D01*
X4691071Y-19467072D01*
X4662500Y-19452786D01*
X4905357Y-19324214D02*
X4933928Y-19324214D01*
X4962500Y-19338500D01*
X4976786Y-19352786D01*
X4991071Y-19381357D01*
X5005357Y-19438500D01*
X5005357Y-19509929D01*
X4991071Y-19567072D01*
X4976786Y-19595643D01*
X4962500Y-19609929D01*
X4933928Y-19624214D01*
X4905357Y-19624214D01*
X4876786Y-19609929D01*
X4862500Y-19595643D01*
X4848214Y-19567072D01*
X4833928Y-19509929D01*
X4833928Y-19438500D01*
X4848214Y-19381357D01*
X4862500Y-19352786D01*
X4876786Y-19338500D01*
X4905357Y-19324214D01*
X5191071Y-19324214D02*
X5219643Y-19324214D01*
X5248214Y-19338500D01*
X5262500Y-19352786D01*
X5276786Y-19381357D01*
X5291071Y-19438500D01*
X5291071Y-19509929D01*
X5276786Y-19567072D01*
X5262500Y-19595643D01*
X5248214Y-19609929D01*
X5219643Y-19624214D01*
X5191071Y-19624214D01*
X5162500Y-19609929D01*
X5148214Y-19595643D01*
X5133928Y-19567072D01*
X5119643Y-19509929D01*
X5119643Y-19438500D01*
X5133928Y-19381357D01*
X5148214Y-19352786D01*
X5162500Y-19338500D01*
X5191071Y-19324214D01*
X5419643Y-19624214D02*
X5419643Y-19424214D01*
X5419643Y-19452786D02*
X5433928Y-19438500D01*
X5462500Y-19424214D01*
X5505357Y-19424214D01*
X5533928Y-19438500D01*
X5548214Y-19467072D01*
X5548214Y-19624214D01*
X5548214Y-19467072D02*
X5562500Y-19438500D01*
X5591071Y-19424214D01*
X5633928Y-19424214D01*
X5662500Y-19438500D01*
X5676786Y-19467072D01*
X5676786Y-19624214D01*
X5819643Y-19624214D02*
X5819643Y-19424214D01*
X5819643Y-19452786D02*
X5833928Y-19438500D01*
X5862500Y-19424214D01*
X5905357Y-19424214D01*
X5933928Y-19438500D01*
X5948214Y-19467072D01*
X5948214Y-19624214D01*
X5948214Y-19467072D02*
X5962500Y-19438500D01*
X5991071Y-19424214D01*
X6033928Y-19424214D01*
X6062500Y-19438500D01*
X6076786Y-19467072D01*
X6076786Y-19624214D01*
X6662500Y-19309929D02*
X6405357Y-19695643D01*
X7048214Y-19324214D02*
X7076786Y-19324214D01*
X7105357Y-19338500D01*
X7119643Y-19352786D01*
X7133928Y-19381357D01*
X7148214Y-19438500D01*
X7148214Y-19509929D01*
X7133928Y-19567072D01*
X7119643Y-19595643D01*
X7105357Y-19609929D01*
X7076786Y-19624214D01*
X7048214Y-19624214D01*
X7019643Y-19609929D01*
X7005357Y-19595643D01*
X6991071Y-19567072D01*
X6976786Y-19509929D01*
X6976786Y-19438500D01*
X6991071Y-19381357D01*
X7005357Y-19352786D01*
X7019643Y-19338500D01*
X7048214Y-19324214D01*
X7276786Y-19595643D02*
X7291071Y-19609929D01*
X7276786Y-19624214D01*
X7262500Y-19609929D01*
X7276786Y-19595643D01*
X7276786Y-19624214D01*
X7476786Y-19324214D02*
X7505357Y-19324214D01*
X7533928Y-19338500D01*
X7548214Y-19352786D01*
X7562500Y-19381357D01*
X7576786Y-19438500D01*
X7576786Y-19509929D01*
X7562500Y-19567072D01*
X7548214Y-19595643D01*
X7533928Y-19609929D01*
X7505357Y-19624214D01*
X7476786Y-19624214D01*
X7448214Y-19609929D01*
X7433928Y-19595643D01*
X7419643Y-19567072D01*
X7405357Y-19509929D01*
X7405357Y-19438500D01*
X7419643Y-19381357D01*
X7433928Y-19352786D01*
X7448214Y-19338500D01*
X7476786Y-19324214D01*
X7676786Y-19324214D02*
X7862500Y-19324214D01*
X7762500Y-19438500D01*
X7805357Y-19438500D01*
X7833928Y-19452786D01*
X7848214Y-19467072D01*
X7862500Y-19495643D01*
X7862500Y-19567072D01*
X7848214Y-19595643D01*
X7833928Y-19609929D01*
X7805357Y-19624214D01*
X7719643Y-19624214D01*
X7691071Y-19609929D01*
X7676786Y-19595643D01*
X8148214Y-19624214D02*
X7976786Y-19624214D01*
X8062500Y-19624214D02*
X8062500Y-19324214D01*
X8033928Y-19367072D01*
X8005357Y-19395643D01*
X7976786Y-19409929D01*
X8419643Y-19324214D02*
X8276786Y-19324214D01*
X8262500Y-19467072D01*
X8276786Y-19452786D01*
X8305357Y-19438500D01*
X8376786Y-19438500D01*
X8405357Y-19452786D01*
X8419643Y-19467072D01*
X8433928Y-19495643D01*
X8433928Y-19567072D01*
X8419643Y-19595643D01*
X8405357Y-19609929D01*
X8376786Y-19624214D01*
X8305357Y-19624214D01*
X8276786Y-19609929D01*
X8262500Y-19595643D01*
X8548214Y-19324214D02*
X8548214Y-19381357D01*
X8662500Y-19324214D02*
X8662500Y-19381357D01*
X9105357Y-19738500D02*
X9091071Y-19724214D01*
X9062500Y-19681357D01*
X9048214Y-19652786D01*
X9033928Y-19609929D01*
X9019643Y-19538500D01*
X9019643Y-19481357D01*
X9033928Y-19409929D01*
X9048214Y-19367072D01*
X9062500Y-19338500D01*
X9091071Y-19295643D01*
X9105357Y-19281357D01*
X9276786Y-19324214D02*
X9305357Y-19324214D01*
X9333928Y-19338500D01*
X9348214Y-19352786D01*
X9362500Y-19381357D01*
X9376786Y-19438500D01*
X9376786Y-19509929D01*
X9362500Y-19567072D01*
X9348214Y-19595643D01*
X9333928Y-19609929D01*
X9305357Y-19624214D01*
X9276786Y-19624214D01*
X9248214Y-19609929D01*
X9233928Y-19595643D01*
X9219643Y-19567072D01*
X9205357Y-19509929D01*
X9205357Y-19438500D01*
X9219643Y-19381357D01*
X9233928Y-19352786D01*
X9248214Y-19338500D01*
X9276786Y-19324214D01*
X9733928Y-19624214D02*
X9733928Y-19324214D01*
X9862500Y-19624214D02*
X9862500Y-19467072D01*
X9848214Y-19438500D01*
X9819643Y-19424214D01*
X9776786Y-19424214D01*
X9748214Y-19438500D01*
X9733928Y-19452786D01*
X10048214Y-19624214D02*
X10019643Y-19609929D01*
X10005357Y-19595643D01*
X9991071Y-19567072D01*
X9991071Y-19481357D01*
X10005357Y-19452786D01*
X10019643Y-19438500D01*
X10048214Y-19424214D01*
X10091071Y-19424214D01*
X10119643Y-19438500D01*
X10133928Y-19452786D01*
X10148214Y-19481357D01*
X10148214Y-19567072D01*
X10133928Y-19595643D01*
X10119643Y-19609929D01*
X10091071Y-19624214D01*
X10048214Y-19624214D01*
X10319643Y-19624214D02*
X10291071Y-19609929D01*
X10276786Y-19581357D01*
X10276786Y-19324214D01*
X10548214Y-19609929D02*
X10519643Y-19624214D01*
X10462500Y-19624214D01*
X10433928Y-19609929D01*
X10419643Y-19581357D01*
X10419643Y-19467072D01*
X10433928Y-19438500D01*
X10462500Y-19424214D01*
X10519643Y-19424214D01*
X10548214Y-19438500D01*
X10562500Y-19467072D01*
X10562500Y-19495643D01*
X10419643Y-19524214D01*
X10676786Y-19609929D02*
X10705357Y-19624214D01*
X10762500Y-19624214D01*
X10791071Y-19609929D01*
X10805357Y-19581357D01*
X10805357Y-19567072D01*
X10791071Y-19538500D01*
X10762500Y-19524214D01*
X10719643Y-19524214D01*
X10691071Y-19509929D01*
X10676786Y-19481357D01*
X10676786Y-19467072D01*
X10691071Y-19438500D01*
X10719643Y-19424214D01*
X10762500Y-19424214D01*
X10791071Y-19438500D01*
X11162500Y-19509929D02*
X11391071Y-19509929D01*
X11276786Y-19624214D02*
X11276786Y-19395643D01*
X11733928Y-19324214D02*
X11919643Y-19324214D01*
X11819643Y-19438500D01*
X11862500Y-19438500D01*
X11891071Y-19452786D01*
X11905357Y-19467072D01*
X11919643Y-19495643D01*
X11919643Y-19567072D01*
X11905357Y-19595643D01*
X11891071Y-19609929D01*
X11862500Y-19624214D01*
X11776786Y-19624214D01*
X11748214Y-19609929D01*
X11733928Y-19595643D01*
X12262500Y-19609929D02*
X12291071Y-19624214D01*
X12348214Y-19624214D01*
X12376786Y-19609929D01*
X12391071Y-19581357D01*
X12391071Y-19567072D01*
X12376786Y-19538500D01*
X12348214Y-19524214D01*
X12305357Y-19524214D01*
X12276786Y-19509929D01*
X12262500Y-19481357D01*
X12262500Y-19467072D01*
X12276786Y-19438500D01*
X12305357Y-19424214D01*
X12348214Y-19424214D01*
X12376786Y-19438500D01*
X12562500Y-19624214D02*
X12533928Y-19609929D01*
X12519643Y-19581357D01*
X12519643Y-19324214D01*
X12719643Y-19624214D02*
X12691071Y-19609929D01*
X12676786Y-19595643D01*
X12662500Y-19567072D01*
X12662500Y-19481357D01*
X12676786Y-19452786D01*
X12691071Y-19438500D01*
X12719643Y-19424214D01*
X12762500Y-19424214D01*
X12791071Y-19438500D01*
X12805357Y-19452786D01*
X12819643Y-19481357D01*
X12819643Y-19567072D01*
X12805357Y-19595643D01*
X12791071Y-19609929D01*
X12762500Y-19624214D01*
X12719643Y-19624214D01*
X12905357Y-19424214D02*
X13019643Y-19424214D01*
X12948214Y-19324214D02*
X12948214Y-19581357D01*
X12962500Y-19609929D01*
X12991071Y-19624214D01*
X13019643Y-19624214D01*
X13105357Y-19609929D02*
X13133928Y-19624214D01*
X13191071Y-19624214D01*
X13219643Y-19609929D01*
X13233928Y-19581357D01*
X13233928Y-19567072D01*
X13219643Y-19538500D01*
X13191071Y-19524214D01*
X13148214Y-19524214D01*
X13119643Y-19509929D01*
X13105357Y-19481357D01*
X13105357Y-19467072D01*
X13119643Y-19438500D01*
X13148214Y-19424214D01*
X13191071Y-19424214D01*
X13219643Y-19438500D01*
X13333928Y-19738500D02*
X13348214Y-19724214D01*
X13376786Y-19681357D01*
X13391071Y-19652786D01*
X13405357Y-19609929D01*
X13419643Y-19538500D01*
X13419643Y-19481357D01*
X13405357Y-19409929D01*
X13391071Y-19367072D01*
X13376786Y-19338500D01*
X13348214Y-19295643D01*
X13333928Y-19281357D01*
X3747500Y-19834500D02*
X3847500Y-19934500D01*
X3847500Y-19834500D02*
X3747500Y-19934500D01*
X3832856Y-19919856D02*
X3832856Y-19849144D01*
X3762144Y-19849144D01*
X3762144Y-19919856D01*
X3832856Y-19919856D01*
X4291071Y-20020214D02*
X4119643Y-20020214D01*
X4205357Y-20020214D02*
X4205357Y-19720214D01*
X4176786Y-19763072D01*
X4148214Y-19791643D01*
X4119643Y-19805929D01*
X4419643Y-19991643D02*
X4433928Y-20005929D01*
X4419643Y-20020214D01*
X4405357Y-20005929D01*
X4419643Y-19991643D01*
X4419643Y-20020214D01*
X4619643Y-19720214D02*
X4648214Y-19720214D01*
X4676786Y-19734500D01*
X4691071Y-19748786D01*
X4705357Y-19777357D01*
X4719643Y-19834500D01*
X4719643Y-19905929D01*
X4705357Y-19963072D01*
X4691071Y-19991643D01*
X4676786Y-20005929D01*
X4648214Y-20020214D01*
X4619643Y-20020214D01*
X4591071Y-20005929D01*
X4576786Y-19991643D01*
X4562500Y-19963072D01*
X4548214Y-19905929D01*
X4548214Y-19834500D01*
X4562500Y-19777357D01*
X4576786Y-19748786D01*
X4591071Y-19734500D01*
X4619643Y-19720214D01*
X4905357Y-19720214D02*
X4933928Y-19720214D01*
X4962500Y-19734500D01*
X4976786Y-19748786D01*
X4991071Y-19777357D01*
X5005357Y-19834500D01*
X5005357Y-19905929D01*
X4991071Y-19963072D01*
X4976786Y-19991643D01*
X4962500Y-20005929D01*
X4933928Y-20020214D01*
X4905357Y-20020214D01*
X4876786Y-20005929D01*
X4862500Y-19991643D01*
X4848214Y-19963072D01*
X4833928Y-19905929D01*
X4833928Y-19834500D01*
X4848214Y-19777357D01*
X4862500Y-19748786D01*
X4876786Y-19734500D01*
X4905357Y-19720214D01*
X5191071Y-19720214D02*
X5219643Y-19720214D01*
X5248214Y-19734500D01*
X5262500Y-19748786D01*
X5276786Y-19777357D01*
X5291071Y-19834500D01*
X5291071Y-19905929D01*
X5276786Y-19963072D01*
X5262500Y-19991643D01*
X5248214Y-20005929D01*
X5219643Y-20020214D01*
X5191071Y-20020214D01*
X5162500Y-20005929D01*
X5148214Y-19991643D01*
X5133928Y-19963072D01*
X5119643Y-19905929D01*
X5119643Y-19834500D01*
X5133928Y-19777357D01*
X5148214Y-19748786D01*
X5162500Y-19734500D01*
X5191071Y-19720214D01*
X5419643Y-20020214D02*
X5419643Y-19820214D01*
X5419643Y-19848786D02*
X5433928Y-19834500D01*
X5462500Y-19820214D01*
X5505357Y-19820214D01*
X5533928Y-19834500D01*
X5548214Y-19863072D01*
X5548214Y-20020214D01*
X5548214Y-19863072D02*
X5562500Y-19834500D01*
X5591071Y-19820214D01*
X5633928Y-19820214D01*
X5662500Y-19834500D01*
X5676786Y-19863072D01*
X5676786Y-20020214D01*
X5819643Y-20020214D02*
X5819643Y-19820214D01*
X5819643Y-19848786D02*
X5833928Y-19834500D01*
X5862500Y-19820214D01*
X5905357Y-19820214D01*
X5933928Y-19834500D01*
X5948214Y-19863072D01*
X5948214Y-20020214D01*
X5948214Y-19863072D02*
X5962500Y-19834500D01*
X5991071Y-19820214D01*
X6033928Y-19820214D01*
X6062500Y-19834500D01*
X6076786Y-19863072D01*
X6076786Y-20020214D01*
X6662500Y-19705929D02*
X6405357Y-20091643D01*
X7048214Y-19720214D02*
X7076786Y-19720214D01*
X7105357Y-19734500D01*
X7119643Y-19748786D01*
X7133928Y-19777357D01*
X7148214Y-19834500D01*
X7148214Y-19905929D01*
X7133928Y-19963072D01*
X7119643Y-19991643D01*
X7105357Y-20005929D01*
X7076786Y-20020214D01*
X7048214Y-20020214D01*
X7019643Y-20005929D01*
X7005357Y-19991643D01*
X6991071Y-19963072D01*
X6976786Y-19905929D01*
X6976786Y-19834500D01*
X6991071Y-19777357D01*
X7005357Y-19748786D01*
X7019643Y-19734500D01*
X7048214Y-19720214D01*
X7276786Y-19991643D02*
X7291071Y-20005929D01*
X7276786Y-20020214D01*
X7262500Y-20005929D01*
X7276786Y-19991643D01*
X7276786Y-20020214D01*
X7476786Y-19720214D02*
X7505357Y-19720214D01*
X7533928Y-19734500D01*
X7548214Y-19748786D01*
X7562500Y-19777357D01*
X7576786Y-19834500D01*
X7576786Y-19905929D01*
X7562500Y-19963072D01*
X7548214Y-19991643D01*
X7533928Y-20005929D01*
X7505357Y-20020214D01*
X7476786Y-20020214D01*
X7448214Y-20005929D01*
X7433928Y-19991643D01*
X7419643Y-19963072D01*
X7405357Y-19905929D01*
X7405357Y-19834500D01*
X7419643Y-19777357D01*
X7433928Y-19748786D01*
X7448214Y-19734500D01*
X7476786Y-19720214D01*
X7676786Y-19720214D02*
X7862500Y-19720214D01*
X7762500Y-19834500D01*
X7805357Y-19834500D01*
X7833928Y-19848786D01*
X7848214Y-19863072D01*
X7862500Y-19891643D01*
X7862500Y-19963072D01*
X7848214Y-19991643D01*
X7833928Y-20005929D01*
X7805357Y-20020214D01*
X7719643Y-20020214D01*
X7691071Y-20005929D01*
X7676786Y-19991643D01*
X8005357Y-20020214D02*
X8062500Y-20020214D01*
X8091071Y-20005929D01*
X8105357Y-19991643D01*
X8133928Y-19948786D01*
X8148214Y-19891643D01*
X8148214Y-19777357D01*
X8133928Y-19748786D01*
X8119643Y-19734500D01*
X8091071Y-19720214D01*
X8033928Y-19720214D01*
X8005357Y-19734500D01*
X7991071Y-19748786D01*
X7976786Y-19777357D01*
X7976786Y-19848786D01*
X7991071Y-19877357D01*
X8005357Y-19891643D01*
X8033928Y-19905929D01*
X8091071Y-19905929D01*
X8119643Y-19891643D01*
X8133928Y-19877357D01*
X8148214Y-19848786D01*
X8405357Y-19820214D02*
X8405357Y-20020214D01*
X8333928Y-19705929D02*
X8262500Y-19920214D01*
X8448214Y-19920214D01*
X8548214Y-19720214D02*
X8548214Y-19777357D01*
X8662500Y-19720214D02*
X8662500Y-19777357D01*
X9105357Y-20134500D02*
X9091071Y-20120214D01*
X9062500Y-20077357D01*
X9048214Y-20048786D01*
X9033928Y-20005929D01*
X9019643Y-19934500D01*
X9019643Y-19877357D01*
X9033928Y-19805929D01*
X9048214Y-19763072D01*
X9062500Y-19734500D01*
X9091071Y-19691643D01*
X9105357Y-19677357D01*
X9205357Y-19748786D02*
X9219643Y-19734500D01*
X9248214Y-19720214D01*
X9319643Y-19720214D01*
X9348214Y-19734500D01*
X9362500Y-19748786D01*
X9376786Y-19777357D01*
X9376786Y-19805929D01*
X9362500Y-19848786D01*
X9191071Y-20020214D01*
X9376786Y-20020214D01*
X9633928Y-19820214D02*
X9633928Y-20020214D01*
X9562500Y-19705929D02*
X9491071Y-19920214D01*
X9676786Y-19920214D01*
X10019643Y-20020214D02*
X10019643Y-19720214D01*
X10148214Y-20020214D02*
X10148214Y-19863072D01*
X10133928Y-19834500D01*
X10105357Y-19820214D01*
X10062500Y-19820214D01*
X10033928Y-19834500D01*
X10019643Y-19848786D01*
X10333928Y-20020214D02*
X10305357Y-20005929D01*
X10291071Y-19991643D01*
X10276786Y-19963072D01*
X10276786Y-19877357D01*
X10291071Y-19848786D01*
X10305357Y-19834500D01*
X10333928Y-19820214D01*
X10376786Y-19820214D01*
X10405357Y-19834500D01*
X10419643Y-19848786D01*
X10433928Y-19877357D01*
X10433928Y-19963072D01*
X10419643Y-19991643D01*
X10405357Y-20005929D01*
X10376786Y-20020214D01*
X10333928Y-20020214D01*
X10605357Y-20020214D02*
X10576786Y-20005929D01*
X10562500Y-19977357D01*
X10562500Y-19720214D01*
X10833928Y-20005929D02*
X10805357Y-20020214D01*
X10748214Y-20020214D01*
X10719643Y-20005929D01*
X10705357Y-19977357D01*
X10705357Y-19863072D01*
X10719643Y-19834500D01*
X10748214Y-19820214D01*
X10805357Y-19820214D01*
X10833928Y-19834500D01*
X10848214Y-19863072D01*
X10848214Y-19891643D01*
X10705357Y-19920214D01*
X10962500Y-20005929D02*
X10991071Y-20020214D01*
X11048214Y-20020214D01*
X11076786Y-20005929D01*
X11091071Y-19977357D01*
X11091071Y-19963072D01*
X11076786Y-19934500D01*
X11048214Y-19920214D01*
X11005357Y-19920214D01*
X10976786Y-19905929D01*
X10962500Y-19877357D01*
X10962500Y-19863072D01*
X10976786Y-19834500D01*
X11005357Y-19820214D01*
X11048214Y-19820214D01*
X11076786Y-19834500D01*
X11191071Y-20134500D02*
X11205357Y-20120214D01*
X11233928Y-20077357D01*
X11248214Y-20048786D01*
X11262500Y-20005929D01*
X11276786Y-19934500D01*
X11276786Y-19877357D01*
X11262500Y-19805929D01*
X11248214Y-19763072D01*
X11233928Y-19734500D01*
X11205357Y-19691643D01*
X11191071Y-19677357D01*
X3527500Y-20120500D02*
X3847500Y-20440500D01*
X3847500Y-20120500D02*
X3527500Y-20440500D01*
X3687500Y-20440500D02*
X3847500Y-20280500D01*
X3687500Y-20120500D01*
X3527500Y-20280500D01*
X3687500Y-20440500D01*
X4105357Y-20116214D02*
X4291071Y-20116214D01*
X4191071Y-20230500D01*
X4233928Y-20230500D01*
X4262500Y-20244786D01*
X4276786Y-20259072D01*
X4291071Y-20287643D01*
X4291071Y-20359072D01*
X4276786Y-20387643D01*
X4262500Y-20401929D01*
X4233928Y-20416214D01*
X4148214Y-20416214D01*
X4119643Y-20401929D01*
X4105357Y-20387643D01*
X4419643Y-20387643D02*
X4433928Y-20401929D01*
X4419643Y-20416214D01*
X4405357Y-20401929D01*
X4419643Y-20387643D01*
X4419643Y-20416214D01*
X4548214Y-20144786D02*
X4562500Y-20130500D01*
X4591071Y-20116214D01*
X4662500Y-20116214D01*
X4691071Y-20130500D01*
X4705357Y-20144786D01*
X4719643Y-20173357D01*
X4719643Y-20201929D01*
X4705357Y-20244786D01*
X4533928Y-20416214D01*
X4719643Y-20416214D01*
X4905357Y-20116214D02*
X4933928Y-20116214D01*
X4962500Y-20130500D01*
X4976786Y-20144786D01*
X4991071Y-20173357D01*
X5005357Y-20230500D01*
X5005357Y-20301929D01*
X4991071Y-20359072D01*
X4976786Y-20387643D01*
X4962500Y-20401929D01*
X4933928Y-20416214D01*
X4905357Y-20416214D01*
X4876786Y-20401929D01*
X4862500Y-20387643D01*
X4848214Y-20359072D01*
X4833928Y-20301929D01*
X4833928Y-20230500D01*
X4848214Y-20173357D01*
X4862500Y-20144786D01*
X4876786Y-20130500D01*
X4905357Y-20116214D01*
X5191071Y-20116214D02*
X5219643Y-20116214D01*
X5248214Y-20130500D01*
X5262500Y-20144786D01*
X5276786Y-20173357D01*
X5291071Y-20230500D01*
X5291071Y-20301929D01*
X5276786Y-20359072D01*
X5262500Y-20387643D01*
X5248214Y-20401929D01*
X5219643Y-20416214D01*
X5191071Y-20416214D01*
X5162500Y-20401929D01*
X5148214Y-20387643D01*
X5133928Y-20359072D01*
X5119643Y-20301929D01*
X5119643Y-20230500D01*
X5133928Y-20173357D01*
X5148214Y-20144786D01*
X5162500Y-20130500D01*
X5191071Y-20116214D01*
X5419643Y-20416214D02*
X5419643Y-20216214D01*
X5419643Y-20244786D02*
X5433928Y-20230500D01*
X5462500Y-20216214D01*
X5505357Y-20216214D01*
X5533928Y-20230500D01*
X5548214Y-20259072D01*
X5548214Y-20416214D01*
X5548214Y-20259072D02*
X5562500Y-20230500D01*
X5591071Y-20216214D01*
X5633928Y-20216214D01*
X5662500Y-20230500D01*
X5676786Y-20259072D01*
X5676786Y-20416214D01*
X5819643Y-20416214D02*
X5819643Y-20216214D01*
X5819643Y-20244786D02*
X5833928Y-20230500D01*
X5862500Y-20216214D01*
X5905357Y-20216214D01*
X5933928Y-20230500D01*
X5948214Y-20259072D01*
X5948214Y-20416214D01*
X5948214Y-20259072D02*
X5962500Y-20230500D01*
X5991071Y-20216214D01*
X6033928Y-20216214D01*
X6062500Y-20230500D01*
X6076786Y-20259072D01*
X6076786Y-20416214D01*
X6662500Y-20101929D02*
X6405357Y-20487643D01*
X7048214Y-20116214D02*
X7076786Y-20116214D01*
X7105357Y-20130500D01*
X7119643Y-20144786D01*
X7133928Y-20173357D01*
X7148214Y-20230500D01*
X7148214Y-20301929D01*
X7133928Y-20359072D01*
X7119643Y-20387643D01*
X7105357Y-20401929D01*
X7076786Y-20416214D01*
X7048214Y-20416214D01*
X7019643Y-20401929D01*
X7005357Y-20387643D01*
X6991071Y-20359072D01*
X6976786Y-20301929D01*
X6976786Y-20230500D01*
X6991071Y-20173357D01*
X7005357Y-20144786D01*
X7019643Y-20130500D01*
X7048214Y-20116214D01*
X7276786Y-20387643D02*
X7291071Y-20401929D01*
X7276786Y-20416214D01*
X7262500Y-20401929D01*
X7276786Y-20387643D01*
X7276786Y-20416214D01*
X7576786Y-20416214D02*
X7405357Y-20416214D01*
X7491071Y-20416214D02*
X7491071Y-20116214D01*
X7462500Y-20159072D01*
X7433928Y-20187643D01*
X7405357Y-20201929D01*
X7691071Y-20144786D02*
X7705357Y-20130500D01*
X7733928Y-20116214D01*
X7805357Y-20116214D01*
X7833928Y-20130500D01*
X7848214Y-20144786D01*
X7862500Y-20173357D01*
X7862500Y-20201929D01*
X7848214Y-20244786D01*
X7676786Y-20416214D01*
X7862500Y-20416214D01*
X8119643Y-20116214D02*
X8062500Y-20116214D01*
X8033928Y-20130500D01*
X8019643Y-20144786D01*
X7991071Y-20187643D01*
X7976786Y-20244786D01*
X7976786Y-20359072D01*
X7991071Y-20387643D01*
X8005357Y-20401929D01*
X8033928Y-20416214D01*
X8091071Y-20416214D01*
X8119643Y-20401929D01*
X8133928Y-20387643D01*
X8148214Y-20359072D01*
X8148214Y-20287643D01*
X8133928Y-20259072D01*
X8119643Y-20244786D01*
X8091071Y-20230500D01*
X8033928Y-20230500D01*
X8005357Y-20244786D01*
X7991071Y-20259072D01*
X7976786Y-20287643D01*
X8333928Y-20116214D02*
X8362500Y-20116214D01*
X8391071Y-20130500D01*
X8405357Y-20144786D01*
X8419643Y-20173357D01*
X8433928Y-20230500D01*
X8433928Y-20301929D01*
X8419643Y-20359072D01*
X8405357Y-20387643D01*
X8391071Y-20401929D01*
X8362500Y-20416214D01*
X8333928Y-20416214D01*
X8305357Y-20401929D01*
X8291071Y-20387643D01*
X8276786Y-20359072D01*
X8262500Y-20301929D01*
X8262500Y-20230500D01*
X8276786Y-20173357D01*
X8291071Y-20144786D01*
X8305357Y-20130500D01*
X8333928Y-20116214D01*
X8548214Y-20116214D02*
X8548214Y-20173357D01*
X8662500Y-20116214D02*
X8662500Y-20173357D01*
X9105357Y-20530500D02*
X9091071Y-20516214D01*
X9062500Y-20473357D01*
X9048214Y-20444786D01*
X9033928Y-20401929D01*
X9019643Y-20330500D01*
X9019643Y-20273357D01*
X9033928Y-20201929D01*
X9048214Y-20159072D01*
X9062500Y-20130500D01*
X9091071Y-20087643D01*
X9105357Y-20073357D01*
X9191071Y-20116214D02*
X9376786Y-20116214D01*
X9276786Y-20230500D01*
X9319643Y-20230500D01*
X9348214Y-20244786D01*
X9362500Y-20259072D01*
X9376786Y-20287643D01*
X9376786Y-20359072D01*
X9362500Y-20387643D01*
X9348214Y-20401929D01*
X9319643Y-20416214D01*
X9233928Y-20416214D01*
X9205357Y-20401929D01*
X9191071Y-20387643D01*
X9733928Y-20416214D02*
X9733928Y-20116214D01*
X9862500Y-20416214D02*
X9862500Y-20259072D01*
X9848214Y-20230500D01*
X9819643Y-20216214D01*
X9776786Y-20216214D01*
X9748214Y-20230500D01*
X9733928Y-20244786D01*
X10048214Y-20416214D02*
X10019643Y-20401929D01*
X10005357Y-20387643D01*
X9991071Y-20359072D01*
X9991071Y-20273357D01*
X10005357Y-20244786D01*
X10019643Y-20230500D01*
X10048214Y-20216214D01*
X10091071Y-20216214D01*
X10119643Y-20230500D01*
X10133928Y-20244786D01*
X10148214Y-20273357D01*
X10148214Y-20359072D01*
X10133928Y-20387643D01*
X10119643Y-20401929D01*
X10091071Y-20416214D01*
X10048214Y-20416214D01*
X10319643Y-20416214D02*
X10291071Y-20401929D01*
X10276786Y-20373357D01*
X10276786Y-20116214D01*
X10548214Y-20401929D02*
X10519643Y-20416214D01*
X10462500Y-20416214D01*
X10433928Y-20401929D01*
X10419643Y-20373357D01*
X10419643Y-20259072D01*
X10433928Y-20230500D01*
X10462500Y-20216214D01*
X10519643Y-20216214D01*
X10548214Y-20230500D01*
X10562500Y-20259072D01*
X10562500Y-20287643D01*
X10419643Y-20316214D01*
X10676786Y-20401929D02*
X10705357Y-20416214D01*
X10762500Y-20416214D01*
X10791071Y-20401929D01*
X10805357Y-20373357D01*
X10805357Y-20359072D01*
X10791071Y-20330500D01*
X10762500Y-20316214D01*
X10719643Y-20316214D01*
X10691071Y-20301929D01*
X10676786Y-20273357D01*
X10676786Y-20259072D01*
X10691071Y-20230500D01*
X10719643Y-20216214D01*
X10762500Y-20216214D01*
X10791071Y-20230500D01*
X10905357Y-20530500D02*
X10919643Y-20516214D01*
X10948214Y-20473357D01*
X10962500Y-20444786D01*
X10976786Y-20401929D01*
X10991071Y-20330500D01*
X10991071Y-20273357D01*
X10976786Y-20201929D01*
X10962500Y-20159072D01*
X10948214Y-20130500D01*
X10919643Y-20087643D01*
X10905357Y-20073357D01*
M02*
