%TF.GenerationSoftware,KiCad,Pcbnew,5.1.10-88a1d61d58~88~ubuntu18.04.1*%
%TF.CreationDate,2021-07-16T18:03:04+01:00*%
%TF.ProjectId,NerdClock,4e657264-436c-46f6-936b-2e6b69636164,rev?*%
%TF.SameCoordinates,Original*%
%TF.FileFunction,Soldermask,Bot*%
%TF.FilePolarity,Negative*%
%FSLAX46Y46*%
G04 Gerber Fmt 4.6, Leading zero omitted, Abs format (unit mm)*
G04 Created by KiCad (PCBNEW 5.1.10-88a1d61d58~88~ubuntu18.04.1) date 2021-07-16 18:03:04*
%MOMM*%
%LPD*%
G01*
G04 APERTURE LIST*
%ADD10C,0.100000*%
%ADD11C,3.500000*%
%ADD12R,1.700000X1.700000*%
%ADD13O,1.700000X1.700000*%
%ADD14C,1.524000*%
%ADD15C,3.200000*%
%ADD16C,6.400000*%
%ADD17C,0.800000*%
%ADD18O,1.800000X4.000000*%
%ADD19O,4.000000X1.800000*%
%ADD20R,4.400000X1.800000*%
%ADD21O,1.500000X1.100000*%
%ADD22O,1.700000X1.350000*%
%ADD23R,1.524000X1.524000*%
%ADD24C,1.000000*%
G04 APERTURE END LIST*
D10*
G36*
X124600000Y-134700000D02*
G01*
X121200000Y-134700000D01*
X121200000Y-125200000D01*
X124600000Y-125200000D01*
X124600000Y-134700000D01*
G37*
X124600000Y-134700000D02*
X121200000Y-134700000D01*
X121200000Y-125200000D01*
X124600000Y-125200000D01*
X124600000Y-134700000D01*
D11*
X92750000Y-60000000D02*
G75*
G03*
X92750000Y-60000000I-1750000J0D01*
G01*
X110750000Y-60000000D02*
G75*
G03*
X110750000Y-60000000I-1750000J0D01*
G01*
D12*
X96190000Y-96000000D03*
D13*
X98730000Y-96000000D03*
X101270000Y-96000000D03*
X103810000Y-96000000D03*
X103810000Y-129000000D03*
X101270000Y-129000000D03*
X98730000Y-129000000D03*
D12*
X96190000Y-129000000D03*
D14*
X95500000Y-93000000D03*
X98500000Y-93000000D03*
X101500000Y-93000000D03*
X104500000Y-93000000D03*
X92500000Y-88000000D03*
X107500000Y-88000000D03*
D15*
X109000000Y-130500000D03*
D16*
X111114000Y-80749000D03*
D17*
X113514000Y-80749000D03*
X112811056Y-82446056D03*
X111114000Y-83149000D03*
X109416944Y-82446056D03*
X108714000Y-80749000D03*
X109416944Y-79051944D03*
X111114000Y-78349000D03*
X112811056Y-79051944D03*
D16*
X111114000Y-119251000D03*
D17*
X113514000Y-119251000D03*
X112811056Y-120948056D03*
X111114000Y-121651000D03*
X109416944Y-120948056D03*
X108714000Y-119251000D03*
X109416944Y-117553944D03*
X111114000Y-116851000D03*
X112811056Y-117553944D03*
X79468056Y-98302944D03*
X77771000Y-97600000D03*
X76073944Y-98302944D03*
X75371000Y-100000000D03*
X76073944Y-101697056D03*
X77771000Y-102400000D03*
X79468056Y-101697056D03*
X80171000Y-100000000D03*
D16*
X77771000Y-100000000D03*
D15*
X143000000Y-100000000D03*
X78500000Y-137239000D03*
X78500000Y-62761000D03*
D13*
X101270000Y-54500000D03*
D12*
X98730000Y-54500000D03*
D18*
X104800000Y-141500000D03*
D19*
X100000000Y-144300000D03*
D20*
X100000000Y-138500000D03*
D12*
X141450000Y-111550000D03*
D13*
X138910000Y-111550000D03*
X141450000Y-109010000D03*
X138910000Y-109010000D03*
X141450000Y-106470000D03*
X138910000Y-106470000D03*
D21*
X141625000Y-93885000D03*
X141625000Y-89045000D03*
D22*
X144625000Y-94195000D03*
X144625000Y-88735000D03*
D23*
X101100000Y-106000000D03*
D14*
X101100000Y-108540000D03*
X98900000Y-108540000D03*
X98900000Y-106000000D03*
D24*
X83500000Y-133500000D03*
X85400000Y-133500000D03*
D15*
X91000000Y-97500000D03*
X109000000Y-97500000D03*
X91000000Y-130500000D03*
D13*
X104500000Y-108500000D03*
D12*
X104500000Y-105960000D03*
X95500000Y-105960000D03*
D13*
X95500000Y-108500000D03*
X104500000Y-72136000D03*
D12*
X104500000Y-69596000D03*
X95500000Y-72136000D03*
D13*
X95500000Y-69596000D03*
G36*
G01*
X82750000Y-59750000D02*
X82750000Y-58250000D01*
G75*
G02*
X83500000Y-57500000I750000J0D01*
G01*
X86000000Y-57500000D01*
G75*
G02*
X86750000Y-58250000I0J-750000D01*
G01*
X86750000Y-59750000D01*
G75*
G02*
X86000000Y-60500000I-750000J0D01*
G01*
X83500000Y-60500000D01*
G75*
G02*
X82750000Y-59750000I0J750000D01*
G01*
G37*
G36*
G01*
X99250000Y-60250000D02*
X99250000Y-61750000D01*
G75*
G02*
X98500000Y-62500000I-750000J0D01*
G01*
X96000000Y-62500000D01*
G75*
G02*
X95250000Y-61750000I0J750000D01*
G01*
X95250000Y-60250000D01*
G75*
G02*
X96000000Y-59500000I750000J0D01*
G01*
X98500000Y-59500000D01*
G75*
G02*
X99250000Y-60250000I0J-750000D01*
G01*
G37*
G36*
G01*
X117250000Y-60250000D02*
X117250000Y-61750000D01*
G75*
G02*
X116500000Y-62500000I-750000J0D01*
G01*
X114000000Y-62500000D01*
G75*
G02*
X113250000Y-61750000I0J750000D01*
G01*
X113250000Y-60250000D01*
G75*
G02*
X114000000Y-59500000I750000J0D01*
G01*
X116500000Y-59500000D01*
G75*
G02*
X117250000Y-60250000I0J-750000D01*
G01*
G37*
G36*
G01*
X100750000Y-59750000D02*
X100750000Y-58250000D01*
G75*
G02*
X101500000Y-57500000I750000J0D01*
G01*
X104000000Y-57500000D01*
G75*
G02*
X104750000Y-58250000I0J-750000D01*
G01*
X104750000Y-59750000D01*
G75*
G02*
X104000000Y-60500000I-750000J0D01*
G01*
X101500000Y-60500000D01*
G75*
G02*
X100750000Y-59750000I0J750000D01*
G01*
G37*
G36*
G01*
X100075000Y-59125000D02*
X99525000Y-59125000D01*
G75*
G02*
X99325000Y-58925000I0J200000D01*
G01*
X99325000Y-58525000D01*
G75*
G02*
X99525000Y-58325000I200000J0D01*
G01*
X100075000Y-58325000D01*
G75*
G02*
X100275000Y-58525000I0J-200000D01*
G01*
X100275000Y-58925000D01*
G75*
G02*
X100075000Y-59125000I-200000J0D01*
G01*
G37*
G36*
G01*
X100075000Y-57475000D02*
X99525000Y-57475000D01*
G75*
G02*
X99325000Y-57275000I0J200000D01*
G01*
X99325000Y-56875000D01*
G75*
G02*
X99525000Y-56675000I200000J0D01*
G01*
X100075000Y-56675000D01*
G75*
G02*
X100275000Y-56875000I0J-200000D01*
G01*
X100275000Y-57275000D01*
G75*
G02*
X100075000Y-57475000I-200000J0D01*
G01*
G37*
G36*
G01*
X98475000Y-57475000D02*
X97925000Y-57475000D01*
G75*
G02*
X97725000Y-57275000I0J200000D01*
G01*
X97725000Y-56875000D01*
G75*
G02*
X97925000Y-56675000I200000J0D01*
G01*
X98475000Y-56675000D01*
G75*
G02*
X98675000Y-56875000I0J-200000D01*
G01*
X98675000Y-57275000D01*
G75*
G02*
X98475000Y-57475000I-200000J0D01*
G01*
G37*
G36*
G01*
X98475000Y-59125000D02*
X97925000Y-59125000D01*
G75*
G02*
X97725000Y-58925000I0J200000D01*
G01*
X97725000Y-58525000D01*
G75*
G02*
X97925000Y-58325000I200000J0D01*
G01*
X98475000Y-58325000D01*
G75*
G02*
X98675000Y-58525000I0J-200000D01*
G01*
X98675000Y-58925000D01*
G75*
G02*
X98475000Y-59125000I-200000J0D01*
G01*
G37*
M02*
