%TF.GenerationSoftware,KiCad,Pcbnew,5.1.10-88a1d61d58~88~ubuntu18.04.1*%
%TF.CreationDate,2021-07-16T18:03:04+01:00*%
%TF.ProjectId,NerdClock,4e657264-436c-46f6-936b-2e6b69636164,rev?*%
%TF.SameCoordinates,Original*%
%TF.FileFunction,Paste,Bot*%
%TF.FilePolarity,Positive*%
%FSLAX46Y46*%
G04 Gerber Fmt 4.6, Leading zero omitted, Abs format (unit mm)*
G04 Created by KiCad (PCBNEW 5.1.10-88a1d61d58~88~ubuntu18.04.1) date 2021-07-16 18:03:04*
%MOMM*%
%LPD*%
G01*
G04 APERTURE LIST*
G04 APERTURE END LIST*
G36*
G01*
X82750000Y-59750000D02*
X82750000Y-58250000D01*
G75*
G02*
X83500000Y-57500000I750000J0D01*
G01*
X86000000Y-57500000D01*
G75*
G02*
X86750000Y-58250000I0J-750000D01*
G01*
X86750000Y-59750000D01*
G75*
G02*
X86000000Y-60500000I-750000J0D01*
G01*
X83500000Y-60500000D01*
G75*
G02*
X82750000Y-59750000I0J750000D01*
G01*
G37*
G36*
G01*
X99250000Y-60250000D02*
X99250000Y-61750000D01*
G75*
G02*
X98500000Y-62500000I-750000J0D01*
G01*
X96000000Y-62500000D01*
G75*
G02*
X95250000Y-61750000I0J750000D01*
G01*
X95250000Y-60250000D01*
G75*
G02*
X96000000Y-59500000I750000J0D01*
G01*
X98500000Y-59500000D01*
G75*
G02*
X99250000Y-60250000I0J-750000D01*
G01*
G37*
G36*
G01*
X117250000Y-60250000D02*
X117250000Y-61750000D01*
G75*
G02*
X116500000Y-62500000I-750000J0D01*
G01*
X114000000Y-62500000D01*
G75*
G02*
X113250000Y-61750000I0J750000D01*
G01*
X113250000Y-60250000D01*
G75*
G02*
X114000000Y-59500000I750000J0D01*
G01*
X116500000Y-59500000D01*
G75*
G02*
X117250000Y-60250000I0J-750000D01*
G01*
G37*
G36*
G01*
X100750000Y-59750000D02*
X100750000Y-58250000D01*
G75*
G02*
X101500000Y-57500000I750000J0D01*
G01*
X104000000Y-57500000D01*
G75*
G02*
X104750000Y-58250000I0J-750000D01*
G01*
X104750000Y-59750000D01*
G75*
G02*
X104000000Y-60500000I-750000J0D01*
G01*
X101500000Y-60500000D01*
G75*
G02*
X100750000Y-59750000I0J750000D01*
G01*
G37*
G36*
G01*
X100075000Y-59125000D02*
X99525000Y-59125000D01*
G75*
G02*
X99325000Y-58925000I0J200000D01*
G01*
X99325000Y-58525000D01*
G75*
G02*
X99525000Y-58325000I200000J0D01*
G01*
X100075000Y-58325000D01*
G75*
G02*
X100275000Y-58525000I0J-200000D01*
G01*
X100275000Y-58925000D01*
G75*
G02*
X100075000Y-59125000I-200000J0D01*
G01*
G37*
G36*
G01*
X100075000Y-57475000D02*
X99525000Y-57475000D01*
G75*
G02*
X99325000Y-57275000I0J200000D01*
G01*
X99325000Y-56875000D01*
G75*
G02*
X99525000Y-56675000I200000J0D01*
G01*
X100075000Y-56675000D01*
G75*
G02*
X100275000Y-56875000I0J-200000D01*
G01*
X100275000Y-57275000D01*
G75*
G02*
X100075000Y-57475000I-200000J0D01*
G01*
G37*
G36*
G01*
X98475000Y-57475000D02*
X97925000Y-57475000D01*
G75*
G02*
X97725000Y-57275000I0J200000D01*
G01*
X97725000Y-56875000D01*
G75*
G02*
X97925000Y-56675000I200000J0D01*
G01*
X98475000Y-56675000D01*
G75*
G02*
X98675000Y-56875000I0J-200000D01*
G01*
X98675000Y-57275000D01*
G75*
G02*
X98475000Y-57475000I-200000J0D01*
G01*
G37*
G36*
G01*
X98475000Y-59125000D02*
X97925000Y-59125000D01*
G75*
G02*
X97725000Y-58925000I0J200000D01*
G01*
X97725000Y-58525000D01*
G75*
G02*
X97925000Y-58325000I200000J0D01*
G01*
X98475000Y-58325000D01*
G75*
G02*
X98675000Y-58525000I0J-200000D01*
G01*
X98675000Y-58925000D01*
G75*
G02*
X98475000Y-59125000I-200000J0D01*
G01*
G37*
M02*
